<svg height="512pt" viewBox="0 0 512.0002 512" width="512pt" xmlns="http://www.w3.org/2000/svg"><path d="m467.863281 105.929688h26.480469c9.738281.03125 17.628906 7.917968 17.65625 17.65625v344.277343c0 9.710938-7.945312 17.652344-26.484375 17.652344h-194.207031c3.972656 0 0 3.972656 0 8.828125v8.828125c-.011719 4.871094-3.957032 8.8125-8.824219 8.828125h-52.96875c-4.867187-.015625-8.8125-3.957031-8.824219-8.828125v-8.828125c-.015625-4.867188-3.960937-8.8125-8.828125-8.828125h-194.207031c-9.738281-.027344-17.6289062-7.914063-17.65625-17.652344v-344.277343c-.0117188-2.660157.589844-5.289063 1.765625-7.679688zm0 0" fill="#af8066"/><path d="m256 485.515625c-4.875 0-8.828125-3.949219-8.828125-8.824219v-26.484375c0-4.875 3.953125-8.828125 8.828125-8.828125s8.828125 3.953125 8.828125 8.828125v26.484375c0 4.875-3.953125 8.824219-8.828125 8.824219zm0 0" fill="#7f5b53"/><path d="m44.136719 397.242188v-218.75l143.449219-116.699219h33.105468c9.363282-.003907 18.347656 3.71875 24.96875 10.339843 6.625 6.621094 10.34375 15.605469 10.339844 24.972657v344.273437zm0 0" fill="#f9eab0"/><path d="m44.136719 397.242188h176.554687c19.5 0 35.308594 15.808593 35.308594 35.308593v17.65625h-203.035156c-4.875 0-8.828125-3.953125-8.828125-8.828125zm0 0" fill="#fac176"/><path d="m467.863281 397.242188v-317.792969c-.03125-9.738281-7.917969-17.628907-17.65625-17.65625h-158.898437c-9.363282-.003907-18.347656 3.71875-24.96875 10.339843-6.621094 6.621094-10.34375 15.605469-10.339844 24.972657v344.273437zm0 0" fill="#f5efca"/><path d="m256 450.207031h194.207031c13.703125 0 17.65625-3.953125 17.65625-8.828125v-44.136718h-185.378906c-10.675781 0-26.484375 15.808593-26.484375 35.308593zm0 0" fill="#f9eab0"/><path d="m194.207031 97.105469c0 53.625-43.476562 97.101562-97.101562 97.101562-53.628907 0-97.105469-43.476562-97.105469-97.101562 0-53.628907 43.476562-97.105469 97.105469-97.105469 53.625 0 97.101562 43.476562 97.101562 97.105469zm0 0" fill="#2fa8cc"/><path d="m414.898438 132.414062v264.828126h-88.277344v-264.828126l26.484375-8.828124 17.652343 26.484374 17.65625-26.484374zm0 0" fill="#e64c3c"/><path d="m390.796875 65.058594c-5.851563 4.078125-12.921875 6.042968-20.039063 5.5625-7.117187.480468-14.183593-1.484375-20.039062-5.5625l11.832031-32.925782c1.308594-3.394531 4.570313-5.628906 8.207031-5.628906 3.636719 0 6.898438 2.234375 8.210938 5.628906zm0 0" fill="#35495e"/><path d="m414.898438 132.414062-26.484376-8.828124-17.65625 26.484374-17.652343-26.484374-26.484375 8.828124 24.097656-67.355468c5.855469 4.078125 12.921875 6.042968 20.039062 5.5625 7.117188.480468 14.1875-1.484375 20.039063-5.5625zm0 0" fill="#fac176"/><path d="m370.757812 291.308594c-4.875 0-8.828124-3.949219-8.828124-8.824219v-132.414063c0-4.875 3.953124-8.828124 8.828124-8.828124s8.828126 3.953124 8.828126 8.828124v132.414063c0 4.875-3.953126 8.824219-8.828126 8.824219zm0 0" fill="#c03a2b"/><path d="m370.757812 406.070312c-4.875 0-8.828124-3.953124-8.828124-8.828124v-61.792969c0-4.875 3.953124-8.828125 8.828124-8.828125s8.828126 3.953125 8.828126 8.828125v61.792969c0 4.875-3.953126 8.828124-8.828126 8.828124zm0 0" fill="#c03a2b"/><path d="m132.414062 64.707031v76.535157c-.015624 4.867187-3.957031 8.8125-8.828124 8.828124h-52.964844c-4.871094-.015624-8.8125-3.960937-8.828125-8.828124v-76.535157l35.3125-27.894531zm0 0" fill="#f0c419"/><path d="m105.929688 123.585938v26.484374h-17.652344v-26.484374c0-4.875 3.949218-8.828126 8.828125-8.828126 4.875 0 8.824219 3.953126 8.824219 8.828126zm0 0" fill="#af8066"/><g fill="#2c3e50"><path d="m220.691406 256h-141.242187c-4.875 0-8.828125-3.953125-8.828125-8.828125s3.953125-8.828125 8.828125-8.828125h141.242187c4.875 0 8.824219 3.953125 8.824219 8.828125s-3.949219 8.828125-8.824219 8.828125zm0 0"/><path d="m220.691406 291.308594h-141.242187c-4.875 0-8.828125-3.949219-8.828125-8.824219s3.953125-8.828125 8.828125-8.828125h141.242187c4.875 0 8.824219 3.953125 8.824219 8.828125s-3.949219 8.824219-8.824219 8.824219zm0 0"/><path d="m220.691406 326.621094h-141.242187c-4.875 0-8.828125-3.953125-8.828125-8.828125s3.953125-8.828125 8.828125-8.828125h141.242187c4.875 0 8.824219 3.953125 8.824219 8.828125s-3.949219 8.828125-8.824219 8.828125zm0 0"/><path d="m220.691406 361.929688h-141.242187c-4.875 0-8.828125-3.949219-8.828125-8.824219 0-4.878907 3.953125-8.828125 8.828125-8.828125h141.242187c4.875 0 8.824219 3.949218 8.824219 8.828125 0 4.875-3.949219 8.824219-8.824219 8.824219zm0 0"/></g><path d="m150.058594 88.277344c-2.0625 0-4.0625-.722656-5.648438-2.042969l-47.304687-39.433594-47.3125 39.433594c-3.75 3.066406-9.273438 2.539063-12.378907-1.183594-3.101562-3.722656-2.625-9.25 1.070313-12.386719l52.964844-44.136718c3.277343-2.726563 8.03125-2.726563 11.308593 0l52.964844 44.136718c2.859375 2.378907 3.921875 6.296876 2.652344 9.792969-1.269531 3.5-4.59375 5.824219-8.316406 5.820313zm0 0" fill="#d25627"/><path d="m326.621094 397.242188h88.277344c9.75 0 17.652343 7.902343 17.652343 17.65625v17.652343c0 9.75-7.902343 17.65625-17.652343 17.65625h-88.277344c-9.75 0-17.65625-7.90625-17.65625-17.65625v-17.652343c0-9.753907 7.90625-17.65625 17.65625-17.65625zm0 0" fill="#bdc3c7"/><path d="m326.621094 450.207031h88.277344v26.484375c0 14.625-11.859376 26.480469-26.484376 26.480469h-35.308593c-14.628907 0-26.484375-11.855469-26.484375-26.480469zm0 0" fill="#fb7b76"/></svg>