<svg id="Flat" height="512" viewBox="0 0 512 512" width="512" xmlns="http://www.w3.org/2000/svg"><path d="m24 64h464v288h-464z" fill="#eb423f"/><path d="m256 64h232v288h-232z" fill="#d13330"/><path d="m456 48v272h-168a32 32 0 0 0 -32 32v-272a32 32 0 0 1 32-32z" fill="#e1e3e6"/><path d="m256 80v272a32 32 0 0 0 -32-32h-168v-272h168a32 32 0 0 1 32 32z" fill="#e9eef2"/><g fill="#7e8589"><path d="m168 96h-80a8 8 0 0 1 0-16h80a8 8 0 0 1 0 16z"/><path d="m224 96h-24a8 8 0 0 1 0-16h24a8 8 0 0 1 0 16z"/><path d="m224 160h-80a8 8 0 0 1 0-16h80a8 8 0 0 1 0 16z"/><path d="m112 160h-24a8 8 0 0 1 0-16h24a8 8 0 0 1 0 16z"/><path d="m224 128h-136a8 8 0 0 1 0-16h136a8 8 0 0 1 0 16z"/><path d="m168 224h-80a8 8 0 0 1 0-16h80a8 8 0 0 1 0 16z"/><path d="m224 224h-24a8 8 0 0 1 0-16h24a8 8 0 0 1 0 16z"/><path d="m224 192h-136a8 8 0 0 1 0-16h136a8 8 0 0 1 0 16z"/></g><path d="m424 96h-80a8 8 0 0 1 0-16h80a8 8 0 0 1 0 16z" fill="#757c80"/><path d="m312 96h-24a8 8 0 0 1 0-16h24a8 8 0 0 1 0 16z" fill="#757c80"/><path d="m368 160h-80a8 8 0 0 1 0-16h80a8 8 0 0 1 0 16z" fill="#757c80"/><path d="m424 160h-24a8 8 0 0 1 0-16h24a8 8 0 0 1 0 16z" fill="#757c80"/><path d="m424 128h-136a8 8 0 0 1 0-16h136a8 8 0 0 1 0 16z" fill="#757c80"/><path d="m424 224h-80a8 8 0 0 1 0-16h80a8 8 0 0 1 0 16z" fill="#757c80"/><path d="m312 224h-24a8 8 0 0 1 0-16h24a8 8 0 0 1 0 16z" fill="#757c80"/><path d="m424 192h-136a8 8 0 0 1 0-16h136a8 8 0 0 1 0 16z" fill="#757c80"/><path d="m288 400v48h-161l-23-48v-48h184z" fill="#f7cca9"/><path d="m216 416a8 8 0 0 1 -16 0c0-20.33-8.18-35.89-24.33-46.27a72.2 72.2 0 0 0 -23.67-9.6v-16.13a8.708 8.708 0 0 1 1.13.08 86.18 86.18 0 0 1 31.2 12.19c14.45 9.29 31.67 27.19 31.67 59.73z" fill="#e0b999"/><path d="m128 448h160v48h-160z" fill="#2d85cc"/><path d="m56 320h400v32h-400z" fill="#c3c6c7"/><path d="m256 320h200v32h-200z" fill="#b6b9ba"/><path d="m224 288h-80a8 8 0 0 1 0-16h80a8 8 0 0 1 0 16z" fill="#7e8589"/><path d="m112 288h-24a8 8 0 0 1 0-16h24a8 8 0 0 1 0 16z" fill="#7e8589"/><path d="m224 256h-136a8 8 0 0 1 0-16h136a8 8 0 0 1 0 16z" fill="#7e8589"/><path d="m368 288h-80a8 8 0 0 1 0-16h80a8 8 0 0 1 0 16z" fill="#757c80"/><path d="m424 288h-24a8 8 0 0 1 0-16h24a8 8 0 0 1 0 16z" fill="#757c80"/><path d="m424 256h-136a8 8 0 0 1 0-16h136a8 8 0 0 1 0 16z" fill="#757c80"/><path d="m112 240h8a32 32 0 0 1 32 32v88a0 0 0 0 1 0 0h-48a0 0 0 0 1 0 0v-112a8 8 0 0 1 8-8z" fill="#f7cca9"/></svg>