<svg xmlns="http://www.w3.org/2000/svg" xmlns:xlink="http://www.w3.org/1999/xlink" xmlns:fi="http://pattern.flaticon.com/" x="0" y="0" width="350" height="350" viewBox="0 0 350 350"><rect x="0px" y="0px" width="100%" height="100%" opacity="0" fill="#000000"/><defs><g transform="matrix(0.045370590726922774 0.14088761872513195 -0.14088761872513195 0.045370590726922774 73.68549746840387 67.59517354421996)" id="L1_6"><circle cx="256" cy="105" r="7" fill="#ffffff"/><circle cx="256" cy="159" r="7" fill="#ffffff"/><path d="m419.992 386.646c0-16.158-13.146-29.303-29.303-29.303-5.412 0-10.482 1.48-14.837 4.049l-19.89-90.758h20.153c4.143 0 7.5-3.358 7.5-7.5s-3.357-7.5-7.5-7.5h-23.44l-4.806-21.93c-.887-4.045-4.878-6.607-8.932-5.721-4.046.887-6.607 4.886-5.721 8.932l4.103 18.719h-25.993l-13.352-54.77-1.647-60.392 21.573 39.66c3.191 5.868 5.534 12.15 6.964 18.674l2.148 9.801c.769 3.505 3.872 5.896 7.319 5.896.531 0 1.072-.057 1.612-.175 4.047-.887 6.607-4.886 5.721-8.932l-2.148-9.801c-1.733-7.905-4.572-15.518-8.438-22.628l-35.652-65.543-.648-23.771c-.296-10.836-6.059-20.145-14.63-25.357v-38.646c0-10.835-8.816-19.65-19.65-19.65h-10.214c-10.835 0-19.649 8.815-19.649 19.65v38.644c-8.571 5.211-14.334 14.52-14.63 25.358l-.713 26.131-34.368 63.184c-3.866 7.11-6.705 14.723-8.438 22.628l-13.158 60.039h-23.44c-4.143 0-7.5 3.358-7.5 7.5s3.357 7.5 7.5 7.5h20.152l-19.89 90.758c-4.355-2.569-9.425-4.049-14.837-4.049-16.157 0-29.303 13.146-29.303 29.303 0 16.158 13.146 29.303 29.303 29.303.983 0 1.955-.051 2.913-.146l-1.935 8.825c-2.989 13.641-2.586 27.961 1.165 41.412l3.974 14.251c.826 2.964 3.38 5.122 6.439 5.444l10.673 1.123-3.459 16.061c-.872 4.049 1.704 8.039 5.753 8.911.532.114 1.063.169 1.587.169 3.457 0 6.566-2.405 7.324-5.922l21.302-90.194c.981-4.024-1.485-8.082-5.51-9.063-4.027-.982-8.083 1.486-9.062 5.51l-14.579 59.797-7.388-.778-2.605-9.341c-3.096-11.1-3.429-22.916-.962-34.171l4.054-18.493c.085-.387.129-.773.152-1.156 5.816-5.359 9.467-13.032 9.467-21.545 0-3.941-.787-7.701-2.204-11.136l9.027-41.192h23.933l-12.069 50.013c-.982 4.024 1.485 8.082 5.51 9.063.597.146 1.194.215 1.782.215 3.378 0 6.445-2.298 7.28-5.726l28.584-117.249h36.042v17.232c0 4.142 3.357 7.5 7.5 7.5s7.5-3.358 7.5-7.5v-17.232h36.043l56.711 235.445c.758 3.517 3.866 5.922 7.324 5.922.523 0 1.055-.055 1.587-.169 4.049-.872 6.625-4.862 5.753-8.911l-3.459-16.061 10.673-1.123c3.06-.322 5.613-2.48 6.44-5.445l3.974-14.25c3.752-13.453 4.154-27.773 1.164-41.413l-1.934-8.825c.959.095 1.93.146 2.914.146 16.156.002 29.301-13.144 29.301-29.301zm-29.303-14.303c7.887 0 14.303 6.417 14.303 14.303 0 7.887-6.416 14.303-14.303 14.303s-14.304-6.417-14.304-14.303c.001-7.887 6.418-14.303 14.304-14.303zm-145.054-352.693c0-2.564 2.086-4.65 4.649-4.65h10.214c2.564 0 4.65 2.086 4.65 4.65v34.217c-.334-.011-19.18-.01-19.514 0v-34.217zm-14.636 64.411c.232-8.534 7.103-15.218 15.639-15.218h17.507c8.537 0 15.407 6.685 15.64 15.218l3.039 111.48h-54.864zm-43.861 114.745c1.43-6.523 3.772-12.806 6.964-18.673l20.29-37.301-1.003 59.721c.027 2.043-13.028 53.08-13.028 53.08h-25.677zm-80.128 187.84c0-7.887 6.416-14.303 14.303-14.303s14.304 6.417 14.304 14.303c0 7.887-6.417 14.303-14.304 14.303s-14.303-6.416-14.303-14.303zm77.982-67.328h-24.265l10.669-48.684h25.345zm78.509-63.684v-20.325c0-4.142-3.357-7.5-7.5-7.5s-7.5 3.358-7.5 7.5v20.325h-32.386l10.993-45.094h57.786l10.993 45.094zm77.105 15 10.669 48.684h-24.424l-11.868-48.684zm34.451 157.206c2.468 11.255 2.136 23.071-.961 34.172l-2.604 9.34-7.388.778-33.597-137.812h24.055l9.027 41.192c-1.417 3.436-2.204 7.195-2.204 11.136 0 8.449 3.599 16.07 9.339 21.423z" fill="#ffffff"/></g><path d="m442.374 190.918 63.639-63.64-127.279-127.278-63.64 63.639 18.235 18.235-132.584 79.55-2.324-2.325c-17.544-17.544-46.094-17.546-63.64 0l-31.819 31.819 74.246 74.246-164.994 164.993-12.213 75.856 75.854-12.215 164.993-164.994 74.246 74.246 31.819-31.819c17.546-17.546 17.546-46.094 0-63.64l-2.325-2.325 79.55-132.583zm-63.64-148.492 84.853 84.853-21.213 21.214-84.854-84.854zm-317.231 423.296-25.284 4.072 4.071-25.285 158.131-158.132 21.214 21.214zm264.198-115.705-10.607 10.607-169.706-169.706 10.606-10.606c5.851-5.848 15.365-5.846 21.214 0l148.492 148.492c5.849 5.848 5.849 15.365.001 21.213zm-2.979-66.618-100.109-100.109 132.582-79.551 47.077 47.078z" transform="matrix(-0.03874599801575516 0.07065447697778388 -0.07065447697778388 -0.03874599801575516 144.67763698043248 37.926331597480186)" id="L1_7" fill="#ffffff"/><g transform="matrix(0.1502414345741272 0 0 0.1502414345741272 5.60778116198793 3.497090695039219)" id="L1_8"><path d="m507.786 64.62c-.304-.286-60.445-57.641-60.445-57.641-2.299-2.206-4.677-4.486-9.117-4.486h-242.12c-7.072 0-12.826 5.753-12.826 12.825v39.383l-85.335 14.628c-6.84 1.2-11.44 7.746-10.255 14.579l4.331 25.252c-27.737 9.334-56.214 18.956-83.705 28.831-6.496 2.375-9.905 9.598-7.587 16.133l54.685 152.016c1.1 3.059 3.983 4.964 7.058 4.964.842 0 1.7-.143 2.538-.445 3.898-1.402 5.921-5.698 4.519-9.596l-53.876-149.768c25.9-9.273 52.722-18.349 78.935-27.172l25.771 150.245 29.654 173.032c1.071 6.108 6.44 10.454 12.5 10.454.686 0 1.382-.056 2.08-.171l80.316-13.783 62.76-10.758-94.391 33.927-74.435 26.763-57.808-160.789c-1.401-3.898-5.696-5.921-9.595-4.52-3.898 1.401-5.921 5.697-4.52 9.595l58.628 163.074c1.875 5.128 6.733 8.316 11.868 8.316 1.419 0 2.86-.244 4.264-.757l76.671-27.566 174.094-62.574 33.259-5.701h73.471c7.072 0 12.826-5.766 12.826-12.854v-326.985c.001-4.489-2.435-6.779-4.213-8.451zm-19.871 1.776h-37.53l-.93.004c-1.797.012-6.004.043-7.071-1.017-.246-.245-.534-1.063-.534-2.582l-.087-40.415zm9.085 331.512h-298.722v-146.167c0-4.142-3.358-7.5-7.5-7.5s-7.5 3.358-7.5 7.5v148.313c0 7.087 5.754 12.854 12.826 12.854h140.812l-94.545 16.206-77.982 13.383-29.248-170.665-32.269-188.13 80.405-13.783v147.022c0 4.142 3.358 7.5 7.5 7.5s7.5-3.358 7.5-7.5v-199.449h228.475l.098 45.326c0 5.494 1.671 9.938 4.966 13.21 5.063 5.027 12.22 5.377 16.663 5.377.382 0 .744-.003 1.083-.005l47.438-.003z" fill="#ffffff"/><path d="m234.43 118.949c0 4.142 3.358 7.5 7.5 7.5h214.436c4.142 0 7.5-3.358 7.5-7.5s-3.358-7.5-7.5-7.5h-214.436c-4.142 0-7.5 3.358-7.5 7.5z" fill="#ffffff"/><path d="m456.366 164.731h-214.436c-4.142 0-7.5 3.358-7.5 7.5s3.358 7.5 7.5 7.5h214.436c4.142 0 7.5-3.358 7.5-7.5s-3.358-7.5-7.5-7.5z" fill="#ffffff"/><path d="m456.366 218.013h-214.436c-4.142 0-7.5 3.358-7.5 7.5s3.358 7.5 7.5 7.5h214.436c4.142 0 7.5-3.358 7.5-7.5s-3.358-7.5-7.5-7.5z" fill="#ffffff"/><path d="m456.366 271.295h-214.436c-4.142 0-7.5 3.358-7.5 7.5s3.358 7.5 7.5 7.5h214.436c4.142 0 7.5-3.358 7.5-7.5s-3.358-7.5-7.5-7.5z" fill="#ffffff"/><path d="m456.366 324.578h-214.436c-4.142 0-7.5 3.358-7.5 7.5s3.358 7.5 7.5 7.5h214.436c4.142 0 7.5-3.358 7.5-7.5s-3.358-7.5-7.5-7.5z" fill="#ffffff"/></g><g transform="matrix(0.8007058280099649 -0.8007058280099649 0.8007058280099649 0.8007058280099649 78.95188811172454 131.0548708888147)" id="L1_9"><path d="m56.834 72.253h-40.621a2.267 2.267 0 0 1 -2.264-2.264v-42.64a14.6 14.6 0 0 1 14.582-14.582h15.985a14.6 14.6 0 0 1 14.584 14.582v42.64a2.267 2.267 0 0 1 -2.266 2.264zm-28.3-57.486a12.6 12.6 0 0 0 -12.585 12.582v42.64a.264.264 0 0 0 .264.264h40.621a.264.264 0 0 0 .264-.264v-42.64a12.6 12.6 0 0 0 -12.582-12.582z" fill="#ffffff"/><path d="m64.653 70.9h-7.553v-22.366h3.73a5.859 5.859 0 0 1 5.853 5.853v14.479a2.031 2.031 0 0 1 -2.03 2.034zm-5.556-2h5.556l.029-14.508a3.857 3.857 0 0 0 -3.853-3.853h-1.729z" fill="#ffffff"/><path d="m15.949 70.9h-7.555a2.031 2.031 0 0 1 -2.029-2.029v-14.484a5.859 5.859 0 0 1 5.853-5.853h3.732zm-3.732-20.366a3.857 3.857 0 0 0 -3.853 3.853v14.479l5.585.025v-18.357z" fill="#ffffff"/><path d="m52.158 72.253h-31.32v-17.662a2.734 2.734 0 0 1 2.73-2.731h25.86a2.734 2.734 0 0 1 2.73 2.731zm-29.32-2h27.32v-15.662a.732.732 0 0 0 -.73-.731h-25.86a.732.732 0 0 0 -.73.731z" fill="#ffffff"/><path d="m45.729 59.222h-18.461a1 1 0 0 1 0-2h18.461a1 1 0 1 1 0 2z" fill="#ffffff"/><path d="m42.81 61.869a1 1 0 0 1 -1-1v-2.647a1 1 0 0 1 2 0v2.647a1 1 0 0 1 -1 1z" fill="#ffffff"/><path d="m47.038 39.064h-5.925a1 1 0 0 1 0-2h5.925a7.526 7.526 0 0 0 5.91-2.843l4.368-5.468a1 1 0 0 1 1.563 1.247l-4.368 5.468a9.514 9.514 0 0 1 -7.473 3.596z" fill="#ffffff"/><path d="m31.934 39.064h-5.925a9.514 9.514 0 0 1 -7.473-3.595l-4.368-5.469a1 1 0 0 1 1.563-1.248l4.369 5.469a7.526 7.526 0 0 0 5.91 2.843h5.925a1 1 0 0 1 0 2z" fill="#ffffff"/><path d="m39.9 42.8h-6.749a1.974 1.974 0 0 1 -1.972-1.971v-5.764a1.974 1.974 0 0 1 1.972-1.971h6.749a1.974 1.974 0 0 1 1.972 1.971v5.761a1.974 1.974 0 0 1 -1.972 1.974zm-6.716-7.7v5.732l6.716-.032-.028-5.732z" fill="#ffffff"/><path d="m42.79 14.767h-12.533a1 1 0 0 1 -1-1v-4.252a2.044 2.044 0 0 1 2.043-2.042h10.448a2.044 2.044 0 0 1 2.042 2.042v4.252a1 1 0 0 1 -1 1zm-11.533-2h10.533v-3.252l-10.49-.042-.042.042z" fill="#ffffff"/><path d="m54.873 19.55a1 1 0 0 1 -.967-1.26l3.052-11.37a1.172 1.172 0 0 0 -.838-1.436l-4.45-1.193a1.172 1.172 0 0 0 -1.437.837l-2.433 9.087a1 1 0 1 1 -1.93-.515l2.43-9.091a3.187 3.187 0 0 1 3.88-2.251l4.458 1.2a3.2 3.2 0 0 1 2.251 3.879l-3.051 11.372a1 1 0 0 1 -.965.741z" fill="#ffffff"/><path d="m18.174 19.55a1 1 0 0 1 -.965-.741l-3.052-11.37a3.2 3.2 0 0 1 2.243-3.885l4.456-1.195a3.193 3.193 0 0 1 3.884 2.247l2.437 9.094a1 1 0 1 1 -1.932.517l-2.432-9.092a1.17 1.17 0 0 0 -1.44-.833l-4.449 1.193a1.172 1.172 0 0 0 -.833 1.442l3.05 11.363a1 1 0 0 1 -.707 1.225 1.011 1.011 0 0 1 -.26.035z" fill="#ffffff"/></g><path d="m499.839 60.329-48.159-48.158c-7.848-7.848-18.283-12.171-29.382-12.171s-21.534 4.323-29.383 12.171l-209.757 209.758c-2.929 2.929-2.929 7.677 0 10.606s7.677 2.929 10.606 0l148.272-148.271 21.499 21.499-290.65 290.65c-2.506-.82-5.205-1.048-7.872-.604l-13.459 2.241c-.652.112-1.103-.177-1.365-.438-.264-.264-.556-.719-.446-1.383l3.935-23.608 115.336-115.336c2.929-2.929 2.929-7.677 0-10.606s-7.677-2.929-10.606 0l-117.035 117.035c-.845.845-1.467 1.876-1.83 3.003-.001 0-.002 0-.004 0l-25.688 79.876-10.437 20.42c-6.12 11.974-3.843 26.408 5.665 35.917 5.952 5.952 13.831 9.07 21.831 9.07 4.781 0 9.607-1.115 14.086-3.404l20.419-10.437 79.876-25.688c0-.001 0-.003.001-.004 1.127-.363 2.158-.986 3.003-1.83l182.314-182.314c2.929-2.929 2.929-7.677 0-10.606s-7.677-2.929-10.606 0l-180.614 180.614-23.602 3.934c-.668.112-1.124-.181-1.389-.446-.26-.261-.548-.709-.437-1.373l2.24-13.452c.443-2.666.215-5.366-.604-7.871l290.649-290.649 21.499 21.499-83.014 83.014c-2.929 2.929-2.929 7.677 0 10.606 1.464 1.464 3.384 2.197 5.303 2.197s3.839-.732 5.303-2.197l144.5-144.499c16.204-16.201 16.204-42.563.002-58.765zm-445.811 352.515 13.448-2.239c.66-.106 1.114.182 1.39.458.258.256.541.701.432 1.362l-2.239 13.442c-.883 5.274.846 10.679 4.626 14.459s9.184 5.509 14.452 4.627l13.448-2.239c.662-.111 1.107.174 1.377.445.263.263.554.716.445 1.374l-2.238 13.44c-.748 4.46.382 9.013 3.037 12.599l-37.598 12.092-35.26-35.26 12.092-37.598c3.584 2.656 8.136 3.789 12.588 3.038zm-15.857 82.396c-6.163 3.148-13.591 1.978-18.485-2.916-4.894-4.893-6.066-12.321-2.916-18.484l6.02-11.779 27.159 27.159zm66.821-66.722c-2.503-.817-5.201-1.043-7.87-.6l-13.457 2.241c-.66.111-1.113-.177-1.375-.438-.261-.262-.549-.712-.437-1.382l2.24-13.452c.443-2.668.217-5.367-.599-7.869l290.648-290.648 21.5 21.5zm247.649-354.861 15.076-15.076 85.712 85.712-15.076 15.076zm136.592 34.831-25.197 25.198-85.712-85.712 25.198-25.197c10.353-10.354 27.2-10.353 37.553 0l48.159 48.159c10.352 10.353 10.352 27.199-.001 37.552z" transform="matrix(0.12497217138267769 -0.038297922568795176 0.038297922568795176 0.12497217138267769 35.234903077756876 170.79574606477013)" id="L1_10" fill="#ffffff"/><g transform="matrix(0.09842390213711104 0.09842390213711104 -0.09842390213711104 0.09842390213711104 235.65347459732635 53.4245968593781)" id="L1_11"><path d="m433.687 482.098-2.437-74.533c-.259-7.894-2.272-15.667-5.824-22.48-22.195-42.576-33.927-90.613-33.927-138.919 0-42.169 8.554-82.962 25.424-121.246 3.097-7.028 4.599-14.915 4.341-22.809l-2.423-74.104c-.514-15.704-13.226-28.007-28.94-28.007h-267.803c-15.661 0-28.339 12.218-28.934 27.848l-1.413 19.38c-.301 4.131 2.804 7.724 6.935 8.025 4.136.298 7.725-2.804 8.025-6.935l1.423-19.519c.007-.1.013-.2.016-.3.248-7.569 6.374-13.499 13.948-13.499h46.401v371.001c0 29.599 14.81 56.972 39.619 73.224.001.001.002.002.003.003 14.255 9.338 30.811 14.273 47.878 14.273 48.248 0 87.5-39.253 87.5-87.5v-20.834c0-4.142-3.357-7.5-7.5-7.5s-7.5 3.358-7.5 7.5v20.834c0 39.977-32.523 72.5-72.5 72.5-12.806 0-25.262-3.353-36.268-9.73v-433.771h108.769v176.191c-9.469-9.625-22.63-15.607-37.166-15.607-28.765 0-52.167 23.402-52.167 52.167s23.402 52.167 52.167 52.167c14.536 0 27.697-5.982 37.166-15.607v70.856c0 4.142 3.357 7.5 7.5 7.5s7.5-3.358 7.5-7.5v-320.167h46.401c7.573 0 13.7 5.93 13.948 13.5l2.423 74.102c.185 5.66-.879 11.286-3.075 16.27-1.47 3.336-2.857 6.697-4.207 10.068l-9.97-3.629c-3.897-1.418-8.197.59-9.613 4.482-1.417 3.892.591 8.196 4.482 9.613l9.85 3.585c-4.502 13.01-8.125 26.258-10.868 39.707l-10.104-1.782c-4.082-.721-7.969 2.005-8.688 6.083-.72 4.079 2.004 7.969 6.083 8.689l10.054 1.773c-2.085 13.507-3.293 27.198-3.618 41.038h-10.18c-4.143 0-7.5 3.358-7.5 7.5s3.357 7.5 7.5 7.5h10.178c.322 13.754 1.544 27.468 3.645 41.034l-10.077 1.777c-4.079.719-6.803 4.609-6.083 8.688.642 3.639 3.806 6.199 7.377 6.199.433 0 .871-.038 1.311-.115l10.118-1.784c2.741 13.468 6.347 26.748 10.802 39.729l-9.798 3.566c-3.892 1.417-5.9 5.72-4.482 9.613 1.108 3.046 3.984 4.937 7.049 4.937.85 0 1.718-.146 2.564-.454l9.876-3.594c3.918 9.86 8.328 19.52 13.23 28.925 2.519 4.831 3.947 10.376 4.133 16.037l2.436 74.533c.125 3.812-1.268 7.42-3.92 10.161s-6.214 4.25-10.028 4.25h-297.497c-3.814 0-7.375-1.509-10.027-4.25s-4.045-6.349-3.92-10.161l2.437-74.533c.185-5.659 1.613-11.205 4.132-16.036 4.902-9.404 9.312-19.064 13.23-28.925l9.877 3.595c.847.308 1.713.454 2.564.454 3.064 0 5.94-1.891 7.049-4.937 1.417-3.892-.591-8.196-4.483-9.613l-9.798-3.566c4.454-12.98 8.06-26.26 10.801-39.728l10.118 1.784c.441.078.879.115 1.312.115 3.571 0 6.735-2.56 7.377-6.199.72-4.079-2.004-7.969-6.083-8.689l-10.077-1.777c2.101-13.566 3.323-27.28 3.645-41.034h10.178c4.143 0 7.5-3.358 7.5-7.5s-3.357-7.5-7.5-7.5h-10.18c-.326-13.84-1.533-27.532-3.618-41.038l10.054-1.773c4.079-.719 6.803-4.609 6.083-8.689-.719-4.08-4.611-6.803-8.688-6.083l-10.104 1.782c-2.743-13.449-6.365-26.698-10.868-39.707l9.85-3.585c3.892-1.417 5.9-5.72 4.483-9.613-1.417-3.891-5.719-5.9-9.613-4.483l-9.97 3.629c-1.349-3.371-2.737-6.732-4.207-10.068-2.197-4.986-3.261-10.612-3.077-16.209l1-24.584c.168-4.139-3.051-7.63-7.189-7.799-4.158-.168-7.631 3.051-7.799 7.189l-1.002 24.643c-.259 7.891 1.242 15.778 4.341 22.809 16.869 38.283 25.423 79.075 25.423 121.246 0 48.305-11.731 96.342-33.927 138.919-3.552 6.814-5.565 14.588-5.823 22.481l-2.436 74.532c-.259 7.91 2.63 15.397 8.133 21.083 5.5 5.685 12.888 8.817 20.802 8.817h297.494c7.914 0 15.304-3.132 20.808-8.819 5.503-5.686 8.392-13.173 8.133-21.083zm-142.354-217.181c-20.494 0-37.167-16.673-37.167-37.167s16.673-37.167 37.167-37.167c20.493 0 37.166 16.673 37.166 37.167.001 20.494-16.672 37.167-37.166 37.167zm-86.602 172.339c-13.488-13.462-21.232-31.778-21.232-51.255v-371.001h21.232z" fill="#ffffff"/><path d="m307.951 211.133c-2.929-2.928-7.677-2.929-10.607 0l-6.01 6.01-6.01-6.01c-2.93-2.929-7.678-2.929-10.608 0-2.929 2.929-2.929 7.678 0 10.607l6.01 6.01-6.01 6.01c-2.929 2.929-2.929 7.678 0 10.607 1.465 1.465 3.384 2.197 5.304 2.197 1.919 0 3.839-.732 5.304-2.197l6.01-6.01 6.01 6.01c1.465 1.464 3.385 2.197 5.304 2.197s3.839-.732 5.304-2.197c2.929-2.929 2.929-7.678 0-10.607l-6.01-6.01 6.01-6.01c2.927-2.929 2.927-7.678-.001-10.607z" fill="#ffffff"/></g><g transform="matrix(0.1357482013233919 -0.09911773199296302 0.09911773199296302 0.1357482013233919 233.72606105890154 203.15627192407698)" id="L1_14"><path d="m166.911 248.208c22.143 0 40.157-18.015 40.157-40.158s-18.015-40.158-40.157-40.158c-22.144 0-40.158 18.015-40.158 40.158s18.014 40.158 40.158 40.158zm0-65.316c13.872 0 25.157 11.286 25.157 25.158s-11.285 25.158-25.157 25.158-25.158-11.286-25.158-25.158 11.286-25.158 25.158-25.158z" fill="#ffffff"/><path d="m255.327 206.177c21.604 0 39.182-17.577 39.182-39.182s-17.577-39.182-39.182-39.182-39.183 17.577-39.183 39.182 17.578 39.182 39.183 39.182zm0-63.364c13.334 0 24.182 10.848 24.182 24.182s-10.848 24.182-24.182 24.182-24.183-10.848-24.183-24.182 10.849-24.182 24.183-24.182z" fill="#ffffff"/><path d="m183.032 438.48c21.604 0 39.182-17.577 39.182-39.182s-17.577-39.182-39.182-39.182-39.183 17.577-39.183 39.182 17.578 39.182 39.183 39.182zm0-63.363c13.334 0 24.182 10.848 24.182 24.182s-10.848 24.182-24.182 24.182-24.183-10.848-24.183-24.182 10.849-24.182 24.183-24.182z" fill="#ffffff"/><path d="m275.301 468.088c21.604 0 39.182-17.577 39.182-39.182s-17.577-39.182-39.182-39.182-39.183 17.577-39.183 39.182 17.577 39.182 39.183 39.182zm0-63.364c13.334 0 24.182 10.848 24.182 24.182s-10.848 24.182-24.182 24.182-24.183-10.848-24.183-24.182 10.849-24.182 24.183-24.182z" fill="#ffffff"/><path d="m84.953 306.925c0 25.213 20.512 45.725 45.725 45.725s45.725-20.512 45.725-45.725-20.512-45.725-45.725-45.725-45.725 20.512-45.725 45.725zm45.725-30.725c16.941 0 30.725 13.783 30.725 30.725s-13.783 30.725-30.725 30.725-30.725-13.783-30.725-30.725 13.783-30.725 30.725-30.725z" fill="#ffffff"/><path d="m46.142 299.061c0 113.139 97.467 199.138 211.203 206.066.155.009.31.014.463.014 3.934 0 7.237-3.065 7.479-7.044.252-4.134-2.896-7.69-7.03-7.942-110.532-6.733-197.115-90.671-197.115-191.094 0-113.779 108.333-201.572 232.132-190.358 5.632 5.869 12.562 10.573 19.814 14.016-.595 2.741-.491 5.665.229 8.308l14.844 54.597c-3.456 4.039-4.657 9.538-3.278 14.601l3.533 12.998c2.149 7.917 10.06 12.981 18.146 11.579l7.006 30.339c-25.334 11.541-39.187 26.996-39.187 43.921 0 16.985 14.158 32.697 39.866 44.239 9.142 4.104 17.053 9.729 23.542 16.732 8.25 36.216 10.787 47.707 16.834 65.913-5.598 24.418-22.336 43.136-46.187 51.535-18.198 6.408-37.138 10.513-56.293 12.201-4.126.364-7.177 4.003-6.813 8.129.363 4.127 4.016 7.172 8.129 6.813 20.404-1.798 40.578-6.17 59.959-12.995 22.063-7.769 39.483-23.509 49.307-43.805 10.03 24.608 19.172 39.815 27.671 54.636 4.296 7.495 13.12 11.147 21.459 8.88 8.337-2.267 14.097-9.883 14.009-18.523-.258-25.124.404-62.891-17.248-119.162-1.24-3.952-5.447-6.151-9.401-4.911-3.952 1.24-6.15 5.449-4.911 9.401 16.57 52.816 16.284 87.857 16.561 114.826.02 1.816-1.191 3.417-2.944 3.894-1.75.477-3.608-.291-4.512-1.867-31.556-55.031-35.532-71.354-51.44-140.232 0 0-30.904-133.833-30.904-133.834l22.039-5.992 11.17 35.604v.001l29.55 94.192c1.24 3.952 5.446 6.151 9.401 4.911 3.952-1.24 6.151-5.449 4.911-9.401l-27.351-87.183c41.323-16.743 52.882-72.241 17.505-103.134-14.497-12.659-30.748-23.457-48.312-32.184l-1.227-4.512c-.749-2.758-2.134-5.231-4.019-7.272 7.571-11.179 15.125-28.469 9.624-48.703-5.281-19.421-18.264-26.914-32.008-34.846-8.336-4.811-16.956-9.786-25.272-18.063-8.081-8.039-21.429-4.428-24.33 6.614-2.98 11.349-7.896 20.004-12.648 28.374-7.923 13.953-17.572 30.191-7.352 53.648-127.314-5.481-236.604 86.862-236.604 206.075zm326.105 36.976c-3.739-2.397-7.688-4.549-11.856-6.42-19.708-8.849-31.011-19.986-31.011-30.556 0-10.062 9.958-20.399 27.638-28.975zm46.175-174.807c26.551 23.185 17.988 64.539-12.139 77.489-7.747-24.692-5.646-17.997-8.717-27.786 7.845-3.003 11.893-11.41 9.784-19.172l-3.533-12.998c-1.385-5.089-5.228-9.21-10.221-10.931l-8.212-30.203c11.824 6.837 22.889 14.738 33.038 23.601zm-30.315 20.761.003-.001c.482-.13 1.076.134 1.231.708l3.533 12.997c.146.536-.172 1.09-.707 1.235-10.036 2.729-38.893 10.574-48.043 13.062-.524.146-1.086-.162-1.235-.707l-3.533-12.998c-.155-.573.238-1.108.707-1.235zm-9.715-12.903-36.485 9.919-14.115-51.917c-.365-1.335.472-2.726 1.762-3.078l31.646-8.604c1.229-.337 2.689.334 3.077 1.762 4.642 17.075 1.386 5.099 14.115 51.918zm-75.25-122.341c4.882-8.596 10.4-18.315 13.913-31.21 9.524 9.325 19.222 14.921 27.796 19.87 12.408 7.161 21.373 12.334 25.031 25.79 4.471 16.442-3.226 30.778-9.602 39.195-.966.087-2.097.293-3.017.543l-31.646 8.604c-.965.262-2.071.679-2.873 1.058-13.267-5.445-24.335-14.98-28.129-28.936-3.658-13.456 1.453-22.457 8.527-34.914z" fill="#ffffff"/></g><path d="M423.2,102.807a194.489,194.489,0,0,1-3.03,220.57l13.058,9.246A210.489,210.489,0,0,0,436.5,93.917a215.9,215.9,0,0,0-91.7-77.223,8,8,0,0,0-9.738,2.611L316.014,45.583a8,8,0,0,0,3.48,12.112c3.41,1.378,6.754,2.876,10.047,4.46l-6.6,9.359c-2.573-1.26-5.174-2.473-7.829-3.594a151.86,151.86,0,0,0-190.758,64.085l13.863,7.989A136.12,136.12,0,0,1,152,120.349V184a8,8,0,0,0,8,8h32a8,8,0,0,0,8-8V168h19.056l16,32H208a8,8,0,0,0-8,8v24H156l-34.26-45.677a136.5,136.5,0,0,1,8.965-31.213l-14.74-6.221a151.937,151.937,0,0,0,33.921,167.858l-10.113,14.329q-5.61-5.221-10.772-10.971a8,8,0,0,0-12.442.635L97.522,347a8,8,0,0,0,.707,10.236A217.166,217.166,0,0,0,232,422.753V440H184a48.054,48.054,0,0,0-48,48,8,8,0,0,0,8,8H368a8,8,0,0,0,8-8,48.054,48.054,0,0,0-48-48H280V422.644a216.8,216.8,0,0,0,142.58-76.21l-12.264-10.278a202.4,202.4,0,0,1-295.85,14.734l9.381-12.941a185.911,185.911,0,0,0,131.689,54.494c101.675,0,184.393-81.447,184.393-181.56a178.619,178.619,0,0,0-32.068-102.337,183.584,183.584,0,0,0-73.056-61.624l9.341-12.886A199.77,199.77,0,0,1,423.2,102.807ZM328,456a32.054,32.054,0,0,1,30.987,24H153.013A32.054,32.054,0,0,1,184,456Zm-80-32.141c2.506.084,5.016.141,7.536.141,2.831,0,5.65-.073,8.464-.181V440H248Zm0-351.683a136.139,136.139,0,0,1,56,8.543V96H288a8,8,0,0,0-6.656,3.562L267.719,120H248ZM216,248h24v56H229.416L216,270.459ZM165.189,350.56q-6.777-4.238-13.155-9.107L162,327.335a152.646,152.646,0,0,0,13.087,9.205ZM369.4,88.914a167.561,167.561,0,0,1,25.321,28.758,162.693,162.693,0,0,1,29.21,93.211c0,91.29-75.541,165.56-168.393,165.56a170.634,170.634,0,0,1-76.319-18.011l9.92-14.057A151.97,151.97,0,0,0,362.181,99.146ZM304,264H288V235.313L299.313,224h23.743l13.789,27.578A8,8,0,0,0,344,256h8l-14.4,19.2A8,8,0,0,0,336,280v24H312V272A8,8,0,0,0,304,264Zm88.051-56H372.944l-13.789-27.578A8,8,0,0,0,352,176H304V156.529L338.216,136h33.232A137.166,137.166,0,0,1,384.1,162.209,135.466,135.466,0,0,1,392.051,208ZM343.708,69.829c4.575,2.765,9.019,5.723,13.295,8.9l-6.923,9.817A151.685,151.685,0,0,0,337,79.34ZM359.781,120H336a8,8,0,0,0-4.116,1.14l-40,24A8,8,0,0,0,288,152v32a8,8,0,0,0,8,8h51.056l13.789,27.578A8,8,0,0,0,368,224h23.084A135.761,135.761,0,0,1,352,304.388V282.667L374.4,252.8A8,8,0,0,0,368,240H348.944l-13.789-27.578A8,8,0,0,0,328,208H296a8,8,0,0,0-5.657,2.343l-16,16A8,8,0,0,0,272,232v40a8,8,0,0,0,8,8h16v32a8,8,0,0,0,8,8h29.174a136.463,136.463,0,0,1-31.4,16.037c-70.621,25.222-148.6-11.709-173.826-82.327a135.176,135.176,0,0,1-7.95-43.05L145.6,244.8A8,8,0,0,0,152,248h48v24a8,8,0,0,0,.572,2.971l16,40A8,8,0,0,0,224,320h24a8,8,0,0,0,8-8V240a8,8,0,0,0-8-8H216V216h32a8,8,0,0,0,7.155-11.578l-24-48A8,8,0,0,0,224,152H192a8,8,0,0,0-8,8v16H168V104.239a134.985,134.985,0,0,1,42.271-24.355A137.279,137.279,0,0,1,232,74.086V128a8,8,0,0,0,8,8h32a8,8,0,0,0,6.656-3.562L292.281,112H312a8,8,0,0,0,8-8V87.973A135.323,135.323,0,0,1,359.781,120ZM185.917,55.269a168.337,168.337,0,0,0-15.869,8.352l-8.2-13.74a184.326,184.326,0,0,1,17.386-9.15ZM88,208a168.345,168.345,0,0,0,6.323,45.823l-15.4,4.354A184.278,184.278,0,0,1,149.188,58.16l9.3,13.021A168.48,168.48,0,0,0,88,208Z" transform="matrix(0.16485631796248057 -0.05416707351976063 0.05416707351976063 0.16485631796248057 111.08113480905706 202.09296146716625)" id="L1_15" fill="#ffffff"/><g transform="matrix(2.808030795976419 0.7963072591879392 -0.7963072591879392 2.808030795976419 286.85931755853824 87.74794333802771)" id="L1_16"><path d="m15 24c-4.963 0-9-4.038-9-9s4.037-9 9-9 9 4.038 9 9-4.037 9-9 9zm0-17c-4.411 0-8 3.589-8 8s3.589 8 8 8 8-3.589 8-8-3.589-8-8-8z" fill="#ffffff"/><path d="m15 19c-2.206 0-4-1.794-4-4s1.794-4 4-4 4 1.794 4 4-1.794 4-4 4zm0-7c-1.654 0-3 1.346-3 3s1.346 3 3 3 3-1.346 3-3-1.346-3-3-3z" fill="#ffffff"/><path d="m18.5 7h-7c-1.93 0-3.5-1.57-3.5-3.5v-2c0-.827.673-1.5 1.5-1.5h11c.827 0 1.5.673 1.5 1.5v2c0 1.93-1.57 3.5-3.5 3.5zm-9-6c-.275 0-.5.224-.5.5v2c0 1.378 1.121 2.5 2.5 2.5h7c1.379 0 2.5-1.122 2.5-2.5v-2c0-.276-.225-.5-.5-.5z" fill="#ffffff"/><path d="m21.5 4h-13c-.276 0-.5-.224-.5-.5s.224-.5.5-.5h13c.276 0 .5.224.5.5s-.224.5-.5.5z" fill="#ffffff"/><path d="m2 17h-1.5c-.276 0-.5-.224-.5-.5v-3c0-.276.224-.5.5-.5h1.5c1.103 0 2 .897 2 2s-.897 2-2 2zm-1-1h1c.552 0 1-.449 1-1s-.448-1-1-1h-1z" fill="#ffffff"/><path d="m.5 14c-.045 0-.092-.006-.138-.019-.266-.076-.419-.353-.343-.618 1.366-4.785 4.145-8.254 8.257-10.31.247-.123.547-.024.671.223.123.247.024.548-.223.671-3.852 1.925-6.456 5.186-7.743 9.69-.063.22-.263.363-.481.363z" fill="#ffffff"/></g><path d="m507.105469 95.203125-161.90625-61.726563c-3.925781-1.496093-8.320313.472657-9.816407 4.394532-1.496093 3.925781.472657 8.320312 4.398438 9.816406l143.269531 54.621094-99.179687 37.816406-124.734375-56.476562c-3.828125-1.734376-8.332031-.035157-10.0625 3.789062-1.734375 3.828125-.035157 8.332031 3.789062 10.066406l110.988281 50.253906-107.851562 41.117188-227.050781-86.566406 227.050781-86.566406 55.953125 21.335937c3.917969 1.492187 8.316406-.472656 9.816406-4.398437 1.496094-3.921876-.472656-8.316407-4.398437-9.8125l-58.660156-22.367188c-1.746094-.664062-3.675782-.667969-5.421876 0l-248.394531 94.703125c-2.945312 1.125-4.894531 3.953125-4.894531 7.105469v34.726562c0 3.152344 1.949219 5.980469 4.894531 7.105469l77.566407 29.570313v26.351562c0 4.199219 3.402343 7.605469 7.601562 7.605469 4.203125 0 7.605469-3.40625 7.605469-7.605469v-20.550781l155.621093 59.332031c.875.332031 1.792969.5 2.710938.5s1.835938-.167969 2.710938-.5l117.304687-44.722656v120.34375c-36.828125 19.332031-78.125 29.691406-120.015625 29.691406-57.171875 0-113.25-19.273438-158.332031-54.347656v-59.328125c0-4.199219-3.402344-7.605469-7.605469-7.605469-4.199219 0-7.601562 3.40625-7.601562 7.605469v63.011719c0 2.308593 1.046874 4.492187 2.847656 5.933593 48.246094 38.652344 108.867187 59.9375 170.691406 59.9375 41.695312 0 82.835938-9.695312 120.015625-27.855469v30.777344c-12.253906 3.347656-21.289063 14.570313-21.289063 27.871094 0 15.929688 12.960938 28.894531 28.890626 28.894531 15.933593 0 28.894531-12.964843 28.894531-28.894531 0-13.300781-9.035157-24.523438-21.289063-27.871094v-38.808594c12.394532-7.050781 24.269532-15.074218 35.472656-24.050781 1.800782-1.441406 2.851563-3.625 2.851563-5.933593v-119.785157l77.558594-29.570312c2.945312-1.121094 4.894531-3.949219 4.894531-7.105469v-34.722656c0-3.152344-1.949219-5.980469-4.894531-7.105469zm-109.800781 294.953125c0 7.542969-6.140626 13.683594-13.6875 13.683594-7.542969 0-13.683594-6.140625-13.683594-13.683594 0-7.546875 6.140625-13.6875 13.683594-13.6875 7.546874 0 13.6875 6.140625 13.6875 13.6875zm-382.097657-276.808594 233.1875 88.90625v18.445313l-233.1875-88.90625zm248.398438 107.351563v-18.445313l112.410156-42.859375v18.449219zm150.730469 69.105469c-7.417969 5.773437-15.140626 11.109374-23.113282 16.007812v-117.492188l23.113282-8.8125zm-23.113282-117.761719v-18.445313l105.570313-40.25v18.445313zm0 0" transform="matrix(0.1497356629479022 0.018334979765296362 -0.018334979765296362 0.1497356629479022 148.06464774922574 9.90251818955057)" id="L1_17" fill="#ffffff"/><g transform="matrix(9.303799770016239e-18 -0.15194258093833923 0.15194258093833923 9.303799770016239e-18 239.10258293151855 86.89718437194824)" id="L1_18"><path d="M509.502,104.908L407.097,2.502c-3.337-3.337-8.73-3.337-12.067,0L2.502,395.03c-3.337,3.337-3.337,8.73,0,12.067    l102.405,102.405c1.596,1.604,3.772,2.5,6.033,2.5c2.261,0,4.429-0.896,6.033-2.5l392.527-392.527    c1.604-1.596,2.5-3.772,2.5-6.033C512.002,108.68,511.106,106.512,509.502,104.908z M110.941,491.402l-90.338-90.338    L401.063,20.603l90.338,90.338L110.941,491.402z" fill="#ffffff"/><path d="M409.631,76.797c-14.115,0-25.601,11.486-25.601,25.601c0,14.115,11.486,25.601,25.601,25.601    c14.115,0,25.601-11.486,25.601-25.601C435.232,88.284,423.746,76.797,409.631,76.797z M409.631,110.932    c-4.711,0-8.534-3.832-8.534-8.534c0-4.702,3.823-8.534,8.534-8.534s8.534,3.832,8.534,8.534    C418.165,107.101,414.342,110.932,409.631,110.932z" fill="#ffffff"/><rect x="328px" y="80px" width="17px" height="36px" transform="matrix(0.7071 -0.7071 0.7071 0.7071 29.3397 267.1033)" fill="#ffffff"/><rect x="307px" y="103px" width="17px" height="48px" transform="matrix(0.7071 -0.7071 0.7071 0.7071 1.9673 260.7621)" fill="#ffffff"/><rect x="277px" y="131px" width="17px" height="36px" transform="matrix(0.7071 -0.7071 0.7071 0.7071 -21.8578 245.8932)" fill="#ffffff"/><rect x="256px" y="155px" width="17px" height="48px" transform="matrix(0.7071 -0.7071 0.7071 0.7071 -49.2241 239.5496)" fill="#ffffff"/><rect x="226px" y="182px" width="17px" height="36px" transform="matrix(0.7071 -0.7071 0.7071 0.7071 -73.0557 224.6825)" fill="#ffffff"/><rect x="204px" y="206px" width="17px" height="48px" transform="matrix(0.7071 -0.7071 0.7071 0.7071 -100.4218 218.3388)" fill="#ffffff"/><rect x="174px" y="233px" width="17px" height="36px" transform="matrix(0.707 -0.7072 0.7072 0.707 -124.2531 203.5083)" fill="#ffffff"/><rect x="153px" y="257px" width="17px" height="48px" transform="matrix(0.7071 -0.7071 0.7071 0.7071 -151.6316 197.133)" fill="#ffffff"/><rect x="123px" y="284px" width="17px" height="36px" transform="matrix(0.7071 -0.7071 0.7071 0.7071 -175.463 182.2643)" fill="#ffffff"/><rect x="102px" y="308px" width="17px" height="48px" transform="matrix(0.7071 -0.7071 0.7071 0.7071 -202.835 175.9239)" fill="#ffffff"/><rect x="72px" y="336px" width="17px" height="36px" transform="matrix(0.7071 -0.7071 0.7071 0.7071 -226.6681 161.0716)" fill="#ffffff"/><rect x="51px" y="359px" width="17px" height="48px" transform="matrix(0.7071 -0.7071 0.7071 0.7071 -254.0397 154.7172)" fill="#ffffff"/></g><g transform="matrix(1.030618019793276 0.23783492227480071 -0.23783492227480071 1.030618019793276 95.80011372585378 215.44982164147945)" id="L1_19"><path d="m71 72h-68a1 1 0 0 1 -1-1v-68a1 1 0 0 1 1.707-.707l68 68a1 1 0 0 1 -.707 1.707zm-67-2h64.586l-64.586-64.586z" fill="#ffffff"/><path d="m44.443 61h-30.443a1 1 0 0 1 -1-1v-30.444a1 1 0 0 1 1.707-.707l30.443 30.444a1 1 0 0 1 -.707 1.707zm-29.443-2h27.029l-27.029-27.03z" fill="#ffffff"/><path d="m54.531 72a1 1 0 0 1 -1-1v-2.9a1 1 0 0 1 2 0v2.9a1 1 0 0 1 -1 1z" fill="#ffffff"/><path d="m47.531 72a1 1 0 0 1 -1-1v-4a1 1 0 0 1 2 0v4a1 1 0 0 1 -1 1z" fill="#ffffff"/><path d="m40.531 72a1 1 0 0 1 -1-1v-2.9a1 1 0 0 1 2 0v2.9a1 1 0 0 1 -1 1z" fill="#ffffff"/><path d="m33.531 72a1 1 0 0 1 -1-1v-4a1 1 0 0 1 2 0v4a1 1 0 0 1 -1 1z" fill="#ffffff"/><path d="m26.531 72a1 1 0 0 1 -1-1v-2.9a1 1 0 0 1 2 0v2.9a1 1 0 0 1 -1 1z" fill="#ffffff"/><path d="m19.531 72a1 1 0 0 1 -1-1v-4a1 1 0 0 1 2 0v4a1 1 0 0 1 -1 1z" fill="#ffffff"/><path d="m12.531 72a1 1 0 0 1 -1-1v-2.9a1 1 0 0 1 2 0v2.9a1 1 0 0 1 -1 1z" fill="#ffffff"/><path d="m5.9 61h-2.9a1 1 0 0 1 0-2h2.9a1 1 0 1 1 0 2z" fill="#ffffff"/><path d="m7 54h-4a1 1 0 0 1 0-2h4a1 1 0 0 1 0 2z" fill="#ffffff"/><path d="m5.9 47h-2.9a1 1 0 0 1 0-2h2.9a1 1 0 1 1 0 2z" fill="#ffffff"/><path d="m7 40h-4a1 1 0 0 1 0-2h4a1 1 0 0 1 0 2z" fill="#ffffff"/><path d="m5.9 33h-2.9a1 1 0 0 1 0-2h2.9a1 1 0 1 1 0 2z" fill="#ffffff"/><path d="m7 26h-4a1 1 0 0 1 0-2h4a1 1 0 0 1 0 2z" fill="#ffffff"/><path d="m5.9 19h-2.9a1 1 0 0 1 0-2h2.9a1 1 0 1 1 0 2z" fill="#ffffff"/></g><g transform="matrix(0.11620068919326075 0.049800297093728185 -0.049800297093728185 0.11620068919326075 220.543202981477 274.4899419280599)" id="L1_20"><path d="m502.58 101.369-31.469-31.469c-6.073-6.075-14.173-9.421-22.806-9.421-7.577 0-14.742 2.579-20.489 7.317-47.843-44.319-109.884-68.34-175.269-67.786-67.211.587-130.399 27.084-177.927 74.611-47.526 47.527-74.024 110.716-74.61 177.927-.571 65.405 23.467 127.427 67.787 175.269-4.738 5.747-7.317 12.913-7.317 20.489 0 8.632 3.346 16.731 9.42 22.806l31.469 31.469c6.074 6.074 14.174 9.42 22.806 9.42s16.731-3.346 22.806-9.42l355.6-355.601c6.075-6.073 9.421-14.173 9.421-22.805-.002-8.633-3.348-16.733-9.422-22.806zm-137.887 29.337c-30.752-27.289-70.047-42.023-111.369-41.692-43.73.382-84.844 17.622-115.767 48.545s-48.163 72.036-48.545 115.766c-.36 41.351 14.4 80.621 41.692 111.37l-48.862 48.862c-9.492-10.339-17.877-21.349-25.165-32.87l20.021-11.559c4.783-2.762 6.422-8.877 3.66-13.66-2.761-4.782-8.877-6.422-13.66-3.66l-19.963 11.526c-6.392-12.349-11.627-25.157-15.685-38.264l7.005-1.877c5.335-1.429 8.501-6.912 7.071-12.247s-6.907-8.502-12.247-7.071l-6.919 1.854c-2.954-13.496-4.724-27.205-5.298-40.957h7.068c5.522 0 10-4.478 10-10s-4.478-10-10-10h-7.058c.578-13.754 2.34-27.463 5.295-40.954l22.024 5.901c.867.232 1.737.344 2.594.344 4.415 0 8.456-2.947 9.653-7.415 1.43-5.334-1.736-10.817-7.071-12.247l-22.092-5.92c4.06-13.111 9.283-25.921 15.669-38.265l6.404 3.698c1.575.909 3.294 1.342 4.99 1.342 3.456 0 6.817-1.794 8.67-5.002 2.762-4.783 1.123-10.898-3.66-13.66l-6.459-3.729c7.289-11.528 15.68-22.533 25.164-32.866l5.304 5.304c1.953 1.953 4.512 2.93 7.071 2.93s5.118-.977 7.07-2.929c3.906-3.905 3.906-10.236.001-14.142l-5.305-5.305c10.333-9.484 21.338-17.875 32.866-25.164l11.552 20.008c1.853 3.208 5.213 5.002 8.67 5.002 1.696 0 3.415-.433 4.99-1.342 4.783-2.761 6.422-8.877 3.66-13.66l-11.52-19.954c12.344-6.386 25.154-11.609 38.265-15.669l1.871 6.98c1.197 4.468 5.237 7.414 9.653 7.414.856 0 1.728-.111 2.595-.344 5.334-1.43 8.5-6.913 7.07-12.248l-1.852-6.91c13.491-2.955 27.2-4.716 40.954-5.295v7.058c0 5.522 4.478 10 10 10s10-4.478 10-10v-7.069c13.752.574 27.461 2.344 40.957 5.298l-5.903 22.032c-1.43 5.334 1.736 10.817 7.071 12.247.867.232 1.737.344 2.594.344 4.415 0 8.456-2.947 9.653-7.415l5.926-22.118c13.107 4.058 25.915 9.292 38.264 15.685l-3.703 6.414c-2.762 4.783-1.123 10.898 3.66 13.66 1.575.909 3.294 1.342 4.99 1.342 3.456 0 6.817-1.794 8.67-5.002l3.737-6.472c11.521 7.288 22.531 15.672 32.869 25.164zm123.745 2.131-13.385 13.386-7.417-7.418c-3.904-3.903-10.234-3.904-14.143 0-3.905 3.905-3.905 10.236 0 14.143l7.417 7.418-25.193 25.193-7.417-7.417c-3.906-3.904-10.236-3.904-14.143 0-3.905 3.905-3.905 10.237 0 14.143l7.417 7.417-25.194 25.194-16.529-16.53c-3.905-3.903-10.235-3.904-14.143 0-3.905 3.905-3.905 10.237 0 14.143l16.529 16.53-25.193 25.193-7.417-7.417c-3.906-3.904-10.236-3.904-14.143 0-3.905 3.905-3.905 10.237 0 14.143l7.417 7.417-25.194 25.194-7.417-7.417c-3.906-3.904-10.236-3.904-14.143 0-3.905 3.905-3.905 10.237 0 14.143l7.417 7.417-25.193 25.193-16.529-16.53c-3.905-3.903-10.235-3.905-14.143 0-3.905 3.905-3.905 10.237 0 14.143l16.529 16.53-25.193 25.193-7.417-7.417c-3.906-3.904-10.236-3.904-14.143 0-3.905 3.905-3.905 10.237 0 14.143l7.417 7.417-25.192 25.19-7.417-7.417c-3.906-3.904-10.236-3.904-14.143 0-3.905 3.905-3.905 10.237 0 14.143l7.417 7.417-25.193 25.193-16.53-16.53c-3.906-3.904-10.236-3.904-14.143 0-3.905 3.905-3.905 10.237 0 14.143l16.53 16.53-13.385 13.385c-2.297 2.297-5.373 3.562-8.663 3.562s-6.366-1.265-8.663-3.562l-31.469-31.469c-2.297-2.297-3.562-5.373-3.562-8.663s1.265-6.366 3.562-8.663l145.979-145.979c3.905-3.905 3.905-10.237 0-14.143-3.906-3.904-10.236-3.904-14.143 0l-71.005 71.005c-49.715-57.086-47.254-144.744 6.827-198.825 54.081-54.08 141.74-56.544 198.825-6.828l-71.008 71.008c-3.905 3.905-3.905 10.237 0 14.143 3.906 3.904 10.236 3.904 14.143 0l145.983-145.982c2.297-2.297 5.373-3.562 8.663-3.562s6.366 1.265 8.663 3.562l31.471 31.47c2.296 2.297 3.561 5.373 3.561 8.663-.001 3.289-1.265 6.365-3.562 8.662z" fill="#ffffff"/><path d="m254.771 244.77h-.008c-5.522 0-9.996 4.478-9.996 10s4.481 10 10.004 10 10-4.478 10-10-4.478-10-10-10z" fill="#ffffff"/></g><path d="M471.81,139.723L350.419,18.319c-20.258-20.885-60.246-27.728-87.97,0L18.43,262.374c-30.191,30.195-18.238,72.809,0,87.981  l121.386,121.408c23.656,23.659,63.017,24.962,87.975,0L471.81,227.71C496.063,203.448,496.063,163.979,471.81,139.723z   M213.053,457.025c-15.633,15.624-42.878,15.624-58.5,0L33.166,335.616c-16.126-16.128-16.126-42.375,0-58.503l114.642-114.658  l179.887,179.912L213.053,457.025z M457.073,212.97L342.432,327.628L162.545,147.716L277.186,33.059  c16.693-16.695,42.962-15.535,58.495,0l121.391,121.403C473.199,170.591,473.199,196.837,457.073,212.97z" transform="matrix(0.10390140161814933 -0.02308920022813929 0.02308920022813929 0.10390140161814933 5.8873028456825125 260.20101095747077)" id="L1_21" fill="#ffffff"/><g transform="matrix(0.11049258898793278 0.11049258898793278 -0.11049258898793278 0.11049258898793278 114.94438922777772 274.48267625494407)" id="L1_23"><path d="m340.002 181.678c-6.893.188-12.07-7.53-9.229-13.83 2.869-7.294 13.307-8.307 17.55-1.72 1.44 2.186 2.021 4.936 1.479 7.5-.824 4.584-5.161 8.108-9.8 8.05z" fill="#ffffff"/><path d="m502.689 37.279-28.396-28.424c-.035-.035-.07-.07-.106-.104-11.941-11.601-31.786-11.677-44.237-.173-.098.09-.194.183-.288.277l-22.173 22.193-2.856-2.859c-1.876-1.877-4.421-2.932-7.074-2.932-2.654 0-5.199 1.055-7.074 2.932l-347.342 347.662c-3.588 3.591-5.843 8.017-6.768 12.659-.011.034-.023.068-.035.102l-35.815 110.246c-1.162 3.577-.219 7.504 2.441 10.163 1.905 1.904 4.46 2.928 7.07 2.928 1.035 0 2.079-.161 3.094-.491l110.133-35.843c4.808-.933 9.228-3.273 12.767-6.815l293.916-294.186 3.092 3.095c5.17 5.175 5.17 13.595 0 18.77l-162.488 162.636c-3.903 3.907-3.9 10.239.007 14.142 1.952 1.951 4.51 2.926 7.067 2.926 2.561 0 5.122-.978 7.074-2.932l162.488-162.638c12.957-12.969 12.957-34.072 0-47.041l-3.104-3.107 39.291-39.327c3.901-3.904 3.901-10.231 0-14.136l-2.869-2.871 22.185-22.206c12.298-12.309 12.298-32.337 0-44.646zm-425.917 432.433-34.523-34.556 6.155-18.946 47.298 47.341zm-41.461-13.202 20.127 20.145-29.824 9.707zm86.571-1.846c-1.224 1.225-2.652 1.408-3.395 1.408s-2.17-.183-3.395-1.408l-57.802-57.855c-1.879-1.881-1.879-4.941 0-6.821l32.707-32.738 64.604 64.663zm46.856-46.9-25.234-25.257 179.142-179.306c3.903-3.907 3.9-10.239-.007-14.142-3.907-3.904-10.24-3.901-14.142.006l-179.129 179.293-25.233-25.258 247.072-247.298 64.603 64.663zm261.208-261.448-64.603-64.663 32.216-32.247 64.604 64.664zm58.595-78.527-22.172 22.193-44.744-44.785 22.023-22.043c4.689-4.212 12.219-4.266 16.558-.101l28.335 28.361c4.511 4.515 4.511 11.86 0 16.375z" fill="#ffffff"/></g><g transform="matrix(0.0686323706570492 -0.0686323706570492 0.0686323706570492 0.0686323706570492 285.90302801353306 303.1967065116426)" fill="#020202" id="L1_26"><path d="m40.5 190c0 82.710938 67.289062 150 150 150s150-67.289062 150-150-67.289062-150-150-150-150 67.289062-150 150zm150-130c71.683594 0 130 58.316406 130 130s-58.316406 130-130 130-130-58.316406-130-130 58.316406-130 130-130zm0 0" fill="#ffffff"/><path d="m97.890625 172.171875 38.761719 38.191406-8.917969 53.675781c-.621094 3.738282.921875 7.503907 3.988281 9.730469 3.0625 2.226563 7.121094 2.527344 10.484375.785157l48.292969-25.078126 48.289062 25.078126c3.335938 1.730468 7.394532 1.460937 10.484376-.785157 3.066406-2.226562 4.609374-5.992187 3.988281-9.730469l-8.917969-53.675781 38.761719-38.191406c2.699219-2.65625 3.664062-6.609375 2.492187-10.214844-1.171875-3.601562-4.277344-6.230469-8.023437-6.796875l-53.792969-8.097656-24.339844-48.675781c-1.691406-3.386719-5.15625-5.527344-8.941406-5.527344-3.789062 0-7.25 2.140625-8.945312 5.527344l-24.339844 48.675781-53.792969 8.097656c-3.746094.5625-6.851563 3.195313-8.023437 6.796875-1.171876 3.605469-.203126 7.558594 2.492187 10.214844zm67.4375-6.105469c3.21875-.484375 6-2.503906 7.457031-5.414062l17.714844-35.433594 17.714844 35.433594c1.457031 2.910156 4.238281 4.929687 7.457031 5.414062l39.152344 5.894532-28.214844 27.792968c-2.316406 2.285156-3.378906 5.554688-2.847656 8.765625l6.492187 39.066407-35.148437-18.25c-1.441407-.75-3.023438-1.125-4.605469-1.125s-3.164062.375-4.609375 1.125l-35.148437 18.25 6.492187-39.066407c.535156-3.210937-.527344-6.480469-2.847656-8.765625l-28.210938-27.792968zm0 0" fill="#ffffff"/><path d="m200.5 10c0 5.523438-4.476562 10-10 10s-10-4.476562-10-10 4.476562-10 10-10 10 4.476562 10 10zm0 0" fill="#ffffff"/><path d="m143.371094 5.894531c-84.121094 21.472657-142.871094 97.179688-142.871094 184.105469 0 53.988281 22.699219 104.859375 62.546875 140.886719l-60.246094 106.175781c-1.9375 3.417969-1.695312 7.652344.617188 10.824219 2.3125 3.175781 6.265625 4.703125 10.113281 3.902343l68.417969-14.207031 24.046875 67.761719c1.304687 3.6875 4.644531 6.269531 8.542968 6.617188 3.898438.347656 7.636719-1.617188 9.570313-5.019532l66.390625-116.71875 66.386719 116.71875c1.789062 3.144532 5.117187 5.054688 8.6875 5.054688.292969 0 .589843-.011719.882812-.035156 3.898438-.347657 7.238281-2.933594 8.546875-6.617188l24.042969-67.761719 68.417969 14.207031c3.84375.796876 7.800781-.730468 10.113281-3.902343 2.316406-3.171875 2.554687-7.40625.617187-10.824219l-60.246093-106.175781c39.847656-36.027344 62.546875-86.898438 62.546875-140.886719 0-86.925781-58.75-162.632812-142.867188-184.105469-5.355468-1.367187-10.796875 1.863281-12.164062 7.214844-1.367188 5.351563 1.863281 10.796875 7.214844 12.164063 75.257812 19.210937 127.820312 86.949218 127.820312 164.726562 0 94.660156-76.878906 170-170 170-93.1875 0-170-75.402344-170-170 0-77.777344 52.558594-145.515625 127.816406-164.726562 5.351563-1.367188 8.582032-6.8125 7.21875-12.164063-1.367187-5.351563-6.808594-8.582031-12.164062-7.214844zm-25.835938 472.160157-19.652344-55.378907c-1.671874-4.710937-6.5625-7.464843-11.457031-6.449219l-55.324219 11.488282 47.679688-84.03125c27.800781 20.210937 60.71875 32.523437 94.949219 35.570312zm177.035156-61.828126c-4.890624-1.015624-9.785156 1.738282-11.457031 6.449219l-19.648437 55.378907-56.199219-98.800782c34.234375-3.046875 67.148437-15.359375 94.953125-35.570312l47.679688 84.03125zm0 0" fill="#ffffff"/></g><path d="m114.59375 491.140625c-5.609375 0-11.179688-1.75-15.933594-5.1875-8.855468-6.417969-12.992187-17.449219-10.582031-28.09375l32.9375-145.089844-111.703125-97.960937c-8.210938-7.167969-11.347656-18.519532-7.976562-28.90625 3.371093-10.367188 12.542968-17.707032 23.402343-18.710938l147.796875-13.417968 58.433594-136.746094c4.308594-10.046875 14.121094-16.535156 25.023438-16.535156 10.902343 0 20.714843 6.488281 25.023437 16.511718l58.433594 136.769532 147.773437 13.417968c10.882813.980469 20.054688 8.34375 23.425782 18.710938 3.371093 10.367187.253906 21.738281-7.957032 28.90625l-111.703125 97.941406 32.9375 145.085938c2.414063 10.667968-1.726562 21.699218-10.578125 28.097656-8.832031 6.398437-20.609375 6.890625-29.910156 1.300781l-127.445312-76.160156-127.445313 76.203125c-4.308594 2.558594-9.109375 3.863281-13.953125 3.863281zm141.398438-112.875c4.84375 0 9.640624 1.300781 13.953124 3.859375l120.277344 71.9375-31.085937-136.941406c-2.21875-9.746094 1.089843-19.921875 8.621093-26.515625l105.472657-92.5-139.542969-12.671875c-10.046875-.917969-18.6875-7.234375-22.613281-16.492188l-55.082031-129.046875-55.148438 129.066407c-3.882812 9.195312-12.523438 15.511718-22.546875 16.429687l-139.5625 12.671875 105.46875 92.5c7.554687 6.613281 10.859375 16.769531 8.621094 26.539062l-31.0625 136.9375 120.277343-71.914062c4.308594-2.558594 9.109376-3.859375 13.953126-3.859375zm-84.585938-221.847656s0 .023437-.023438.042969zm169.128906-.0625.023438.042969c0-.023438 0-.023438-.023438-.042969zm0 0" transform="matrix(0.05928698299396462 0.014115948619033382 -0.014115948619033382 0.05928698299396462 308.2642828874523 8.627012216849874)" id="L1_27" fill="#ffffff"/><path d="M62.052,0h-9v9h2.695c0.073,1.716,0.09,9.353-4.937,14.856c-3.647,3.994-9.188,6.019-16.465,6.019   c-24.391,0-27.188,23.486-27.469,27H3.823v9h9v-9H9.878c0.283-3.704,2.82-24,24.467-24c8.155,0,14.44-2.354,18.68-6.996   C58.714,19.65,58.841,11.347,58.751,9h3.301V0z M11.826,64.875h-7v-7h7V64.875z M61.052,8h-7V1h7V8z" transform="matrix(0.910815954208374 0 0 0.910815954208374 0 158)" id="L1_28" fill="#ffffff"/><g transform="matrix(0.06076698924341357 0.016572814868758185 -0.016572814868758185 0.06076698924341357 221.68623223228062 166.2009510194764)" id="L1_29"><path d="M492.245,377.007c-11.009-0.211-20.184,8.531-20.417,19.575c-0.004,0.193-0.671,19.863-10.122,39.103     c-12.005,24.438-32.029,36.318-61.215,36.318c-14.747,0-25.734-4.3-33.591-13.146c-17.351-19.537-17.111-57.787-15.561-70.831     c0.028-0.229,0.053-0.458,0.073-0.687c0.102-1.155,10.335-116.617,17.536-214.871c0.808-11.016-7.468-20.601-18.484-21.408     c-11.016-0.813-20.601,7.468-21.408,18.484c-7.015,95.705-16.92,207.856-17.464,214.002c-0.306,2.724-1.77,17.432-0.048,35.585     c2.644,27.873,11.164,50.128,25.323,66.145c15.455,17.485,37.456,26.727,63.623,26.727c24.553,0,45.887-6.207,63.411-18.448     c14.084-9.838,25.424-23.375,33.706-40.234c13.463-27.407,14.187-54.746,14.211-55.896     C512.052,386.381,503.288,377.24,492.245,377.007z" fill="#ffffff"/><path d="M469.756,77.424c18.535-12.323,32.598-29.638,40.669-50.073c4.058-10.273-0.982-21.89-11.255-25.948     c-10.272-4.057-21.89,0.981-25.948,11.255c-10.24,25.927-36.38,43.347-65.046,43.347H146.826     c-45.647,0-85.448,20.129-115.103,58.211C10.03,142.074,1.398,170.02,1.041,171.196c-3.207,10.57,2.752,21.768,13.322,24.976     c1.942,0.589,3.902,0.87,5.831,0.87c8.569-0.001,16.488-5.543,19.106-14.171c0.07-0.227,7.252-22.973,24.728-45.025     c22.001-27.764,49.859-41.841,82.799-41.841h36.378c-0.466,7.43-0.94,15.349-1.432,23.59     c-3.966,66.409-9.398,157.362-24.761,232.27c-15.889,77.471-39.393,120.137-66.184,120.137c-11.046,0-20,8.954-20,20     s8.954,20,20,20c28.422,0,52.323-16.671,71.039-49.55c13.988-24.572,25.217-58.115,34.33-102.551     c15.937-77.706,21.467-170.307,25.506-237.922c0.546-9.141,1.069-17.898,1.582-25.974v-0.002h184.892     C430.181,96.004,451.474,89.579,469.756,77.424z" fill="#ffffff"/></g><path d="M115.885,38.631c-21.312,0-35.416,17.425-47.859,32.802c-10.631,13.136-20.67,25.54-32.897,25.54    c-12.709,0-20.512-13.062-20.512-22.426c0-8.682,8.56-21.299,21.976-21.299c13.018,0,19.8,10.419,20.142,10.953    c2.109,3.413,6.587,4.487,10.017,2.395c3.447-2.1,4.539-6.597,2.438-10.044c-0.446-0.73-11.167-17.92-32.597-17.92    C15.029,38.632,0,57.562,0,74.548c0,17.521,14.427,37.043,35.128,37.043c19.199,0,31.94-15.74,44.259-30.963    c11.396-14.078,22.161-27.379,36.498-27.379c8.53,0,14.135,2.894,17.131,8.84c2.596,5.16,2.594,10.999,2.592,13.022    c0,1.16-0.613,6.978-3.451,12.217c-3.236,5.968-7.83,8.746-14.469,8.746c-13.369,0-20.592-8.69-23.312-11.963    c-0.707-0.852-1.216-1.465-1.896-2.047c-3.062-2.623-7.678-2.271-10.306,0.795c-2.534,2.957-2.29,7.353,0.478,10.014    c0.132,0.15,0.291,0.347,0.48,0.576c3.545,4.266,14.324,17.24,34.553,17.24c24.586,0,32.537-23.973,32.537-35.678    c0.002-7.455-1.394-14.013-4.154-19.496C142.193,47.815,133.809,38.631,115.885,38.631z" transform="matrix(0.276035338640213 0 0 0.276035338640213 219.25281643867493 234.2665105152346)" id="L1_30" fill="#ffffff"/></defs><g fi:class="KUsePattern" opacity="0.2"><pattern id="pattern_L1_6" width="350" height="350" patternUnits="userSpaceOnUse"><use xlink:href="#L1_6" x="-350" y="-350"/><use xlink:href="#L1_6" x="0" y="-350"/><use xlink:href="#L1_6" x="350" y="-350"/><use xlink:href="#L1_6" x="-350" y="0"/><use xlink:href="#L1_6" x="0" y="0"/><use xlink:href="#L1_6" x="350" y="0"/><use xlink:href="#L1_6" x="-350" y="350"/><use xlink:href="#L1_6" x="0" y="350"/><use xlink:href="#L1_6" x="350" y="350"/></pattern><rect x="0" y="0" width="100%" height="100%" fill="url(#pattern_L1_6)"/></g><g fi:class="KUsePattern" opacity="0.2"><pattern id="pattern_L1_7" width="350" height="350" patternUnits="userSpaceOnUse"><use xlink:href="#L1_7" x="-350" y="-350"/><use xlink:href="#L1_7" x="0" y="-350"/><use xlink:href="#L1_7" x="350" y="-350"/><use xlink:href="#L1_7" x="-350" y="0"/><use xlink:href="#L1_7" x="0" y="0"/><use xlink:href="#L1_7" x="350" y="0"/><use xlink:href="#L1_7" x="-350" y="350"/><use xlink:href="#L1_7" x="0" y="350"/><use xlink:href="#L1_7" x="350" y="350"/></pattern><rect x="0" y="0" width="100%" height="100%" fill="url(#pattern_L1_7)"/></g><g fi:class="KUsePattern" opacity="0.2"><pattern id="pattern_L1_8" width="350" height="350" patternUnits="userSpaceOnUse"><use xlink:href="#L1_8" x="-350" y="-350"/><use xlink:href="#L1_8" x="0" y="-350"/><use xlink:href="#L1_8" x="350" y="-350"/><use xlink:href="#L1_8" x="-350" y="0"/><use xlink:href="#L1_8" x="0" y="0"/><use xlink:href="#L1_8" x="350" y="0"/><use xlink:href="#L1_8" x="-350" y="350"/><use xlink:href="#L1_8" x="0" y="350"/><use xlink:href="#L1_8" x="350" y="350"/></pattern><rect x="0" y="0" width="100%" height="100%" fill="url(#pattern_L1_8)"/></g><g fi:class="KUsePattern" opacity="0.2"><pattern id="pattern_L1_9" width="350" height="350" patternUnits="userSpaceOnUse"><use xlink:href="#L1_9" x="-350" y="-350"/><use xlink:href="#L1_9" x="0" y="-350"/><use xlink:href="#L1_9" x="350" y="-350"/><use xlink:href="#L1_9" x="-350" y="0"/><use xlink:href="#L1_9" x="0" y="0"/><use xlink:href="#L1_9" x="350" y="0"/><use xlink:href="#L1_9" x="-350" y="350"/><use xlink:href="#L1_9" x="0" y="350"/><use xlink:href="#L1_9" x="350" y="350"/></pattern><rect x="0" y="0" width="100%" height="100%" fill="url(#pattern_L1_9)"/></g><g fi:class="KUsePattern" opacity="0.2"><pattern id="pattern_L1_10" width="350" height="350" patternUnits="userSpaceOnUse"><use xlink:href="#L1_10" x="-350" y="-350"/><use xlink:href="#L1_10" x="0" y="-350"/><use xlink:href="#L1_10" x="350" y="-350"/><use xlink:href="#L1_10" x="-350" y="0"/><use xlink:href="#L1_10" x="0" y="0"/><use xlink:href="#L1_10" x="350" y="0"/><use xlink:href="#L1_10" x="-350" y="350"/><use xlink:href="#L1_10" x="0" y="350"/><use xlink:href="#L1_10" x="350" y="350"/></pattern><rect x="0" y="0" width="100%" height="100%" fill="url(#pattern_L1_10)"/></g><g fi:class="KUsePattern" opacity="0.2"><pattern id="pattern_L1_11" width="350" height="350" patternUnits="userSpaceOnUse"><use xlink:href="#L1_11" x="-350" y="-350"/><use xlink:href="#L1_11" x="0" y="-350"/><use xlink:href="#L1_11" x="350" y="-350"/><use xlink:href="#L1_11" x="-350" y="0"/><use xlink:href="#L1_11" x="0" y="0"/><use xlink:href="#L1_11" x="350" y="0"/><use xlink:href="#L1_11" x="-350" y="350"/><use xlink:href="#L1_11" x="0" y="350"/><use xlink:href="#L1_11" x="350" y="350"/></pattern><rect x="0" y="0" width="100%" height="100%" fill="url(#pattern_L1_11)"/></g><g fi:class="KUsePattern" opacity="0.2"><pattern id="pattern_L1_14" width="350" height="350" patternUnits="userSpaceOnUse"><use xlink:href="#L1_14" x="-350" y="-350"/><use xlink:href="#L1_14" x="0" y="-350"/><use xlink:href="#L1_14" x="350" y="-350"/><use xlink:href="#L1_14" x="-350" y="0"/><use xlink:href="#L1_14" x="0" y="0"/><use xlink:href="#L1_14" x="350" y="0"/><use xlink:href="#L1_14" x="-350" y="350"/><use xlink:href="#L1_14" x="0" y="350"/><use xlink:href="#L1_14" x="350" y="350"/></pattern><rect x="0" y="0" width="100%" height="100%" fill="url(#pattern_L1_14)"/></g><g fi:class="KUsePattern" opacity="0.2"><pattern id="pattern_L1_15" width="350" height="350" patternUnits="userSpaceOnUse"><use xlink:href="#L1_15" x="-350" y="-350"/><use xlink:href="#L1_15" x="0" y="-350"/><use xlink:href="#L1_15" x="350" y="-350"/><use xlink:href="#L1_15" x="-350" y="0"/><use xlink:href="#L1_15" x="0" y="0"/><use xlink:href="#L1_15" x="350" y="0"/><use xlink:href="#L1_15" x="-350" y="350"/><use xlink:href="#L1_15" x="0" y="350"/><use xlink:href="#L1_15" x="350" y="350"/></pattern><rect x="0" y="0" width="100%" height="100%" fill="url(#pattern_L1_15)"/></g><g fi:class="KUsePattern" opacity="0.2"><pattern id="pattern_L1_16" width="350" height="350" patternUnits="userSpaceOnUse"><use xlink:href="#L1_16" x="-350" y="-350"/><use xlink:href="#L1_16" x="0" y="-350"/><use xlink:href="#L1_16" x="350" y="-350"/><use xlink:href="#L1_16" x="-350" y="0"/><use xlink:href="#L1_16" x="0" y="0"/><use xlink:href="#L1_16" x="350" y="0"/><use xlink:href="#L1_16" x="-350" y="350"/><use xlink:href="#L1_16" x="0" y="350"/><use xlink:href="#L1_16" x="350" y="350"/></pattern><rect x="0" y="0" width="100%" height="100%" fill="url(#pattern_L1_16)"/></g><g fi:class="KUsePattern" opacity="0.2"><pattern id="pattern_L1_17" width="350" height="350" patternUnits="userSpaceOnUse"><use xlink:href="#L1_17" x="-350" y="-350"/><use xlink:href="#L1_17" x="0" y="-350"/><use xlink:href="#L1_17" x="350" y="-350"/><use xlink:href="#L1_17" x="-350" y="0"/><use xlink:href="#L1_17" x="0" y="0"/><use xlink:href="#L1_17" x="350" y="0"/><use xlink:href="#L1_17" x="-350" y="350"/><use xlink:href="#L1_17" x="0" y="350"/><use xlink:href="#L1_17" x="350" y="350"/></pattern><rect x="0" y="0" width="100%" height="100%" fill="url(#pattern_L1_17)"/></g><g fi:class="KUsePattern" opacity="0.2"><pattern id="pattern_L1_18" width="350" height="350" patternUnits="userSpaceOnUse"><use xlink:href="#L1_18" x="-350" y="-350"/><use xlink:href="#L1_18" x="0" y="-350"/><use xlink:href="#L1_18" x="350" y="-350"/><use xlink:href="#L1_18" x="-350" y="0"/><use xlink:href="#L1_18" x="0" y="0"/><use xlink:href="#L1_18" x="350" y="0"/><use xlink:href="#L1_18" x="-350" y="350"/><use xlink:href="#L1_18" x="0" y="350"/><use xlink:href="#L1_18" x="350" y="350"/></pattern><rect x="0" y="0" width="100%" height="100%" fill="url(#pattern_L1_18)"/></g><g fi:class="KUsePattern" opacity="0.2"><pattern id="pattern_L1_19" width="350" height="350" patternUnits="userSpaceOnUse"><use xlink:href="#L1_19" x="-350" y="-350"/><use xlink:href="#L1_19" x="0" y="-350"/><use xlink:href="#L1_19" x="350" y="-350"/><use xlink:href="#L1_19" x="-350" y="0"/><use xlink:href="#L1_19" x="0" y="0"/><use xlink:href="#L1_19" x="350" y="0"/><use xlink:href="#L1_19" x="-350" y="350"/><use xlink:href="#L1_19" x="0" y="350"/><use xlink:href="#L1_19" x="350" y="350"/></pattern><rect x="0" y="0" width="100%" height="100%" fill="url(#pattern_L1_19)"/></g><g fi:class="KUsePattern" opacity="0.2"><pattern id="pattern_L1_20" width="350" height="350" patternUnits="userSpaceOnUse"><use xlink:href="#L1_20" x="-350" y="-350"/><use xlink:href="#L1_20" x="0" y="-350"/><use xlink:href="#L1_20" x="350" y="-350"/><use xlink:href="#L1_20" x="-350" y="0"/><use xlink:href="#L1_20" x="0" y="0"/><use xlink:href="#L1_20" x="350" y="0"/><use xlink:href="#L1_20" x="-350" y="350"/><use xlink:href="#L1_20" x="0" y="350"/><use xlink:href="#L1_20" x="350" y="350"/></pattern><rect x="0" y="0" width="100%" height="100%" fill="url(#pattern_L1_20)"/></g><g fi:class="KUsePattern" opacity="0.2"><pattern id="pattern_L1_21" width="350" height="350" patternUnits="userSpaceOnUse"><use xlink:href="#L1_21" x="-350" y="-350"/><use xlink:href="#L1_21" x="0" y="-350"/><use xlink:href="#L1_21" x="350" y="-350"/><use xlink:href="#L1_21" x="-350" y="0"/><use xlink:href="#L1_21" x="0" y="0"/><use xlink:href="#L1_21" x="350" y="0"/><use xlink:href="#L1_21" x="-350" y="350"/><use xlink:href="#L1_21" x="0" y="350"/><use xlink:href="#L1_21" x="350" y="350"/></pattern><rect x="0" y="0" width="100%" height="100%" fill="url(#pattern_L1_21)"/></g><g fi:class="KUsePattern" opacity="0.2"><pattern id="pattern_L1_23" width="350" height="350" patternUnits="userSpaceOnUse"><use xlink:href="#L1_23" x="-350" y="-350"/><use xlink:href="#L1_23" x="0" y="-350"/><use xlink:href="#L1_23" x="350" y="-350"/><use xlink:href="#L1_23" x="-350" y="0"/><use xlink:href="#L1_23" x="0" y="0"/><use xlink:href="#L1_23" x="350" y="0"/><use xlink:href="#L1_23" x="-350" y="350"/><use xlink:href="#L1_23" x="0" y="350"/><use xlink:href="#L1_23" x="350" y="350"/></pattern><rect x="0" y="0" width="100%" height="100%" fill="url(#pattern_L1_23)"/></g><g fi:class="KUsePattern" opacity="0.2"><pattern id="pattern_L1_26" width="350" height="350" patternUnits="userSpaceOnUse"><use xlink:href="#L1_26" x="-350" y="-350"/><use xlink:href="#L1_26" x="0" y="-350"/><use xlink:href="#L1_26" x="350" y="-350"/><use xlink:href="#L1_26" x="-350" y="0"/><use xlink:href="#L1_26" x="0" y="0"/><use xlink:href="#L1_26" x="350" y="0"/><use xlink:href="#L1_26" x="-350" y="350"/><use xlink:href="#L1_26" x="0" y="350"/><use xlink:href="#L1_26" x="350" y="350"/></pattern><rect x="0" y="0" width="100%" height="100%" fill="url(#pattern_L1_26)"/></g><g fi:class="KUsePattern" opacity="0.2"><pattern id="pattern_L1_27" width="350" height="350" patternUnits="userSpaceOnUse"><use xlink:href="#L1_27" x="-350" y="-350"/><use xlink:href="#L1_27" x="0" y="-350"/><use xlink:href="#L1_27" x="350" y="-350"/><use xlink:href="#L1_27" x="-350" y="0"/><use xlink:href="#L1_27" x="0" y="0"/><use xlink:href="#L1_27" x="350" y="0"/><use xlink:href="#L1_27" x="-350" y="350"/><use xlink:href="#L1_27" x="0" y="350"/><use xlink:href="#L1_27" x="350" y="350"/></pattern><rect x="0" y="0" width="100%" height="100%" fill="url(#pattern_L1_27)"/></g><g fi:class="KUsePattern" opacity="0.2"><pattern id="pattern_L1_28" width="350" height="350" patternUnits="userSpaceOnUse"><use xlink:href="#L1_28" x="-350" y="-350"/><use xlink:href="#L1_28" x="0" y="-350"/><use xlink:href="#L1_28" x="350" y="-350"/><use xlink:href="#L1_28" x="-350" y="0"/><use xlink:href="#L1_28" x="0" y="0"/><use xlink:href="#L1_28" x="350" y="0"/><use xlink:href="#L1_28" x="-350" y="350"/><use xlink:href="#L1_28" x="0" y="350"/><use xlink:href="#L1_28" x="350" y="350"/></pattern><rect x="0" y="0" width="100%" height="100%" fill="url(#pattern_L1_28)"/></g><g fi:class="KUsePattern" opacity="0.2"><pattern id="pattern_L1_29" width="350" height="350" patternUnits="userSpaceOnUse"><use xlink:href="#L1_29" x="-350" y="-350"/><use xlink:href="#L1_29" x="0" y="-350"/><use xlink:href="#L1_29" x="350" y="-350"/><use xlink:href="#L1_29" x="-350" y="0"/><use xlink:href="#L1_29" x="0" y="0"/><use xlink:href="#L1_29" x="350" y="0"/><use xlink:href="#L1_29" x="-350" y="350"/><use xlink:href="#L1_29" x="0" y="350"/><use xlink:href="#L1_29" x="350" y="350"/></pattern><rect x="0" y="0" width="100%" height="100%" fill="url(#pattern_L1_29)"/></g><g fi:class="KUsePattern" opacity="0.2"><pattern id="pattern_L1_30" width="350" height="350" patternUnits="userSpaceOnUse"><use xlink:href="#L1_30" x="-350" y="-350"/><use xlink:href="#L1_30" x="0" y="-350"/><use xlink:href="#L1_30" x="350" y="-350"/><use xlink:href="#L1_30" x="-350" y="0"/><use xlink:href="#L1_30" x="0" y="0"/><use xlink:href="#L1_30" x="350" y="0"/><use xlink:href="#L1_30" x="-350" y="350"/><use xlink:href="#L1_30" x="0" y="350"/><use xlink:href="#L1_30" x="350" y="350"/></pattern><rect x="0" y="0" width="100%" height="100%" fill="url(#pattern_L1_30)"/></g></svg>