<?xml version="1.0" encoding="utf-8"?>
<!-- Generator: Adobe Illustrator 23.0.3, SVG Export Plug-In . SVG Version: 6.00 Build 0)  -->
<svg version="1.1" id="Layer_1" xmlns="http://www.w3.org/2000/svg" xmlns:xlink="http://www.w3.org/1999/xlink" x="0px" y="0px"
	 viewBox="0 0 762.3 301.3" style="enable-background:new 0 0 762.3 301.3;" xml:space="preserve">
<style type="text/css">
	.st0{fill-rule:evenodd;clip-rule:evenodd;fill:#FFFFFF;}
	.st1{fill-rule:evenodd;clip-rule:evenodd;fill:url(#SVGID_1_);}
	.st2{fill-rule:evenodd;clip-rule:evenodd;fill:#C23434;}
	.st3{opacity:0.5;fill-rule:evenodd;clip-rule:evenodd;fill:#F8BC00;enable-background:new    ;}
	.st4{opacity:0.5;}
	.st5{fill-rule:evenodd;clip-rule:evenodd;fill:#F8BC00;}
	.st6{fill-rule:evenodd;clip-rule:evenodd;fill:#BCBEC0;}
	.st7{fill-rule:evenodd;clip-rule:evenodd;fill:#282A2E;}
	.st8{fill-rule:evenodd;clip-rule:evenodd;fill:#3A3B3B;}
	.st9{fill-rule:evenodd;clip-rule:evenodd;fill:#9AA56E;}
	.st10{fill-rule:evenodd;clip-rule:evenodd;fill:#C5C9A6;}
	.st11{fill-rule:evenodd;clip-rule:evenodd;fill:#646566;}
	.st12{fill-rule:evenodd;clip-rule:evenodd;fill:#E95A5E;}
	.st13{fill-rule:evenodd;clip-rule:evenodd;fill:#90A32C;}
	.st14{fill-rule:evenodd;clip-rule:evenodd;fill:#272729;}
	.st15{fill-rule:evenodd;clip-rule:evenodd;fill:#2D2C2D;}
	.st16{fill-rule:evenodd;clip-rule:evenodd;fill:#4C4F53;}
	.st17{fill-rule:evenodd;clip-rule:evenodd;fill:#707E34;}
	.st18{fill-rule:evenodd;clip-rule:evenodd;fill:#454652;}
	.st19{fill-rule:evenodd;clip-rule:evenodd;fill:#89878F;}
	.st20{fill-rule:evenodd;clip-rule:evenodd;fill:#272735;}
	.st21{fill-rule:evenodd;clip-rule:evenodd;fill:#393B46;}
	.st22{fill-rule:evenodd;clip-rule:evenodd;fill:#797A82;}
	.st23{fill-rule:evenodd;clip-rule:evenodd;fill:#F0F0F0;}
	.st24{fill-rule:evenodd;clip-rule:evenodd;fill:#10B6C8;}
	.st25{fill-rule:evenodd;clip-rule:evenodd;fill:#D8D7D8;}
	.st26{fill-rule:evenodd;clip-rule:evenodd;fill:#A7A8A9;}
	.st27{fill-rule:evenodd;clip-rule:evenodd;fill:#808080;}
	.st28{fill-rule:evenodd;clip-rule:evenodd;fill:#BABBBC;}
	.st29{fill-rule:evenodd;clip-rule:evenodd;fill:#008492;}
	.st30{fill-rule:evenodd;clip-rule:evenodd;fill:#00A967;}
	.st31{fill-rule:evenodd;clip-rule:evenodd;fill:#004125;}
	.st32{fill-rule:evenodd;clip-rule:evenodd;fill:#008E55;}
	.st33{fill-rule:evenodd;clip-rule:evenodd;fill:#FCCC00;}
	.st34{fill-rule:evenodd;clip-rule:evenodd;fill:#F08D1B;}
	.st35{fill-rule:evenodd;clip-rule:evenodd;fill:#EA7003;}
	.st36{fill-rule:evenodd;clip-rule:evenodd;fill:#F5A900;}
	.st37{fill-rule:evenodd;clip-rule:evenodd;fill:#FFE053;}
	.st38{fill-rule:evenodd;clip-rule:evenodd;fill:#E88400;}
	.st39{fill-rule:evenodd;clip-rule:evenodd;fill:#73161A;}
	.st40{fill-rule:evenodd;clip-rule:evenodd;fill:#F49F00;}
	.st41{fill-rule:evenodd;clip-rule:evenodd;fill:#DB4745;}
	.st42{fill-rule:evenodd;clip-rule:evenodd;fill:#E4494B;}
	.st43{fill-rule:evenodd;clip-rule:evenodd;fill:#A2A0A5;}
	.st44{fill-rule:evenodd;clip-rule:evenodd;fill:#DCDCDD;}
	.st45{fill-rule:evenodd;clip-rule:evenodd;fill:#C1C1C5;}
	.st46{fill-rule:evenodd;clip-rule:evenodd;fill:#4F9237;}
	.st47{fill-rule:evenodd;clip-rule:evenodd;fill:#79BC29;}
	.st48{fill-rule:evenodd;clip-rule:evenodd;fill:#8BC22D;}
	.st49{fill-rule:evenodd;clip-rule:evenodd;fill:#2A93D2;}
	.st50{fill-rule:evenodd;clip-rule:evenodd;fill:#00A0E8;}
	.st51{fill-rule:evenodd;clip-rule:evenodd;fill:#005E82;}
	.st52{fill-rule:evenodd;clip-rule:evenodd;fill:#003E50;}
	.st53{fill-rule:evenodd;clip-rule:evenodd;fill:#F2F2F2;}
	.st54{fill-rule:evenodd;clip-rule:evenodd;fill:#F4F4F4;}
	.st55{fill-rule:evenodd;clip-rule:evenodd;fill:#9E9E9F;}
	.st56{fill-rule:evenodd;clip-rule:evenodd;fill:#D4D4D5;}
	.st57{fill-rule:evenodd;clip-rule:evenodd;fill:#008BD5;}
	.st58{fill-rule:evenodd;clip-rule:evenodd;fill:#CFD2D4;}
	.st59{fill-rule:evenodd;clip-rule:evenodd;fill:#0E7CB8;}
	.st60{fill-rule:evenodd;clip-rule:evenodd;fill:#1E1E2F;}
	.st61{fill-rule:evenodd;clip-rule:evenodd;fill:#FDECCA;}
	.st62{fill-rule:evenodd;clip-rule:evenodd;fill:#E1BF89;}
	.st63{fill-rule:evenodd;clip-rule:evenodd;fill:#7BC9DA;}
	.st64{fill-rule:evenodd;clip-rule:evenodd;fill:#63A432;}
	.st65{fill-rule:evenodd;clip-rule:evenodd;fill:#B1D156;}
	.st66{fill-rule:evenodd;clip-rule:evenodd;fill:#E02D33;}
	.st67{fill-rule:evenodd;clip-rule:evenodd;fill:#B51D23;}
	.st68{fill:#FFFFFF;}
	.st69{fill:none;stroke:#FFFFFF;stroke-width:2;stroke-miterlimit:10;}
</style>
<g id="BACKGROUND">
	<rect x="212.9" y="0.1" class="st0" width="297.6" height="301.2"/>
	
		<radialGradient id="SVGID_1_" cx="328.8186" cy="-352.9" r="203.7969" gradientTransform="matrix(2.5602 0 0 -1.0121 -459.6414 -206.4689)" gradientUnits="userSpaceOnUse">
		<stop  offset="0" style="stop-color:#921E23"/>
		<stop  offset="0.2946" style="stop-color:#8F1E23"/>
		<stop  offset="0.5328" style="stop-color:#851C21"/>
		<stop  offset="0.7512" style="stop-color:#741A1E"/>
		<stop  offset="0.9568" style="stop-color:#5C171B"/>
		<stop  offset="1" style="stop-color:#56161A"/>
	</radialGradient>
	<rect x="1.2" y="0.1" class="st1" width="762" height="301.2"/>
</g>
<g id="OBJECTS">
	<g>
		<path class="st2" d="M440.3,155.8c-0.1,0.1-0.3,0.1-0.4,0s-0.1-0.3,0-0.4l1.8-1.8l-1.8-1.8c-0.1-0.1-0.1-0.3,0-0.4
			c0.1-0.1,0.3-0.1,0.4,0l2,2c0.1,0.1,0.1,0.3,0,0.4L440.3,155.8L440.3,155.8z M437.2,151.9l1.8,1.8l-1.8,1.8
			c-0.1,0.1-0.1,0.3,0,0.4c0.1,0.1,0.3,0.1,0.4,0l2-2c0.1-0.1,0.1-0.3,0-0.4l-2-2c-0.1-0.1-0.3-0.1-0.4,0S437.1,151.8,437.2,151.9
			L437.2,151.9z M448.2,155.8c-0.1,0.1-0.3,0.1-0.4,0s-0.1-0.3,0-0.4l1.8-1.8l-1.8-1.8c-0.1-0.1-0.1-0.3,0-0.4
			c0.1-0.1,0.3-0.1,0.4,0l2,2c0.1,0.1,0.1,0.3,0,0.4L448.2,155.8L448.2,155.8z M445.6,155.8l2-2c0.1-0.1,0.1-0.3,0-0.4l-2-2
			c-0.1-0.1-0.3-0.1-0.4,0s-0.1,0.3,0,0.4l1.8,1.8l-1.8,1.8c-0.1,0.1-0.1,0.3,0,0.4C445.3,156,445.5,156,445.6,155.8L445.6,155.8z
			 M442.9,155.8l2-2c0.1-0.1,0.1-0.3,0-0.4l-2-2c-0.1-0.1-0.3-0.1-0.4,0s-0.1,0.3,0,0.4l1.8,1.8l-1.8,1.8c-0.1,0.1-0.1,0.3,0,0.4
			C442.6,156,442.8,156,442.9,155.8z"/>
		<path class="st2" d="M312.3,32.6c0.1-0.1,0.3-0.1,0.4,0s0.1,0.3,0,0.4l-1.8,1.8l1.8,1.8c0.1,0.1,0.1,0.3,0,0.4
			c-0.1,0.1-0.3,0.1-0.4,0l-2-2c-0.1-0.1-0.1-0.3,0-0.4L312.3,32.6L312.3,32.6z M315.4,36.6l-1.8-1.8l1.8-1.8c0.1-0.1,0.1-0.3,0-0.4
			c-0.1-0.1-0.3-0.1-0.4,0l-2,2c-0.1,0.1-0.1,0.3,0,0.4l2,2c0.1,0.1,0.3,0.1,0.4,0S315.5,36.7,315.4,36.6L315.4,36.6z M304.4,32.6
			c0.1-0.1,0.3-0.1,0.4,0s0.1,0.3,0,0.4l-1.8,1.8l1.8,1.8c0.1,0.1,0.1,0.3,0,0.4c-0.1,0.1-0.3,0.1-0.4,0l-2-2
			c-0.1-0.1-0.1-0.3,0-0.4L304.4,32.6L304.4,32.6z M307,32.6l-2,2c-0.1,0.1-0.1,0.3,0,0.4l2,2c0.1,0.1,0.3,0.1,0.4,0s0.1-0.3,0-0.4
			l-1.8-1.8l1.8-1.8c0.1-0.1,0.1-0.3,0-0.4C307.4,32.5,307.2,32.5,307,32.6L307,32.6z M309.7,32.6l-2,2c-0.1,0.1-0.1,0.3,0,0.4l2,2
			c0.1,0.1,0.3,0.1,0.4,0s0.1-0.3,0-0.4l-1.8-1.8l1.8-1.8c0.1-0.1,0.1-0.3,0-0.4C310,32.5,309.8,32.5,309.7,32.6z"/>
		<g>
			<g>
				<path class="st3" d="M377.2,19.3c-0.1,0-0.2-0.1-0.2-0.2s0.1-0.2,0.2-0.2c0,0,1.9-0.1,1.8,3.8c0,0.7-0.1,1.3-0.1,2
					c-0.1,2.7-0.2,4.5,0.7,5c0.4,0.2,1.4-1.3,2.4-3.2c0.3-0.5,0.6-1.1,0.9-1.6c0.9-1.7,1.8-3.4,2.6-4.4c1.2-1.4,1.6-0.9,1.7,0.5
					c0.1,1.1-0.2,3-0.4,4.8c-0.3,2-0.5,3.9-0.6,5.5c0,1.3,0,2.4,0.3,2.9c0.2,0.5,0.5,0.6,0.9,0.1c0.6-0.7,1.3-2.2,2.5-4.9
					c1.4-3.3,4.4-10.3,6.6-15.5c1.5-3.4,2.6-6.1,2.8-6.2c0.4-0.5,1-0.4,1-0.4c0.1,0,0.2,0.1,0.2,0.2s-0.1,0.2-0.2,0.2
					c0,0-0.5,0-0.7,0.3c-0.1,0.1-1.2,2.7-2.7,6.2c-2.2,5.2-5.2,12.2-6.6,15.5c-1.2,2.7-1.9,4.3-2.5,5c-0.7,0.9-1.2,0.7-1.5-0.1
					c-0.3-0.6-0.4-1.7-0.3-3.1c0-1.6,0.3-3.6,0.6-5.6c0.3-1.8,0.5-3.7,0.4-4.8c-0.1-0.9-0.3-1.1-1.1-0.2c-0.7,0.9-1.6,2.6-2.5,4.3
					c-0.3,0.6-0.6,1.1-0.9,1.6c-1.1,2.1-2.2,3.7-2.9,3.3c-1.1-0.6-1-2.5-0.9-5.3c0-0.6,0.1-1.3,0.1-2
					C378.7,19.2,377.2,19.3,377.2,19.3z"/>
				<path class="st3" d="M414.1,29.1c0.1,0.1,0.1,0.2,0,0.3c-0.1,0.1-0.2,0.1-0.2,0c0,0-1.2-0.9-3,2.3c-0.3,0.6-0.6,1.2-0.9,1.7
					c-1.3,2.5-2.2,4.2-3.5,4.1c-0.8,0-0.9-2-0.8-4.3c0-0.5,0-1.2,0.1-1.8c0.1-1.9,0.2-3.8,0-5c-0.2-1.1-0.6-1-1-0.3
					c-0.6,0.9-1.4,2.6-2.1,4.3c-0.8,1.8-1.6,3.7-2.4,5.1c-0.7,1.2-1.3,2.1-1.9,2.5c-0.7,0.5-1.2,0.4-1.4-0.7c-0.1-0.9,0-2.6,0.4-5.6
					c0.5-3.5,1.5-11.1,2.3-16.7c0.5-3.7,0.8-6.5,0.8-6.7c-0.1-0.4-0.5-0.6-0.5-0.6c-0.1,0-0.1-0.2-0.1-0.2c0-0.1,0.2-0.1,0.2-0.1
					s0.6,0.3,0.7,0.9c0,0.2-0.3,3.1-0.8,6.8c-0.7,5.6-1.8,13.2-2.3,16.7c-0.4,2.9-0.5,4.6-0.4,5.5c0.1,0.7,0.4,0.7,0.8,0.4
					c0.5-0.4,1.1-1.2,1.8-2.4c0.8-1.4,1.6-3.2,2.4-5c0.7-1.7,1.5-3.4,2.1-4.4c0.8-1.2,1.4-1.3,1.7,0.5c0.2,1.2,0.1,3.1,0,5.1
					c0,0.6-0.1,1.2-0.1,1.8c-0.1,2.2-0.1,3.9,0.5,4c1,0,1.9-1.6,3.1-3.9c0.3-0.5,0.6-1.1,0.9-1.7C412.5,28,414.1,29.1,414.1,29.1z"
					/>
				<path class="st3" d="M400.5,5.7c0-0.1,0.2-0.2,0.3-0.2c0.1,0,0.2,0.2,0.2,0.3l-9.2,33.4c0,0.1-0.2,0.2-0.3,0.2
					c-0.1,0-0.2-0.2-0.2-0.3L400.5,5.7z"/>
				<path class="st3" d="M412.7,33.7c0.1,0,0.2,0.2,0.2,0.3s-0.2,0.2-0.3,0.2L375.9,24c-0.1,0-0.2-0.2-0.2-0.3
					c0-0.1,0.2-0.2,0.3-0.2L412.7,33.7z"/>
				<path class="st3" d="M386.5,25.9v-0.1l-2-3.5l-0.1,0.1L386.5,25.9L386.5,25.9L386.5,25.9z M386.5,25.6l-1.9-3.4l0.1-0.1l1.9,3.3
					L386.5,25.6L386.5,25.6z M386.6,25.1l-1.8-3.2l0.1-0.1l1.8,3.1L386.6,25.1L386.6,25.1z M386.7,24.7l-1.7-3.1l0.1-0.1l1.7,3
					L386.7,24.7L386.7,24.7z M386.7,24.2l-1.6-2.9l0.1-0.1l1.6,2.8L386.7,24.2L386.7,24.2z M386.8,23.8l-1.5-2.7l0.1-0.1l1.4,2.5
					V23.8L386.8,23.8z M386.8,23.3l-1.4-2.4l0.1-0.1l0,0l1.3,2.3V23.3L386.8,23.3z M386.9,22.8c0-0.1,0-0.2,0-0.2l-1.2-2l-0.1,0.1
					L386.9,22.8L386.9,22.8z M386.9,22.4c0-0.1,0-0.2,0-0.3l-1-1.8l-0.1,0.1L386.9,22.4L386.9,22.4z M386.9,21.8c0-0.1,0-0.2,0-0.3
					l-0.8-1.4l-0.1,0.1L386.9,21.8L386.9,21.8z M386.9,21.3c0-0.1,0-0.2,0-0.3l-0.5-0.9h-0.1L386.9,21.3L386.9,21.3z M386.9,20.6
					l-0.3-0.5C386.7,20.2,386.8,20.3,386.9,20.6L386.9,20.6z M384.4,22.5l2.1,3.7v0.2l-2.1-3.7V22.5L384.4,22.5z M384.2,22.8
					l2.2,3.8l0,0h-0.1L384.2,22.8L384.2,22.8L384.2,22.8z M384,23.1l2,3.5l-0.2-0.1l-1.9-3.3L384,23.1L384,23.1z M383.9,23.4
					l1.8,3.1l-0.2-0.1l-1.7-2.9L383.9,23.4L383.9,23.4z M383.7,23.7l1.6,2.8l-0.2-0.1l-1.5-2.6L383.7,23.7L383.7,23.7z M383.6,23.9
					l1.3,2.4l-0.2-0.1l-1.2-2.2L383.6,23.9L383.6,23.9z M383.4,24.2l1.1,2l-0.2-0.1l-1-1.8L383.4,24.2L383.4,24.2z M383.3,24.5
					l0.9,1.6L384,26l-0.8-1.4L383.3,24.5L383.3,24.5z M383.1,24.8l0.7,1.2l-0.2-0.1l-0.6-1L383.1,24.8L383.1,24.8z M383,25.1
					l-0.1,0.1l0.4,0.6l0.2,0.1L383,25.1L383,25.1z M382.8,25.3l-0.1,0.1l0.1,0.3l0.2,0.1L382.8,25.3L382.8,25.3z M382.7,25.6
					L382.7,25.6L382.7,25.6L382.7,25.6z"/>
				<path class="st3" d="M402.5,30.3l0.1-0.1l3.5-2v0.2L402.5,30.3L402.5,30.3L402.5,30.3z M402.7,30l3.4-1.9v-0.2l-3.3,1.9
					L402.7,30L402.7,30z M402.8,29.6l3.2-1.8v-0.2l-3.2,1.8V29.6L402.8,29.6z M403,29.2l3.1-1.7v-0.2l-3,1.7L403,29.2L403,29.2z
					 M403.2,28.8l2.9-1.6c0-0.1,0-0.1,0-0.2l-2.8,1.6L403.2,28.8L403.2,28.8z M403.4,28.4l2.7-1.5c0-0.1,0-0.1,0-0.1l-2.5,1.4
					L403.4,28.4L403.4,28.4z M403.6,27.9l2.4-1.4v-0.1l0,0l-2.3,1.3L403.6,27.9L403.6,27.9z M403.8,27.5c0-0.1,0.1-0.1,0.1-0.2
					l2-1.2v0.1L403.8,27.5L403.8,27.5z M404,27.1c0-0.1,0.1-0.1,0.1-0.2l1.8-1V26L404,27.1L404,27.1z M404.2,26.6
					c0-0.1,0.1-0.2,0.1-0.2l1.4-0.8c0,0,0,0.1,0.1,0.1L404.2,26.6L404.2,26.6z M404.5,26.2c0.1-0.1,0.1-0.2,0.2-0.3l0.9-0.5l0.1,0.1
					L404.5,26.2L404.5,26.2z M404.9,25.6l0.5-0.3C405.3,25.3,405.1,25.4,404.9,25.6L404.9,25.6z M406.1,28.5l-3.7,2.1l-0.1,0.2
					l3.7-2.1L406.1,28.5L406.1,28.5z M406.1,28.9l-3.8,2.2l0,0h0.1l3.7-2.1L406.1,28.9L406.1,28.9z M406.1,29.2l-3.5,2l0.2,0.1
					l3.3-1.9V29.2L406.1,29.2z M406,29.5l-3.1,1.8l0.2,0.1l2.9-1.7V29.5L406,29.5z M406,29.8l-2.8,1.6l0.2,0.1L406,30V29.8L406,29.8
					z M406,30.1l-2.4,1.3l0.2,0.1l2.2-1.2L406,30.1L406,30.1z M406,30.4l-2,1.1l0.2,0.1l1.8-1V30.4L406,30.4z M406,30.8l-1.6,0.9
					l0.2,0.1L406,31V30.8L406,30.8z M406,31.1l-1.2,0.7l0.2,0.1l1-0.6V31.1L406,31.1z M406,31.4v0.2l-0.6,0.4l-0.2-0.1L406,31.4
					L406,31.4z M405.9,31.7v0.2l-0.3,0.1l-0.2-0.1L405.9,31.7L405.9,31.7z M405.9,32L405.9,32L405.9,32L405.9,32z"/>
			</g>
			<g class="st4">
				<path class="st5" d="M324.1,42l13.6-3.3c0.1,0,0.2,0,0.3,0.2l2,14.6c0,0.1-0.1,0.2-0.2,0.3L326.1,57c-0.1,0-0.2,0-0.3-0.2
					l-2-14.6C323.9,42.2,324,42.1,324.1,42L324.1,42z M337.6,39.2l-13.2,3.2l1.9,14.1l13.2-3.2L337.6,39.2z"/>
				<path class="st5" d="M323.9,42.4l-6.8-2.2l1.9,14.1l6.8,2.2L323.9,42.4L323.9,42.4z M316.9,39.7l7.3,2.4c0.1,0,0.2,0.1,0.2,0.2
					l2,14.6V57c0,0.1-0.2,0.2-0.3,0.1l-7.3-2.4c-0.1,0-0.2-0.1-0.2-0.2l-2-14.6v-0.1C316.6,39.7,316.8,39.6,316.9,39.7z"/>
				<path class="st5" d="M316.9,40.1c-0.1,0-0.2,0-0.3-0.2c0-0.1,0-0.2,0.2-0.3l13-3.7h0.1l7.9,2.7c0.1,0,0.2,0.2,0.1,0.3
					c0,0.1-0.2,0.2-0.3,0.1l-7.9-2.7L316.9,40.1z"/>
				<path class="st5" d="M318.7,54.3c-0.2,0-0.1,0.4,0.1,0.3l0.3-0.1c0.2,0,0.1-0.4-0.1-0.3L318.7,54.3L318.7,54.3z M339.7,53.7
					c0.2,0.1,0.3-0.3,0.1-0.3l-0.2-0.1c-0.2-0.1-0.3,0.3-0.1,0.3L339.7,53.7L339.7,53.7z M338.5,53.3c0.2,0.1,0.3-0.3,0.1-0.3
					l-0.3-0.1c-0.2-0.1-0.3,0.3-0.1,0.3L338.5,53.3L338.5,53.3z M337.2,52.8c0.2,0.1,0.3-0.3,0.1-0.3l-0.3-0.1
					c-0.2-0.1-0.3,0.3-0.1,0.3L337.2,52.8L337.2,52.8z M335.9,52.4c0.2,0.1,0.3-0.3,0.1-0.3l-0.3-0.1c-0.2-0.1-0.3,0.3-0.1,0.3
					L335.9,52.4L335.9,52.4z M334.7,51.9c0.2,0.1,0.3-0.3,0.1-0.3l-0.3-0.1c-0.2-0.1-0.3,0.3-0.1,0.3L334.7,51.9L334.7,51.9z
					 M333.4,51.5c0.2,0.1,0.3-0.3,0.1-0.3l-0.3-0.1c-0.2-0.1-0.3,0.3-0.1,0.3L333.4,51.5L333.4,51.5z M332.1,51.1
					c0.2,0.1,0.3-0.3,0.1-0.3l-0.3-0.1c-0.2-0.1-0.3,0.3-0.1,0.3L332.1,51.1L332.1,51.1z M330.9,51.2c0.2,0,0.1-0.4-0.1-0.3
					l-0.3,0.1c-0.2,0-0.1,0.4,0.1,0.3L330.9,51.2L330.9,51.2z M329.6,51.6c0.2,0,0.1-0.4-0.1-0.3l-0.3,0.1c-0.2,0-0.1,0.4,0.1,0.3
					L329.6,51.6L329.6,51.6z M328.3,51.9c0.2,0,0.1-0.4-0.1-0.3l-0.3,0.1c-0.2,0-0.1,0.4,0.1,0.3L328.3,51.9L328.3,51.9z M327,52.3
					c0.2,0,0.1-0.4-0.1-0.3l-0.3,0.1c-0.2,0-0.1,0.4,0.1,0.3L327,52.3L327,52.3z M325.7,52.7c0.2,0,0.1-0.4-0.1-0.3l-0.3,0.1
					c-0.2,0-0.1,0.4,0.1,0.3L325.7,52.7L325.7,52.7z M324.4,53c0.2,0,0.1-0.4-0.1-0.3l-0.3,0.1c-0.2,0-0.1,0.4,0.1,0.3L324.4,53
					L324.4,53z M323.1,53.4c0.2,0,0.1-0.4-0.1-0.3l-0.3,0.1c-0.2,0-0.1,0.4,0.1,0.3L323.1,53.4L323.1,53.4z M321.8,53.8
					c0.2,0,0.1-0.4-0.1-0.3l-0.3,0.1c-0.2,0-0.1,0.4,0.1,0.3L321.8,53.8L321.8,53.8z M320.5,54.1c0.2,0,0.1-0.4-0.1-0.3l-0.3,0.1
					c-0.2,0-0.1,0.4,0.1,0.3L320.5,54.1z"/>
				<path class="st5" d="M330,36.2c0-0.1-0.2-0.2-0.3-0.1v0.1v0.3c0,0.1,0.2,0.2,0.3,0.1v-0.1V36.2L330,36.2z M331.5,50
					c0,0.2,0.3,0.2,0.3,0l0,0v-0.3c0-0.2-0.3-0.2-0.3,0l0,0V50L331.5,50z M331.3,48.7c0,0.1,0.2,0.2,0.3,0.1v-0.1v-0.3
					c0-0.1-0.2-0.2-0.3-0.1v0.1V48.7L331.3,48.7z M331.2,47.3c0,0.1,0.2,0.2,0.3,0.1v-0.1V47c0-0.1-0.2-0.2-0.3-0.1V47V47.3
					L331.2,47.3z M331,46c0,0.1,0.2,0.2,0.3,0.1V46v-0.3c0-0.1-0.2-0.2-0.3-0.1v0.1V46L331,46z M330.8,44.6c0,0.1,0.2,0.2,0.3,0.1
					v-0.1v-0.3c0-0.1-0.2-0.2-0.3-0.1v0.1V44.6L330.8,44.6z M330.6,43.3c0,0.1,0.2,0.2,0.3,0.1v-0.1V43c0-0.1-0.2-0.2-0.3-0.1V43
					V43.3L330.6,43.3z M330.4,42c0,0.1,0.2,0.2,0.3,0.1V42v-0.3c0-0.1-0.2-0.2-0.3-0.1v0.1V42L330.4,42z M330.3,40.6
					c0,0.1,0.2,0.2,0.3,0.1v-0.1v-0.3c0-0.1-0.2-0.2-0.3-0.1v0.1V40.6L330.3,40.6z M330.1,39.3c0,0.1,0.2,0.2,0.3,0.1v-0.1V39
					c0-0.1-0.2-0.2-0.3-0.1V39V39.3L330.1,39.3z M329.9,37.9c0,0.1,0.2,0.2,0.3,0.1v-0.1v-0.3c0-0.1-0.2-0.2-0.3-0.1v0.1V37.9z"/>
			</g>
			<path class="st3" d="M429,60L429,60c0.1-0.1,0.2-0.1,0.2-0.1c2.1-1.1,20.2-10.5,21.9-11.4h0.1c0.2-0.1,0.3-0.1,0.4,0
				s0.1,0.2,0.1,0.3v0.1c-0.3,2.5-5.1,23.9-5.3,24.6l0,0l0,0c0,0.1-0.1,0.2-0.1,0.3c0,0.1-0.1,0.2-0.2,0.3c-0.7,0.8-2.3,0.8-4.3,0
				c-2-0.7-4.3-2.1-6.7-4c-2.4-1.9-4.3-3.9-5.5-5.6c-1.2-1.8-1.7-3.3-1-4.2C428.7,60.3,428.8,60.2,429,60
				C428.9,60.1,429,60.1,429,60L429,60z M445.9,73.4L446,73c0-0.1,0-0.2,0-0.2c0-0.1,0-0.2,0.1-0.2c0.9-3.9,4.5-20.4,5-23.5
				c-3.1,1.7-21.5,11.2-21.9,11.4l0,0c-0.1,0-0.1,0.1-0.2,0.2c-0.5,0.6-0.1,1.9,1,3.5c1.2,1.7,3,3.6,5.4,5.5
				c2.3,1.8,4.7,3.2,6.6,3.9c1.8,0.7,3.2,0.8,3.7,0.2c0-0.1,0.1-0.1,0.1-0.2C445.9,73.6,445.9,73.5,445.9,73.4L445.9,73.4
				L445.9,73.4z M445.6,71.7c0.1,0.3,0.5,0,0.4-0.2c-0.1-0.1-0.1-0.2-0.2-0.4c-0.1-0.2-0.5,0-0.4,0.2
				C445.5,71.5,445.6,71.6,445.6,71.7L445.6,71.7z M444.9,70.4c0.1,0.2,0.5,0,0.3-0.2c-0.1-0.1-0.2-0.2-0.2-0.3
				c-0.1-0.2-0.5,0-0.3,0.2C444.7,70.1,444.8,70.3,444.9,70.4L444.9,70.4z M443.9,69.1c0.2,0.2,0.5,0,0.3-0.3l-0.3-0.3
				c-0.2-0.2-0.5,0.1-0.3,0.3L443.9,69.1L443.9,69.1z M442.9,67.9c0.2,0.2,0.5-0.1,0.3-0.3l-0.3-0.3c-0.2-0.2-0.5,0.1-0.3,0.3
				L442.9,67.9L442.9,67.9z M441.8,66.8c0.2,0.2,0.5-0.1,0.3-0.3l-0.3-0.3c-0.2-0.2-0.5,0.1-0.3,0.3L441.8,66.8L441.8,66.8z
				 M440.6,65.7c0.2,0.2,0.5-0.2,0.3-0.3l-0.3-0.3c-0.2-0.2-0.5,0.2-0.3,0.3L440.6,65.7L440.6,65.7z M439.4,64.7
				c0.2,0.2,0.5-0.2,0.2-0.3l-0.3-0.2c-0.2-0.2-0.5,0.2-0.2,0.3L439.4,64.7L439.4,64.7z M438.1,63.8c0.2,0.1,0.5-0.1,0.2-0.3
				c-0.1-0.1-0.2-0.2-0.3-0.2c-0.2-0.2-0.4,0.2-0.2,0.3L438.1,63.8L438.1,63.8z M436.8,62.9c0.2,0.1,0.4-0.2,0.2-0.3
				c-0.1-0.1-0.2-0.1-0.3-0.2c-0.2-0.1-0.4,0.2-0.2,0.3C436.6,62.7,436.7,62.8,436.8,62.9L436.8,62.9z M435.4,62.1
				c0.2,0.1,0.4-0.2,0.2-0.3c-0.1-0.1-0.2-0.1-0.4-0.2c-0.2-0.1-0.4,0.2-0.2,0.4C435.2,61.9,435.3,62,435.4,62.1L435.4,62.1z
				 M434,61.3c0.2,0.1,0.4-0.2,0.2-0.4c-0.1-0.1-0.2-0.1-0.4-0.2c-0.2-0.1-0.4,0.2-0.2,0.4C433.8,61.2,433.9,61.3,434,61.3L434,61.3
				z M432.6,60.7c0.2,0.1,0.4-0.3,0.1-0.4c-0.1,0-0.3-0.1-0.4-0.1c-0.2-0.1-0.4,0.3-0.1,0.4C432.3,60.6,432.4,60.7,432.6,60.7
				L432.6,60.7z M431.1,60.3c0.3,0,0.3-0.4,0.1-0.4c-0.1,0-0.3,0-0.4-0.1c-0.3,0-0.3,0.4,0,0.4C430.8,60.2,430.9,60.3,431.1,60.3z"
				/>
			<path class="st3" d="M302.4,80l0.7,1.1c-0.3,0.2-0.5,0.4-0.7,0.5c-0.4,0.3-0.5,0.6-0.5,0.9s0.2,0.6,0.5,1l6.8,7.5
				c0.6,0,1.6,0.1,2.9,0.4v1.3c-0.4-0.1-1-0.2-1.9-0.3c0.4,1,0.2,1.8-0.6,2.6c-1.2,1.1-2.3,1.1-3.3-0.1c-0.4-0.5-0.6-1-0.6-1.6
				s0.3-1.1,0.8-1.5c0.3-0.2,0.6-0.4,0.9-0.6l-6.2-6.8c-0.6-0.7-0.9-1.3-0.9-1.9s0.3-1.2,1-1.8C301.6,80.6,302,80.3,302.4,80
				L302.4,80z M308.5,92.5c-0.5,0.1-0.8,0.2-1.1,0.4c-0.2,0.2-0.3,0.4-0.3,0.6s0.1,0.4,0.2,0.6c0.4,0.5,0.9,0.5,1.4,0
				C309.2,93.7,309.1,93.2,308.5,92.5z"/>
			<path class="st3" d="M385.9,175.7l-1-7.5c-0.2-1.7-0.1-3,0.5-3.9s1.5-1.4,2.7-1.6c1.3-0.2,2.3,0.1,3.2,0.9
				c0.9,0.8,1.4,1.8,1.6,3.2s0,2.5-0.6,3.5s-1.5,1.5-2.7,1.7c-1.1,0.1-2-0.1-2.7-0.7l0.6,4.2L385.9,175.7L385.9,175.7z M388.3,164
				c-0.7,0.1-1.3,0.5-1.6,1.1c-0.4,0.6-0.5,1.5-0.3,2.7c0.1,1.1,0.5,1.9,1,2.4s1.1,0.7,1.9,0.6c0.8-0.1,1.3-0.5,1.7-1.1
				c0.4-0.6,0.5-1.5,0.4-2.6c-0.2-1.2-0.5-2.1-1.1-2.5C389.6,164.1,389,163.9,388.3,164z"/>
			<path class="st3" d="M455,83.2l1.3-0.8c0.3,1.3,0.8,2.7,1.5,4.4c1.5,1.6,2.6,2.7,3.3,3.2l-1.3,0.8c-0.5-0.3-0.9-0.7-1.3-1.1
				c0.3,1.3-0.2,2.3-1.5,3.1c-0.9,0.6-1.9,0.7-3,0.4c-1-0.3-1.9-1.1-2.7-2.3c-0.8-1.2-1.1-2.4-1-3.4s0.7-1.9,1.7-2.5
				c0.6-0.4,1.1-0.6,1.7-0.6c0.5,0,1.1,0.1,1.7,0.4C455.4,84.6,455.3,84.1,455,83.2L455,83.2z M452.9,85.8c-0.6,0.4-0.9,0.9-1,1.6
				c0,0.7,0.2,1.5,0.8,2.5c0.6,0.9,1.2,1.5,1.8,1.8c0.7,0.3,1.3,0.3,1.9-0.1s0.9-0.9,1-1.7c0.1-0.8-0.2-1.6-0.8-2.6
				c-0.6-0.9-1.2-1.5-1.9-1.8C454.2,85.4,453.5,85.4,452.9,85.8L452.9,85.8z M451.8,84l1.1-0.7l0.3-3l-1.7,1.1L451.8,84z"/>
			<path class="st3" d="M320.8,160.8l2.7,3.7l-1.2,0.9l-7-9.6c-0.6-0.8-0.9-1.4-1-2s0-1.2,0.3-1.8s0.8-1.2,1.4-1.6
				c0.9-0.7,1.8-0.9,2.6-0.7c0.8,0.2,1.5,0.6,2,1.2c0.4,0.6,0.6,1.2,0.5,1.9c-0.1,0.6-0.4,1.2-0.8,1.6c0.8-0.5,1.7-0.7,2.4-0.5
				c0.8,0.2,1.4,0.6,2,1.3c0.6,0.8,0.8,1.6,0.7,2.6c-0.1,1-0.6,1.8-1.5,2.5C322.8,160.9,321.8,161.1,320.8,160.8L320.8,160.8z
				 M318.2,155.1c0.8-0.6,1.3-1.2,1.5-1.8s0.1-1.1-0.3-1.7c-0.3-0.4-0.8-0.7-1.3-0.8s-1,0.1-1.5,0.4c-0.4,0.3-0.7,0.7-0.8,1.1
				c-0.1,0.4-0.2,0.8,0,1.2c0.1,0.3,0.4,0.8,0.9,1.5l2,2.7c0.6,0.8,1,1.3,1.4,1.6s0.9,0.4,1.4,0.5c0.6,0,1.1-0.1,1.6-0.5
				c0.6-0.4,0.9-0.9,0.9-1.6c0-0.6-0.1-1.2-0.6-1.8c-0.3-0.5-0.8-0.8-1.3-1s-1-0.2-1.5-0.1c-0.5,0.1-1,0.4-1.6,0.8l-0.2,0.1
				L318.2,155.1z"/>
			<polygon class="st3" points="455.6,119.4 452.3,126.4 451,125.7 454.2,118.7 452.1,117.7 452.6,116.6 462.7,121.3 462.2,122.5 
				460.3,121.6 457.1,128.6 455.7,127.9 458.9,121 			"/>
			<path class="st3" d="M430.7,33.4l4.3-2.5l0.7,1.1l-4.6,2.7c-0.4,0.2-0.8,0.3-1.2,0.2c-0.4-0.1-0.7-0.3-1-0.8
				c-0.2-0.4-0.3-1-0.1-1.8c0.2-0.8,0.5-1.7,0.8-2.6c0.3-1,0.5-1.9,0.6-2.8s-0.1-1.6-0.5-2.2c-0.3-0.5-0.7-0.8-1.2-0.9s-1,0-1.5,0.3
				s-0.8,0.6-1,1.1s-0.2,1,0,1.5l-1.3,0.5c-0.3-0.9-0.3-1.7,0-2.5c0.3-0.7,0.8-1.3,1.6-1.8c0.9-0.5,1.8-0.7,2.7-0.6
				c0.9,0.2,1.5,0.7,2,1.5s0.7,1.8,0.6,2.9s-0.4,2.4-1,3.8c-0.5,1.4-0.7,2.3-0.5,2.7c0.1,0.1,0.2,0.2,0.3,0.2
				C430.5,33.5,430.6,33.5,430.7,33.4z"/>
			<path class="st3" d="M352.8,34.7l0.3-10.2l1.3-0.5l6.8,7.7L352.8,34.7L352.8,34.7z M354,33l5-1.8l-3.7-4.4
				c-0.6-0.7-1-1.2-1.3-1.6c0.1,0.6,0.1,1.2,0.1,1.9L354,33z"/>
		</g>
		<g>
			<g>
				<path class="st6" d="M462.2,88.3c-8.2-5.7-13.1-9.6-21.4-15.3c-0.2-0.2-0.7-0.5-1.3-0.9l0,0c-0.6-0.4-1.4-1-2.1-1.5l-0.1-0.1
					c-0.1-0.1-0.3-0.2-0.4-0.3l-0.1-0.1c-0.2-0.1-0.3-0.2-0.5-0.3c0,0-0.1,0-0.1-0.1c-0.1-0.1-0.3-0.2-0.4-0.3l-0.1-0.1
					c-0.1-0.1-0.2-0.1-0.3-0.2l-0.1-0.1c-0.1-0.1-0.3-0.2-0.4-0.2l0,0c-0.1-0.1-0.2-0.1-0.3-0.2h-0.1c-0.1,0-0.1-0.1-0.2-0.1
					c0,0,0,0-0.1,0s-0.1-0.1-0.1-0.1H434l0,0c0,0,0,0-0.1,0s-0.1,0-0.2,0h-0.1h-0.1l0,0l0,0h-0.1c-0.1,0-0.1,0-0.2,0s-0.1,0-0.2,0
					s-0.1,0-0.2,0s-0.1,0-0.2,0.1c-0.1,0-0.1,0-0.2,0.1c-0.1,0-0.1,0.1-0.2,0.1s-0.1,0-0.2,0.1c-0.1,0-0.1,0.1-0.2,0.1l-0.1,0.1
					c-0.1,0-0.1,0.1-0.2,0.1l-0.1,0.1c-0.1,0-0.1,0.1-0.2,0.1l-0.1,0.1c-0.1,0.1-0.1,0.1-0.1,0.2l-0.1,0.1c0,0.1-0.1,0.1-0.1,0.2
					l-0.1,0.1c0,0.1-0.1,0.1-0.1,0.2l-0.1,0.1c-0.1,0.1-0.1,0.1-0.2,0.2l-0.1,0.1c-0.1,0.1-0.1,0.2-0.2,0.3c0,0,0,0.1-0.1,0.1
					c-0.1,0.1-0.1,0.2-0.2,0.3l-0.1,0.1c0,0.1-0.1,0.1-0.1,0.2c-0.1,0.1-0.1,0.2-0.2,0.3c-1.1,1.5-2.2,3-3.3,4.6
					c-1.5,2-2.9,4.1-4.4,6.2L433.2,48c0-0.1,0-0.2,0-0.2s0,0,0-0.1s0-0.2,0-0.2l0,0c0-0.1-0.1-0.1-0.1-0.2l0,0
					c0-0.1-0.1-0.1-0.1-0.2l0,0c0,0-0.1,0-0.1-0.1c0,0,0,0-0.1,0c0,0-0.1-0.1-0.2-0.1l-7.5-2.5c-0.5-0.2-1,0.1-1.1,0.6l-0.2,0.7l0,0
					l-0.1,0.3l0,0l-0.3,1l0,0l-0.1,0.3l0,0l-0.3,1l0,0l-0.1,0.3l0,0l-0.3,1l0,0l-0.1,0.3l0,0l-0.3,1l0,0l-0.1,0.2l-0.4,1.2l0,0
					l-0.1,0.3l0,0l-0.3,1l0,0L421,54l0,0l-0.3,1l0,0l-0.1,0.3l-0.4,1.1l0,0l-0.1,0.3l0,0l-0.3,1l0,0l-0.1,0.3l0,0l-0.4,1.1l-0.1,0.2
					l0,0l-0.3,1l0,0l-0.1,0.3l0,0l-0.3,1l0,0v0.2L418,63l0,0l-0.1,0.3l0,0l-0.3,1l0,0l-0.1,0.3l0,0l-0.8,2.4l0,0l-0.1,0.3l0,0
					l-0.3,1l0,0l-0.1,0.3l0,0l-0.4,1.1l-0.1,0.2l0,0l-0.4,1.1l-0.1,0.2l0,0l-0.3,1l0,0v0.1l-0.4,1.2l0,0l-0.1,0.3l0,0l-0.3,1l0,0
					l-0.1,0.3l0,0l-0.3,1l0,0l-0.1,0.2l-0.2,0.7c-0.1-0.2-0.1-0.4-0.2-0.6s-0.1-0.4-0.2-0.6c-0.1-0.4-0.3-0.8-0.5-1.3
					c-0.1-0.2-0.1-0.4-0.2-0.5c-0.2-0.6-0.5-1.2-0.7-1.7v-0.1c-0.2-0.5-0.5-1.1-0.8-1.6c-0.1-0.2-0.2-0.3-0.3-0.5
					c-0.1-0.1-0.1-0.2-0.2-0.3l0,0c0-0.1,0-0.1,0-0.2c0-0.2,0-0.3,0-0.5c0-0.1,0-0.1,0-0.2c0-0.2,0-0.3,0-0.5c0-0.1,0-0.2,0-0.2
					c0-0.2,0-0.4,0-0.6c0-0.1,0-0.2,0-0.3c0-0.2,0-0.4,0-0.6c0-0.1,0-0.2,0-0.3c0-0.1,0-0.2,0-0.3l0,0c-0.4-6-1.5-14.5-3.2-19.2l0,0
					c-0.1-0.2-0.1-0.3-0.2-0.4v-0.1c-0.1-0.2-0.1-0.3-0.2-0.5v-0.1c-0.1-0.2-0.2-0.3-0.2-0.5c0,0,0-0.1-0.1-0.1
					c-0.1-0.1-0.2-0.3-0.2-0.4c0,0,0,0,0-0.1c-0.1-0.1-0.2-0.3-0.3-0.4c0,0-0.2,0-0.4-0.1l0,0c0.1,0,0.1,0,0.2,0s0.2,0.1,0.2,0.1
					c-0.2-0.3-0.4-0.5-0.7-0.6c-0.2-0.1-0.5-0.3-0.7-0.4c-0.1,0-0.2-0.1-0.3-0.1c-0.2-0.1-0.3-0.2-0.5-0.3c-0.1-0.1-0.2-0.1-0.3-0.2
					c-0.2-0.1-0.3-0.2-0.5-0.2c-0.1-0.1-0.2-0.1-0.4-0.2c-0.2-0.1-0.3-0.1-0.5-0.2c-0.1-0.1-0.3-0.1-0.4-0.2
					c-0.2-0.1-0.3-0.1-0.5-0.2c-0.1,0-0.3-0.1-0.4-0.1c-0.2-0.1-0.3-0.1-0.5-0.2c-0.1,0-0.2-0.1-0.4-0.1c-0.2-0.1-0.4-0.1-0.5-0.2
					c-0.1,0-0.2-0.1-0.4-0.1c-0.2-0.1-0.4-0.1-0.5-0.2c-0.1,0-0.2,0-0.2-0.1l0,0c-2-0.5-3.7-0.8-4.6-0.5c-0.7,0.2-1.9,1.5-3.2,3.2
					c-0.9,1.2-1.8,2.5-2.6,3.6c0,0,0,0,0-0.1s0-0.1,0-0.2c0-0.1,0-0.2-0.1-0.4c0-0.1,0-0.1,0-0.2c0-0.1-0.1-0.2-0.1-0.3s0-0.1,0-0.2
					c0-0.1-0.1-0.2-0.1-0.3s0-0.1-0.1-0.2c0-0.1-0.1-0.2-0.1-0.3s-0.1-0.1-0.1-0.2c0-0.1-0.1-0.2-0.1-0.2c0-0.1-0.1-0.1-0.1-0.2l0,0
					l0,0c-1.3-2.2-11.8-7.1-15.1-1.9c-0.6,0.9-1,1.9-1.4,2.7l0,0l0,0c-0.1,0.2-0.2,0.5-0.2,0.7l0,0c-0.6-0.8-1.2-1.7-1.8-2.4
					c-1.3-1.6-2.5-3-3.2-3.2c-0.9-0.2-2.6,0-4.6,0.5l0,0c-0.1,0-0.2,0-0.3,0.1c-0.2,0-0.3,0.1-0.5,0.1c-0.1,0-0.2,0.1-0.4,0.1
					c-0.2,0.1-0.3,0.1-0.5,0.2c-0.1,0-0.3,0.1-0.4,0.1c-0.2,0.1-0.3,0.1-0.5,0.2c-0.1,0-0.3,0.1-0.4,0.1c-0.2,0.1-0.3,0.1-0.5,0.2
					c-0.1,0.1-0.3,0.1-0.4,0.2c-0.2,0.1-0.3,0.1-0.5,0.2c-0.1,0.1-0.2,0.1-0.4,0.2c-0.2,0.1-0.3,0.2-0.5,0.2
					c-0.1,0.1-0.2,0.1-0.3,0.2c-0.2,0.1-0.3,0.2-0.5,0.3c-0.1,0-0.2,0.1-0.3,0.1c-0.3,0.1-0.5,0.3-0.7,0.4c-0.2,0.1-0.4,0.3-0.7,0.6
					c0,0,0.2-0.1,0.4-0.1c-0.2,0-0.4,0.1-0.4,0.1c-0.1,0.1-0.2,0.2-0.3,0.4c0,0,0,0,0,0.1c-0.1,0.1-0.2,0.3-0.2,0.4
					c0,0,0,0.1-0.1,0.1c-0.1,0.1-0.2,0.3-0.2,0.5c0,0,0,0.1-0.1,0.1c-0.1,0.1-0.1,0.3-0.2,0.4c0,0.1,0,0.1-0.1,0.2
					c-0.1,0.1-0.1,0.3-0.2,0.4l0,0c-1.7,4.7-2.8,13.2-3.2,19.2l0,0c0,0.1,0,0.1,0,0.2s0,0.3,0,0.4s0,0.3,0,0.4s0,0.3,0,0.4
					s0,0.3,0,0.4s0,0.3,0,0.4s0,0.3,0,0.4s0,0.2,0,0.3c0,0.1,0,0.2,0,0.4c0,0.1,0,0.2,0,0.3c0,0.1,0,0.2,0,0.3v0.1
					c-0.3-0.1-0.5-0.1-0.8-0.1c-6.5-0.9-8.8,0.1-9.8,0.9c-0.9,0.8-1.3,0.7-1.7,0.8c-0.1,0-0.1,0-0.2,0.1l0,0
					c-0.7-0.3-1.6-0.8-2.7-1.3c-1.4-0.7-2.9-1.4-4.1-2c-2.5-7.4-8.1-23-9-24.9c0,0-0.6-0.9-1.4-1.3l5.6,25l-21.4-9.3
					c0.2,0.9,1,1.6,1,1.6c1.5,1.2,14.1,8.9,20.8,12.8c0.6,2.3,1.4,5.3,1.9,6.9l0,0l0,0c0,0.1-0.1,0.1-0.1,0.2c0,0,0,0.1,0,0.2v0.1
					c0,0,0,0,0,0.1v0.1c0,0,0,0,0,0.1c0,0,0,0.1-0.1,0.1c-0.1,0.3-0.3,0.6-0.7,1c-0.9,0.9-2.2,3.2-2.3,10.2
					c-0.2,10.5,8.6,13.8,12,10.9l0,0l0.1-0.1c0.1-0.1,0.2-0.2,0.2-0.2c0-0.1,0.1-0.1,0.1-0.2c0.1-0.1,0.1-0.2,0.2-0.3
					c0-0.1,0.1-0.1,0.1-0.2c0.1-0.1,0.1-0.2,0.2-0.3c0-0.1,0.1-0.1,0.1-0.2c0.1-0.2,0.1-0.4,0.2-0.6c0.7-3.1-4.7-18.9-6.2-21.2
					l-0.1-0.1c0,0,0,0-0.1,0H330h-0.1h-0.1h-0.1h-0.1c-0.2-0.9-0.4-2.4-0.1-3.3c0.1-0.3,0.2-0.5,0.2-0.7c0.8,0,1.2-0.3,2.2-0.5
					c0.9-0.1,2.2,0.3,3,0.6c0,0.4,0.1,0.6,0.2,0.7c1,1,5.3,3.8,9.6,6.1c-1.1,5.4-1.9,11.9-2.3,18.4l0,0l0,0c0,0.5-0.1,0.9-0.1,1.4
					v0.1c0,0.1,0,0.1,0,0.2c-1.9-0.1-3.7,0-4.1,0.6c-0.5,0.8-1.5,4.3-2.1,6.6c-0.1,0.4-0.2,0.7-0.3,1l0,0c0,0.1-0.1,0.2-0.1,0.3l0,0
					c0,0.1,0,0.1,0,0.2c0,0,0,0,0,0.1l0,0v0.1l0,0l0,0l0,0l0,0l0,0c0,0.1,0,0.1,0,0.1l0,0v0.1l0,0v0.1l0,0c0,0,0,0,0.1,0.1l0,0
					l0.1,0.1l0,0c0.1,0,0.1,0.1,0.2,0.1l0,0c0.1,0,0.1,0,0.2,0.1c0,0,0,0,0.1,0c-0.1,0.7-0.2,1.7-0.1,2.2c0,0,0,0.4,0,1.1
					l-13.9-13.9l-0.1-0.1l0,0c0,0-0.1,0-0.1-0.1c0,0,0,0-0.1,0H322c0,0,0,0-0.1,0h-0.1c0,0,0,0-0.1,0h-0.1c0,0,0,0-0.1,0h-0.1l0,0
					c-0.1,0-0.1,0-0.2,0.1l0,0c-0.1,0-0.1,0.1-0.2,0.1l-4.1,4.1l0,0l-17.5,17.5c-0.3,0.3-0.4,0.9-0.1,1.2c0,0.1,0.1,0.1,0.1,0.2
					l28,28c0.1,0.1,0.2,0.2,0.3,0.2l0,0l0,0c0.1,0,0.2,0,0.2,0.1c0,0,0,0,0.1,0s0.2,0,0.2,0l0,0c0.1,0,0.2,0,0.2-0.1c0,0,0,0,0.1,0
					s0.1-0.1,0.2-0.2l14.1-14.1c1.3,2.9,3.4,5.4,6.1,7L331,156.5l0,0l0,0l0,0l0,0c0,0,0,0.1-0.1,0.1l0,0l-0.1,0.1l0,0l-0.1,0.1
					c0,0,0,0,0,0.1l-0.1,0.1v0.1l-0.1,0.1v0.1c0,0.1,0,0.1-0.1,0.2c0,0,0,0,0,0.1l0,0c-0.2,0.6-0.3,1.4,0.2,2.3l0.1,0.2l0,0l0,0
					l1.4,2.3v0.1c0.1,0.2,0.6,0.8,1.3,0.4l0.2-0.1l0.5,0.8l-0.4,0.2l0,0l0,0l0,0c-0.1,0-0.3,0.1-0.5,0.3l0,0
					c-0.1,0.1-0.2,0.2-0.2,0.4l0,0c0,0.1,0,0.1,0,0.2l0,0c0,0.1,0,0.2,0.1,0.3l0.6,1.8l0,0c0,0,0.2,0.5,0.8,0.3l30.6-10.8l0,0l0,0
					l0,0c0,0,0,0,0.1,0l0,0c0,0,0,0,0.1,0l0,0c0,0,0,0,0.1,0l0,0c0,0,0,0,0-0.1c0,0,0,0,0-0.1c0,0,0,0,0-0.1c0,0,0,0,0-0.1v-0.1
					v-0.1l0,0l0,0v-0.1l-0.4-1.1l0,0l-0.3-0.9l0,0c0,0-0.3-0.7-0.9-0.4l-19.7,6.9l17-11.2l-0.3-0.6l0,0L360,147h0.2h39.4h0.6h2.2
					c7.4,0,13.6-5.2,15.3-12.1c0.5,0,1-0.2,1.4-0.4c0.2-0.1,0.5-0.2,0.7-0.3c0,0,0,0,0.1,0c0.2-0.1,0.5-0.2,0.7-0.4c0,0,0,0,0.1,0
					l0,0c0.5-0.3,1-0.6,1.6-1c1.6,1.2,3.3,2.4,5,3.6c0.6,0.4,1.2,0.9,1.8,1.3c0,0,0.1,0,0.1,0.1c-0.4,0.1-0.6,0.3-0.5,0.5
					c-0.4,0.8-4.7,17.4-5.7,21.4c-0.3,1.1-0.3,1.6,0.5,2.3c0.3,0.3,0.6,0.5,0.9,0.8l0,0l0.1,0.1c0.2,0.2,0.4,0.3,0.6,0.4
					c0.1,0.1,0.1,0.1,0.2,0.2c1.4,0.9,2.9,1.6,4.2,2.1l0,0l0,0c0.1,0.1,0.3,0.1,0.4,0.1s0.1,0,0.2,0.1c0.2,0.1,0.4,0.1,0.6,0.2l0,0
					l0,0c0.4,0.1,0.8,0.2,1.2,0.3l0,0c0.1,0,0.2,0,0.3,0c0,0,0,0,0.1,0s0.2,0,0.3,0c0,0,0,0,0.1,0s0.2,0,0.3,0c1,0,1.5-0.5,1.8-0.8
					c0.2-0.2,0.2-0.4,0.2-0.4l10-20.8c0.2-0.2,0-0.4-0.4-0.8c-0.6-0.6-1.4-1.1-2.2-1.7l2.8-7.2c0.1-0.1,0.1-0.3,0.1-0.4
					c0-0.4-0.3-0.8-0.7-0.9c-0.3-0.1-0.5-0.1-0.8,0l0,0c-0.2,0.1-0.4,0.3-0.5,0.6l-2.7,6.9c-0.4-0.2-0.7-0.4-1.1-0.5l2.1-5.3
					c0.1-0.3,0-0.7-0.4-0.9c-0.1,0-0.2,0-0.2,0l0,0c-0.1,0-0.2,0-0.2,0.1l0,0l0,0c-0.2,0.1-0.3,0.2-0.4,0.4l-2.1,5.3
					c-0.3-0.1-0.5-0.2-0.8-0.3l4.2-10.8c0.2-0.4,0.1-0.9,0-1.2c0.1,0,0.3-0.1,0.4-0.2c0.1-0.2,0.1-0.5-0.1-0.6l-1.3-0.9
					c0.4-0.6,0.8-1.2,1.3-1.8l1.3,0.9c0.2,0.1,0.5,0.1,0.6-0.1s0.1-0.5-0.1-0.6l-1.3-0.9c0.4-0.6,0.8-1.2,1.3-1.8l1.3,0.9
					c0.2,0.1,0.5,0.1,0.6-0.1s0.1-0.5-0.1-0.6l-1.3-0.9c0.4-0.6,0.8-1.2,1.3-1.8l1.3,0.9c0.2,0.1,0.5,0.1,0.6-0.1s0.1-0.5-0.1-0.6
					l-1.3-1c0.4-0.6,0.8-1.2,1.3-1.8l1.4,1c0.2,0.1,0.5,0.1,0.6-0.1s0.1-0.5-0.1-0.6l-1.4-1c0.4-0.6,0.8-1.2,1.3-1.8l1.4,1
					c0.2,0.1,0.5,0.1,0.6-0.1s0.1-0.5-0.1-0.6l-1.4-1c0.4-0.6,0.8-1.2,1.3-1.8l1.4,1c0.2,0.1,0.5,0.1,0.6-0.1s0.1-0.5-0.1-0.6
					l-1.4-1c0.4-0.6,0.8-1.2,1.3-1.8l1.4,1c0.2,0.1,0.5,0.1,0.6-0.1s0.1-0.5-0.1-0.6l-1.4-1c0.4-0.6,0.8-1.2,1.3-1.8l1.4,1
					c0.2,0.1,0.5,0.1,0.6-0.1s0.1-0.5-0.1-0.6l-1.4-1c0.4-0.6,0.8-1.2,1.3-1.8l1.4,1c0.2,0.1,0.5,0.1,0.6-0.1s0.1-0.5-0.1-0.6
					l-1.4-1c0.4-0.6,0.9-1.2,1.3-1.8l1.4,1c0.2,0.1,0.5,0.1,0.6-0.1s0.1-0.5-0.1-0.6l-1.4-1c0.4-0.6,0.9-1.2,1.3-1.8l1.4,1
					c0.2,0.1,0.5,0.1,0.6-0.1s0.1-0.5-0.1-0.6l-1.4-1c0.4-0.6,0.9-1.2,1.3-1.8l1.4,1c0.2,0.1,0.5,0.1,0.6-0.1s0.1-0.5-0.1-0.6
					l-1.4-1c0.7-0.9,1.3-1.8,1.9-2.6C465.2,90.8,464,89.5,462.2,88.3z M360.4,56.3c-1.5,1.1-2.9,2.2-4.3,3.5c0-0.3,0-0.6,0-0.9
					c0.2-4,0.8-6.7,1.6-8.5c0.3,0.5,0.5,1,0.8,1.6C359.2,53.3,359.8,54.8,360.4,56.3z M374.5,44.4c1.1-0.9,10.7-0.7,11.3,2.4
					c0,0.2,0.1,0.4,0.1,0.6c0.1,1.4-0.5,2.6-1.2,3.4c-1.7-0.3-3.4-0.4-5.2-0.4c-2.3,0-4.5,0.2-6.7,0.7l0.2-0.3c0,0-0.6-0.9-1.4-2.1
					C372.4,46.5,373.8,44.9,374.5,44.4z M436.8,131L436.8,131c0-0.1,0-0.1,0.1-0.2L436.8,131z M435.2,133.3c0-0.1,0.1-0.2,0.1-0.3
					c0.3-0.4,0.6-0.9,1-1.3l0.2,0.1l-0.8,2.1l-0.5-0.4L435.2,133.3z M400.5,50.4c0.7,1.8,1.4,4.5,1.6,8.5c0,0.1,0,0.2,0,0.3
					c-0.3-0.2-0.6-0.5-0.8-0.7c-0.1-0.1-0.3-0.2-0.4-0.3c-0.3-0.3-0.7-0.5-1-0.8c-0.1-0.1-0.3-0.2-0.4-0.3c-0.4-0.3-0.7-0.5-1.1-0.8
					c-0.1-0.1-0.2-0.2-0.3-0.2c0,0,0,0-0.1,0c0.2-0.6,0.5-1.3,0.8-1.9C399.3,52.8,399.9,51.5,400.5,50.4z M433.2,138.5l1.6-4
					l0.5,0.4l-1.5,3.8C433.6,138.6,433.4,138.5,433.2,138.5z M333,100.2c-8.1,3.7-10.6-12.8-5.2-14.3
					C330.5,85.1,335.2,98.9,333,100.2z M341.3,74.5c0.8-2.1,3.5-2.6,6.1-2.1c-1,2.2-1.8,4.5-2.4,6.9
					C342.6,77.6,340.8,75.7,341.3,74.5z"/>
				<path class="st6" d="M411.8,153.4l-1-0.3l0,0l-8.2-2.6l-4.3-1.4l0,0l0,0l-1.6-0.5c-0.1,0-0.2,0-0.3-0.1c0,0,0,0-0.1,0
					s-0.2,0-0.3,0l0,0c-0.1,0-0.2,0-0.2,0l0,0c-0.1,0-0.2,0.1-0.2,0.1l0,0c-0.1,0-0.2,0.1-0.2,0.1l0,0l0,0l0,0
					c-0.1,0.1-0.1,0.1-0.2,0.2c0,0,0,0.1-0.1,0.1c0,0.1-0.1,0.1-0.1,0.2l0,0c0,0.1-0.1,0.2-0.1,0.2l-0.3,0.9v0.1l-0.8,2.5l-0.1,0.2
					l-0.3,0.8l-0.5,1.5c0,0.1,0,0.2-0.1,0.3c0,0,0,0,0,0.1s0,0.2,0,0.3l0,0c0,0.1,0,0.2,0,0.2s0,0,0,0.1s0.1,0.2,0.1,0.2s0,0,0,0.1
					s0.1,0.1,0.1,0.2l0,0l0,0l0,0c0.1,0.1,0.1,0.1,0.2,0.2l0,0l0.1,0.1h0.1c0.1,0,0.2,0.1,0.3,0.1l0,0l1.8,0.6l0.8,0.3l0.3,0.1
					l4.7,1.5l6.5,2l1,0.3c0.1,0,0.2,0,0.3,0.1h0.1c0.1,0,0.1,0,0.2,0c0,0,0,0,0.1,0h0.1c0.1,0,0.1,0,0.2,0h0.1c0.1,0,0.1,0,0.1-0.1
					c0,0,0.1,0,0.1-0.1l0.1-0.1l0.1-0.1c0,0,0,0,0.1-0.1l0,0c0.2-0.2,0.3-0.4,0.4-0.7l1.9-6C413.1,154.5,412.6,153.6,411.8,153.4z"
					/>
				<path class="st6" d="M381.3,155.9c0-0.1,0-0.1-0.1-0.1c0,0,0,0,0-0.1l-0.1-0.1c0,0,0,0-0.1-0.1l-0.1-0.1l0,0l0,0
					c-0.2-0.1-0.4-0.2-0.6-0.2h-0.9h-7.5c-0.6,0-1,0.5-1,1v4.4c0,0,0,0,0,0.1l0,0c0,0.2,0.1,0.4,0.2,0.6l0,0l0,0l0.1,0.1
					c0,0,0,0,0.1,0.1l0.1,0.1c0,0,0,0,0.1,0c0,0,0.1,0,0.1,0.1c0,0,0,0,0.1,0s0.1,0,0.2,0h8.5c0.6,0,1.1-0.5,1.1-1.1v-4.4
					C381.4,156.1,381.4,156,381.3,155.9L381.3,155.9z"/>
			</g>
			<g>
				<path class="st7" d="M299.2,119.8l21.6-21.6c0.4-0.4,1-0.4,1.4,0l28,28c0.4,0.4,0.4,1,0,1.4l-21.6,21.6c-0.4,0.4-1,0.4-1.4,0
					l-28-28C298.8,120.8,298.8,120.2,299.2,119.8z"/>
				<path class="st8" d="M299.2,119.8l17.5-17.5l25.5,25.5c0.4,0.4,0.4,1,0,1.4l-17.5,17.5l-25.5-25.5
					C298.8,120.8,298.8,120.2,299.2,119.8z"/>
				<path class="st9" d="M327.6,106.5L323,102l0,0l-20.1,20.1l0,0l4.6,4.6L327.6,106.5z"/>
				<path class="st10" d="M317.1,107.8l-4.1,4.1l2.1,7.1l4.1-4.1L317.1,107.8L317.1,107.8z M312.2,112.8l-1.9,1.9l2.1,7.1l1.9-1.9
					L312.2,112.8z"/>
				<path class="st11" d="M316.2,128.3l-2.9,2.9c-0.3,0.3-0.8,0.3-1.1,0l-2.5-2.5c-0.3-0.3-0.3-0.8,0-1.1l2.9-2.9
					c0.3-0.3,0.8-0.3,1.1,0l2.5,2.5C316.5,127.5,316.5,128,316.2,128.3z"/>
				<path class="st11" d="M321,133l-2.9,2.9c-0.3,0.3-0.8,0.3-1.1,0l-2.5-2.5c-0.3-0.3-0.3-0.8,0-1.1l2.9-2.9c0.3-0.3,0.8-0.3,1.1,0
					l2.5,2.5C321.3,132.2,321.3,132.7,321,133z"/>
				<path class="st11" d="M325.7,137.7l-2.9,2.9c-0.3,0.3-0.8,0.3-1.1,0l-2.5-2.5c-0.3-0.3-0.3-0.8,0-1.1l2.9-2.9
					c0.3-0.3,0.8-0.3,1.1,0l2.5,2.5C326,136.9,326,137.4,325.7,137.7z"/>
				<path class="st11" d="M330.5,142.5l-2.9,2.9c-0.3,0.3-0.8,0.3-1.1,0l-2.5-2.5c-0.3-0.3-0.3-0.8,0-1.1l2.9-2.9
					c0.3-0.3,0.8-0.3,1.1,0l2.5,2.5C330.7,141.7,330.7,142.2,330.5,142.5z"/>
				<path class="st11" d="M321.5,123l-2.9,2.9c-0.3,0.3-0.8,0.3-1.1,0l-2.5-2.5c-0.3-0.3-0.3-0.8,0-1.1l2.9-2.9
					c0.3-0.3,0.8-0.3,1.1,0l2.5,2.5C321.8,122.2,321.8,122.7,321.5,123z"/>
				<path class="st11" d="M326.3,127.7l-2.9,2.9c-0.3,0.3-0.8,0.3-1.1,0l-2.5-2.5c-0.3-0.3-0.3-0.8,0-1.1l2.9-2.9
					c0.3-0.3,0.8-0.3,1.1,0l2.5,2.5C326.6,126.9,326.6,127.4,326.3,127.7z"/>
				<path class="st11" d="M331,132.4l-2.9,2.9c-0.3,0.3-0.8,0.3-1.1,0l-2.5-2.5c-0.3-0.3-0.3-0.8,0-1.1l2.9-2.9
					c0.3-0.3,0.8-0.3,1.1,0l2.5,2.5C331.3,131.6,331.3,132.1,331,132.4z"/>
				<path class="st11" d="M335.7,137.2l-2.9,2.9c-0.3,0.3-0.8,0.3-1.1,0l-2.5-2.5c-0.3-0.3-0.3-0.8,0-1.1l2.9-2.9
					c0.3-0.3,0.8-0.3,1.1,0l2.5,2.5C336,136.4,336,136.9,335.7,137.2z"/>
				<path class="st12" d="M326.9,117.6l-2.9,2.9c-0.3,0.3-0.8,0.3-1.1,0l-2.5-2.5c-0.3-0.3-0.3-0.8,0-1.1l2.9-2.9
					c0.3-0.3,0.8-0.3,1.1,0l2.5,2.5C327.2,116.9,327.2,117.3,326.9,117.6z"/>
				<path class="st11" d="M331.6,122.4l-2.9,2.9c-0.3,0.3-0.8,0.3-1.1,0l-2.5-2.5c-0.3-0.3-0.3-0.8,0-1.1l2.9-2.9
					c0.3-0.3,0.8-0.3,1.1,0l2.5,2.5C331.9,121.6,331.9,122.1,331.6,122.4z"/>
				<path class="st11" d="M336.3,127.1l-2.9,2.9c-0.3,0.3-0.8,0.3-1.1,0l-2.5-2.5c-0.3-0.3-0.3-0.8,0-1.1l2.9-2.9
					c0.3-0.3,0.8-0.3,1.1,0l2.5,2.5C336.6,126.3,336.6,126.8,336.3,127.1z"/>
				<path class="st11" d="M341.1,131.8l-2.9,2.9c-0.3,0.3-0.8,0.3-1.1,0l-2.5-2.5c-0.3-0.3-0.3-0.8,0-1.1l2.9-2.9
					c0.3-0.3,0.8-0.3,1.1,0l2.5,2.5C341.4,131.1,341.4,131.5,341.1,131.8z"/>
				<path class="st11" d="M332.3,112.2l-2.9,2.9c-0.3,0.3-0.8,0.3-1.1,0l-2.5-2.5c-0.3-0.3-0.3-0.8,0-1.1l2.9-2.9
					c0.3-0.3,0.8-0.3,1.1,0l2.5,2.5C332.6,111.4,332.6,111.9,332.3,112.2z"/>
				<path class="st11" d="M337.1,116.9l-2.9,2.9c-0.3,0.3-0.8,0.3-1.1,0l-2.5-2.5c-0.3-0.3-0.3-0.8,0-1.1l2.9-2.9
					c0.3-0.3,0.8-0.3,1.1,0l2.5,2.5C337.3,116.1,337.3,116.6,337.1,116.9z"/>
				<path class="st13" d="M339.3,118c-0.3-0.3-0.8-0.3-1.1,0l-2.9,2.9c-0.3,0.3-0.3,0.8,0,1.1l2.5,2.5l0,0l0,0l4.7,4.7
					c0.3,0.3,0.8,0.3,1.1,0l2.9-2.9c0.3-0.3,0.3-0.8,0-1.1l-4.7-4.7l0,0l0,0L339.3,118z"/>
				<path class="st14" d="M321.9,100.8l1.1,1.1l0,0L302.9,122l0,0l-1.1-1.1L321.9,100.8z"/>
				<path class="st15" d="M321.2,98.3l28,28c0.4,0.4,0.4,1,0,1.4l-21.6,21.6c-0.1,0.1-0.1,0.1-0.2,0.1c0.4,0.1,0.8,0.1,1.1-0.2
					l21.6-21.6c0.4-0.4,0.4-1,0-1.4l-28-28c-0.3-0.3-0.8-0.4-1.2-0.1C321,98.1,321.1,98.2,321.2,98.3z"/>
				<path class="st16" d="M312.6,124.7l2.4,2.4c0.3,0.3,0.3,0.8,0,1.1l-2.9,2.9l0.1,0.1c0.3,0.3,0.8,0.3,1.1,0l2.9-2.9
					c0.3-0.3,0.3-0.8,0-1.1l-2.5-2.5C313.4,124.4,312.9,124.4,312.6,124.7z"/>
				<path class="st16" d="M317.9,119.4l2.4,2.4c0.3,0.3,0.3,0.8,0,1.1l-2.9,2.9l0.1,0.1c0.3,0.3,0.8,0.3,1.1,0l2.9-2.9
					c0.3-0.3,0.3-0.8,0-1.1l-2.5-2.5C318.7,119.1,318.2,119.1,317.9,119.4z"/>
				<path class="st2" d="M323.3,114l2.4,2.4c0.3,0.3,0.3,0.8,0,1.1l-2.9,2.9l0.1,0.1c0.3,0.3,0.8,0.3,1.1,0l2.9-2.9
					c0.3-0.3,0.3-0.8,0-1.1l-2.5-2.5C324,113.7,323.6,113.7,323.3,114z"/>
				<path class="st16" d="M328.7,108.6l2.4,2.4c0.3,0.3,0.3,0.8,0,1.1l-2.9,2.9l0.1,0.1c0.3,0.3,0.8,0.3,1.1,0l2.9-2.9
					c0.3-0.3,0.3-0.8,0-1.1l-2.5-2.5C329.5,108.3,329,108.3,328.7,108.6z"/>
				<path class="st16" d="M317.4,129.4l2.4,2.4c0.3,0.3,0.3,0.8,0,1.1l-2.9,2.9l0.1,0.1c0.3,0.3,0.8,0.3,1.1,0l2.9-2.9
					c0.3-0.3,0.3-0.8,0-1.1l-2.5-2.5C318.2,129.1,317.7,129.1,317.4,129.4z"/>
				<path class="st16" d="M322.7,124.1l2.4,2.4c0.3,0.3,0.3,0.8,0,1.1l-2.9,2.9l0.1,0.1c0.3,0.3,0.8,0.3,1.1,0l2.9-2.9
					c0.3-0.3,0.3-0.8,0-1.1l-2.5-2.5C323.5,123.8,323,123.8,322.7,124.1z"/>
				<path class="st16" d="M333.4,113.3l2.4,2.4c0.3,0.3,0.3,0.8,0,1.1l-2.9,2.9l0.1,0.1c0.3,0.3,0.8,0.3,1.1,0l2.9-2.9
					c0.3-0.3,0.3-0.8,0-1.1l-2.5-2.5C334.2,113,333.7,113,333.4,113.3z"/>
				<path class="st17" d="M338,118.3l2.1,2.1l0,0l0,0l4.7,4.7c0.3,0.3,0.3,0.8,0,1.1l-2.3,2.3l-0.3,0.3l0.2,0.2l0.3,0.3
					c0.3,0.3,0.8,0.3,1.1,0l2.9-2.9c0.3-0.3,0.3-0.8,0-1.1l-4.7-4.7l0,0l0,0l-2.5-2.5c-0.3-0.3-0.8-0.3-1.1,0L338,118.3z"/>
				<path class="st16" d="M328,118.8l2.4,2.4c0.3,0.3,0.3,0.8,0,1.1l-2.9,2.9l0.1,0.1c0.3,0.3,0.8,0.3,1.1,0l2.9-2.9
					c0.3-0.3,0.3-0.8,0-1.1l-2.5-2.5C328.8,118.5,328.3,118.5,328,118.8z"/>
				<path class="st16" d="M322.1,134.1l2.4,2.4c0.3,0.3,0.3,0.8,0,1.1l-2.9,2.9l0.1,0.1c0.3,0.3,0.8,0.3,1.1,0l2.9-2.9
					c0.3-0.3,0.3-0.8,0-1.1l-2.5-2.5C322.9,133.8,322.4,133.8,322.1,134.1z"/>
				<path class="st16" d="M327.4,128.8l2.4,2.4c0.3,0.3,0.3,0.8,0,1.1l-2.9,2.9l0.1,0.1c0.3,0.3,0.8,0.3,1.1,0l2.9-2.9
					c0.3-0.3,0.3-0.8,0-1.1l-2.5-2.5C328.2,128.5,327.7,128.5,327.4,128.8z"/>
				<path class="st16" d="M332.7,123.5l2.4,2.4c0.3,0.3,0.3,0.8,0,1.1l-2.9,2.9l0.1,0.1c0.3,0.3,0.8,0.3,1.1,0l2.9-2.9
					c0.3-0.3,0.3-0.8,0-1.1l-2.5-2.5C333.5,123.2,333,123.2,332.7,123.5z"/>
				<path class="st16" d="M326.9,138.9l2.4,2.4c0.3,0.3,0.3,0.8,0,1.1l-2.9,2.9l0.1,0.1c0.3,0.3,0.8,0.3,1.1,0l2.9-2.9
					c0.3-0.3,0.3-0.8,0-1.1l-2.5-2.5C327.6,138.6,327.1,138.6,326.9,138.9z"/>
				<path class="st16" d="M332.1,133.6l2.4,2.4c0.3,0.3,0.3,0.8,0,1.1l-2.9,2.9l0.1,0.1c0.3,0.3,0.8,0.3,1.1,0l2.9-2.9
					c0.3-0.3,0.3-0.8,0-1.1l-2.5-2.5C332.9,133.3,332.4,133.3,332.1,133.6z"/>
				<path class="st16" d="M337.5,128.2l2.4,2.4c0.3,0.3,0.3,0.8,0,1.1l-2.9,2.9l0.1,0.1c0.3,0.3,0.8,0.3,1.1,0l2.9-2.9
					c0.3-0.3,0.3-0.8,0-1.1l-2.5-2.5C338.2,127.9,337.8,127.9,337.5,128.2z"/>
			</g>
			<g>
				<path class="st18" d="M425.1,41.7l7.5,2.5c0.5,0.2,0.7,0.7,0.6,1.1L418,90.7c-0.2,0.5-0.7,0.7-1.1,0.6l-7.5-2.5
					c-0.5-0.2-0.7-0.7-0.6-1.1L424,42.3C424.2,41.8,424.7,41.5,425.1,41.7z"/>
				<path class="st19" d="M409.1,86.9l0.1-0.3l1.5,0.5c0.1,0,0.1,0.1,0.1,0.2s-0.1,0.1-0.2,0.1L409.1,86.9L409.1,86.9z M409.5,85.6
					l0.1-0.3l1.5,0.5c0.1,0,0.1,0.1,0.1,0.2s-0.1,0.1-0.2,0.1L409.5,85.6L409.5,85.6z M410,84.3l0.1-0.3l1.5,0.5
					c0.1,0,0.1,0.1,0.1,0.2s-0.1,0.1-0.2,0.1L410,84.3L410,84.3z M410.4,82.9l0.1-0.3l1.5,0.5c0.1,0,0.1,0.1,0.1,0.2
					s-0.1,0.1-0.2,0.1L410.4,82.9L410.4,82.9z M410.9,81.6l0.1-0.3l1.5,0.5c0.1,0,0.1,0.1,0.1,0.2s-0.1,0.1-0.2,0.1L410.9,81.6
					L410.9,81.6z M411.3,80.3l0.1-0.3l1.5,0.5c0.1,0,0.1,0.1,0.1,0.2s-0.1,0.1-0.2,0.1L411.3,80.3L411.3,80.3z M411.7,79l0.1-0.3
					l1.5,0.5c0.1,0,0.1,0.1,0.1,0.2s-0.1,0.1-0.2,0.1L411.7,79L411.7,79z M412.2,77.6l0.1-0.3l1.5,0.5c0.1,0,0.1,0.1,0.1,0.2
					s-0.1,0.1-0.2,0.1L412.2,77.6L412.2,77.6z M412.6,76.3l0.1-0.3l1.5,0.5c0.1,0,0.1,0.1,0.1,0.2s-0.1,0.1-0.2,0.1L412.6,76.3
					L412.6,76.3z M413.1,75l0.1-0.3l1.5,0.5c0.1,0,0.1,0.1,0.1,0.2s-0.1,0.1-0.2,0.1L413.1,75L413.1,75z M413.5,73.7l0.1-0.3
					l1.5,0.5c0.1,0,0.1,0.1,0.1,0.2s-0.1,0.1-0.2,0.1L413.5,73.7L413.5,73.7z M414,72.4l0.1-0.3l1.5,0.5c0.1,0,0.1,0.1,0.1,0.2
					s-0.1,0.1-0.2,0.1L414,72.4L414,72.4z M414.4,71l0.1-0.3l1.5,0.5c0.1,0,0.1,0.1,0.1,0.2s-0.1,0.1-0.2,0.1L414.4,71L414.4,71z
					 M414.8,69.7l0.1-0.3l1.5,0.5c0.1,0,0.1,0.1,0.1,0.2s-0.1,0.1-0.2,0.1L414.8,69.7L414.8,69.7z M415.3,68.4l0.1-0.3l1.5,0.5
					c0.1,0,0.1,0.1,0.1,0.2s-0.1,0.1-0.2,0.1L415.3,68.4L415.3,68.4z M415.7,67.1l0.1-0.3l1.5,0.5c0.1,0,0.1,0.1,0.1,0.2
					s-0.1,0.1-0.2,0.1L415.7,67.1L415.7,67.1z M416.2,65.7l0.1-0.3l1.5,0.5c0.1,0,0.1,0.1,0.1,0.2s-0.1,0.1-0.2,0.1L416.2,65.7
					L416.2,65.7z M416.6,64.4l0.1-0.3l1.5,0.5c0.1,0,0.1,0.1,0.1,0.2s-0.1,0.1-0.2,0.1L416.6,64.4L416.6,64.4z M417.1,63.1l0.1-0.3
					l1.5,0.5c0.1,0,0.1,0.1,0.1,0.2c0,0.1-0.1,0.1-0.2,0.1L417.1,63.1L417.1,63.1z M417.5,61.8l0.1-0.3l1.5,0.5
					c0.1,0,0.1,0.1,0.1,0.2c0,0.1-0.1,0.1-0.2,0.1L417.5,61.8L417.5,61.8z M417.9,60.4l0.1-0.3l1.5,0.5c0.1,0,0.1,0.1,0.1,0.2
					c0,0.1-0.1,0.1-0.2,0.1L417.9,60.4L417.9,60.4z M418.4,59.1l0.1-0.3l1.5,0.5c0.1,0,0.1,0.1,0.1,0.2c0,0.1-0.1,0.1-0.2,0.1
					L418.4,59.1L418.4,59.1z M418.8,57.8l0.1-0.3l1.5,0.5c0.1,0,0.1,0.1,0.1,0.2c0,0.1-0.1,0.1-0.2,0.1L418.8,57.8L418.8,57.8z
					 M419.3,56.5l0.1-0.3l1.5,0.5c0.1,0,0.1,0.1,0.1,0.2c0,0.1-0.1,0.1-0.2,0.1L419.3,56.5L419.3,56.5z M419.7,55.2l0.1-0.3l1.5,0.5
					c0.1,0,0.1,0.1,0.1,0.2c0,0.1-0.1,0.1-0.2,0.1L419.7,55.2L419.7,55.2z M420.2,53.8l0.1-0.3l1.5,0.5c0.1,0,0.1,0.1,0.1,0.2
					c0,0.1-0.1,0.1-0.2,0.1L420.2,53.8L420.2,53.8z M420.6,52.5l0.1-0.3l1.5,0.5c0.1,0,0.1,0.1,0.1,0.2c0,0.1-0.1,0.1-0.2,0.1
					L420.6,52.5L420.6,52.5z M421,51.2l0.1-0.3l1.5,0.5c0.1,0,0.1,0.1,0.1,0.2c0,0.1-0.1,0.1-0.2,0.1L421,51.2L421,51.2z
					 M421.5,49.9l0.1-0.3l1.5,0.5c0.1,0,0.1,0.1,0.1,0.2c0,0.1-0.1,0.1-0.2,0.1L421.5,49.9L421.5,49.9z M421.9,48.5l0.1-0.3l1.5,0.5
					c0.1,0,0.1,0.1,0.1,0.2c0,0.1-0.1,0.1-0.2,0.1L421.9,48.5L421.9,48.5z M422.4,47.2l0.1-0.3l1.5,0.5c0.1,0,0.1,0.1,0.1,0.2
					c0,0.1-0.1,0.1-0.2,0.1L422.4,47.2L422.4,47.2z M422.8,45.9l0.1-0.3l1.5,0.5c0.1,0,0.1,0.1,0.1,0.2c0,0.1-0.1,0.1-0.2,0.1
					L422.8,45.9L422.8,45.9z M423.3,44.6l0.1-0.3l1.5,0.5c0.1,0,0.1,0.1,0.1,0.2c0,0.1-0.1,0.1-0.2,0.1L423.3,44.6L423.3,44.6z
					 M423.7,43.3l0.1-0.3l1.5,0.5c0.1,0,0.1,0.1,0.1,0.2c0,0.1-0.1,0.1-0.2,0.1L423.7,43.3z"/>
				<path class="st20" d="M432.9,44.6L417.8,90c-0.2,0.5-0.7,0.7-1.1,0.6l-7.5-2.5c-0.1,0-0.2-0.1-0.3-0.2c0,0.4,0.2,0.8,0.6,0.9
					l7.5,2.5c0.5,0.2,1-0.1,1.1-0.6l15.2-45.4c0.1-0.3,0-0.7-0.3-0.9C433,44.5,433,44.5,432.9,44.6z"/>
				<path class="st21" d="M431.5,43.8l-14.6,43.8c-0.2,0.5-0.7,0.7-1.1,0.6l-6.3-2.1l-0.2,0.6l1.5,0.5c0.1,0,0.1,0.1,0.1,0.2
					s-0.1,0.1-0.2,0.1l-1.5-0.5l-0.2,0.7c0,0.1,0,0.1,0,0.2c0.1,0.1,0.2,0.1,0.3,0.2l7.5,2.5c0.5,0.2,1-0.1,1.1-0.6l15.2-45.4
					c0-0.1,0-0.1,0-0.2c-0.1-0.1-0.2-0.1-0.3-0.2L431.5,43.8z"/>
				<path class="st22" d="M427.1,43.9l2.4,0.8c0.1,0,0.2,0.1,0.3,0.3l0,0c0.1,0.1,0.1,0.3,0,0.4L416,86.7c0,0.1-0.1,0.2-0.3,0.3l0,0
					c-0.1,0.1-0.3,0.1-0.4,0l-2.4-0.8c-0.1,0-0.2-0.1-0.3-0.3l0,0c-0.1-0.1-0.1-0.3,0-0.4l13.8-41.3c0-0.1,0.1-0.2,0.3-0.3l0,0
					C426.8,43.9,426.9,43.9,427.1,43.9L427.1,43.9z M429.4,45.2l-2.4-0.8l0,0l0,0l0,0l-13.8,41.3l0,0l0,0l0,0l2.4,0.8l0,0l0,0l0,0
					L429.4,45.2L429.4,45.2L429.4,45.2L429.4,45.2z"/>
			</g>
			<g>
				<path class="st23" d="M329.4,77c0,0-0.7-2.7-0.3-4.2c0.4-1.5,1-1.6,0.7-3.4c-0.2-1.7-9-26.3-10.1-28.6c0,0-0.6-0.9-1.4-1.3
					L324,65c0,0-0.7,0.6-0.6,1.3c0.1,0.7,3,11.4,3,11.4L329.4,77z"/>
				<path class="st24" d="M329.9,76.3c1.5,2.3,6.9,18.1,6.2,21.2c-1.3,5.8-13.4,3.3-13.2-8.9c0.1-7.1,1.4-9.4,2.3-10.2
					c0.9-0.9,0.9-1.3,1-1.6C326.4,75.7,329.5,75.8,329.9,76.3L329.9,76.3z M333,97.3c2.3-1.3-2.4-15.1-5.2-14.3
					C322.4,84.6,324.9,101,333,97.3z"/>
				<path class="st25" d="M335.4,72.6c0,0-2.4-1.1-3.8-0.9s-1.6,0.8-3.2,0.3s-22.8-13.5-24.9-15c0,0-0.7-0.7-1-1.6l22.7,9.9
					c0,0,0.6-0.6,1.3-0.4c0.6,0.2,10,4.9,10,4.9L335.4,72.6z"/>
				<path class="st26" d="M302.6,55.2l22.7,9.9c0,0-0.8,1.7-1.8,2c-1,0.4-16.4-8.9-17.9-9.7C304,56.7,302.6,55.2,302.6,55.2z"/>
				<path class="st27" d="M328,68.6c0.3-0.7,0.1-1.5-0.5-1.8s-1.4-0.1-1.7,0.6c-0.3,0.7-0.1,1.5,0.5,1.8S327.6,69.3,328,68.6z"/>
				<path class="st28" d="M327.5,68.3c0.2-0.4,0-0.9-0.3-1.1c-0.4-0.2-0.8,0-1,0.4s0,0.9,0.3,1.1C326.9,68.9,327.3,68.8,327.5,68.3z
					"/>
				<path class="st26" d="M335.9,69.9c-1.6-0.8-9.1-4.6-9.7-4.8c-0.4-0.1-0.9,0.1-1.1,0.3c0.1-0.2,0.2-0.4,0.2-0.4s0.6-0.6,1.3-0.4
					c0.6,0.2,8.1,4,9.7,4.8l-0.9,2.5c0,0-0.1,0-0.1-0.1L335.9,69.9z"/>
				<path class="st24" d="M334.8,72.9c1.9,2,15.6,10,18.6,9.8c5.6-0.5,5-13.7-6.3-15.4c-6.5-0.9-8.8,0.1-9.8,0.9
					c-0.9,0.8-1.3,0.7-1.7,0.8C334.8,69.2,334.3,72.5,334.8,72.9L334.8,72.9z M353.7,79.3c-1.5,2.2-13.6-4.8-12.4-7.6
					C343.5,66.2,358.3,71.3,353.7,79.3z"/>
				<path class="st29" d="M328.9,77.6c1.5,2.3,6.9,18.1,6.2,21.2c-0.1,0.3-0.2,0.5-0.3,0.8c0.6-0.5,1-1.2,1.2-2
					c0.7-3.1-4.7-18.9-6.2-21.2c-0.1-0.1-0.3-0.2-0.7-0.3c-0.9-0.2-2.6-0.1-3,0.5c0,0.1-0.1,0.1-0.1,0.2c-0.1,0.2-0.1,0.4-0.2,0.7
					c0.2-0.1,0.4-0.1,0.5-0.1c0.6-0.1,1.3-0.1,1.8,0C328.6,77.3,328.8,77.4,328.9,77.6L328.9,77.6z M337.2,69.1
					c0.9-0.8,3.2-1.8,9.8-0.9c7.4,1.1,10.2,7.1,9.6,11.3c1.1-4.2-1.5-11.1-9.5-12.2c-6.5-0.9-8.8,0.1-9.8,0.9
					c-0.9,0.8-1.3,0.7-1.7,0.8c-0.1,0-0.1,0-0.2,0.1s-0.3,0.3-0.4,0.5c-0.2,0.4-0.4,1.1-0.5,1.7c0.2-0.7,0.5-1.3,0.9-1.3
					c0.1,0,0.2,0,0.3,0c0.1,0,0.2,0,0.3-0.1c0.1,0,0.3-0.1,0.4-0.2C336.7,69.5,336.9,69.4,337.2,69.1z"/>
			</g>
			<g>
				<path class="st30" d="M428.6,135.2c1.1,0.8,2.7,0.5,3.6-0.6c10-13.8,21.3-30.9,31.4-44.4c1.7-2.2,0.4-3.5-1.3-4.7
					c-8.2-5.7-13.1-9.6-21.4-15.3c-1-0.7-6.1-4.4-6.7-4.5c-2.3-0.7-3.5,1.9-4.7,3.6c-8.6,11.9-18.9,26.6-27.3,38.7
					c-0.6,0.9-1.2,1.7-1.8,2.6c-2.1,2.9-1.1,3.5,1.6,5.5C411.8,122.8,418.7,128.2,428.6,135.2z"/>
				<path class="st31" d="M459.9,91c-0.5-0.3-1.1-0.2-1.4,0.2c-0.3,0.5-0.2,1.1,0.2,1.4c0.5,0.3,1.1,0.2,1.4-0.2
					C460.5,91.9,460.4,91.3,459.9,91z"/>
				<path class="st0" d="M459.6,91.4c-0.2-0.1-0.5-0.1-0.6,0.1s-0.1,0.5,0.1,0.6l3.3,2.4c0.2,0.1,0.5,0.1,0.6-0.1s0.1-0.5-0.1-0.6
					L459.6,91.4z"/>
				<path class="st31" d="M458.2,93.5c-0.5-0.3-1.1-0.2-1.4,0.2c-0.3,0.5-0.2,1.1,0.2,1.4c0.5,0.3,1.1,0.2,1.4-0.2
					C458.7,94.4,458.6,93.8,458.2,93.5z"/>
				<path class="st0" d="M457.8,93.9c-0.2-0.1-0.5-0.1-0.6,0.1s-0.1,0.5,0.1,0.6l3.3,2.4c0.2,0.1,0.5,0.1,0.6-0.1s0.1-0.5-0.1-0.6
					L457.8,93.9z"/>
				<path class="st31" d="M456.4,96c-0.5-0.3-1.1-0.2-1.4,0.2c-0.3,0.5-0.2,1.1,0.2,1.4c0.5,0.3,1.1,0.2,1.4-0.2
					C456.9,96.9,456.8,96.3,456.4,96z"/>
				<path class="st0" d="M456,96.5c-0.2-0.1-0.5-0.1-0.6,0.1s-0.1,0.5,0.1,0.6l3.3,2.4c0.2,0.1,0.5,0.1,0.6-0.1s0.1-0.5-0.1-0.6
					L456,96.5z"/>
				<path class="st31" d="M454.6,98.5c-0.5-0.3-1.1-0.2-1.4,0.2c-0.3,0.5-0.2,1.1,0.2,1.4c0.5,0.3,1.1,0.2,1.4-0.2
					C455.2,99.5,455,98.8,454.6,98.5z"/>
				<path class="st0" d="M454.3,99c-0.2-0.1-0.5-0.1-0.6,0.1s-0.1,0.5,0.1,0.6l3.3,2.4c0.2,0.1,0.5,0.1,0.6-0.1s0.1-0.5-0.1-0.6
					L454.3,99z"/>
				<path class="st31" d="M452.8,101c-0.5-0.3-1.1-0.2-1.4,0.2c-0.3,0.5-0.2,1.1,0.2,1.4c0.5,0.3,1.1,0.2,1.4-0.2
					C453.4,102,453.3,101.3,452.8,101z"/>
				<path class="st0" d="M452.5,101.5c-0.2-0.1-0.5-0.1-0.6,0.1s-0.1,0.5,0.1,0.6l3.3,2.4c0.2,0.1,0.5,0.1,0.6-0.1s0.1-0.5-0.1-0.6
					L452.5,101.5z"/>
				<path class="st31" d="M451,103.5c-0.5-0.3-1.1-0.2-1.4,0.2c-0.3,0.5-0.2,1.1,0.2,1.4c0.5,0.3,1.1,0.2,1.4-0.2
					C451.6,104.5,451.5,103.9,451,103.5z"/>
				<path class="st0" d="M450.7,104c-0.2-0.1-0.5-0.1-0.6,0.1s-0.1,0.5,0.1,0.6l3.3,2.4c0.2,0.1,0.5,0.1,0.6-0.1s0.1-0.5-0.1-0.6
					L450.7,104z"/>
				<path class="st31" d="M449.2,106.1c-0.5-0.3-1.1-0.2-1.4,0.2c-0.3,0.5-0.2,1.1,0.2,1.4c0.5,0.3,1.1,0.2,1.4-0.2
					C449.8,107,449.7,106.4,449.2,106.1z"/>
				<path class="st0" d="M448.9,106.5c-0.2-0.1-0.5-0.1-0.6,0.1s-0.1,0.5,0.1,0.6l3.3,2.4c0.2,0.1,0.5,0.1,0.6-0.1s0.1-0.5-0.1-0.6
					L448.9,106.5z"/>
				<path class="st31" d="M447.5,108.6c-0.5-0.3-1.1-0.2-1.4,0.2c-0.3,0.5-0.2,1.1,0.2,1.4c0.5,0.3,1.1,0.2,1.4-0.2
					C448,109.5,447.9,108.9,447.5,108.6z"/>
				<path class="st0" d="M447.1,109c-0.2-0.1-0.5-0.1-0.6,0.1s-0.1,0.5,0.1,0.6l3.3,2.4c0.2,0.1,0.5,0.1,0.6-0.1s0.1-0.5-0.1-0.6
					L447.1,109z"/>
				<path class="st31" d="M445.7,111.1c-0.5-0.3-1.1-0.2-1.4,0.2c-0.3,0.5-0.2,1.1,0.2,1.4c0.5,0.3,1.1,0.2,1.4-0.2
					C446.2,112,446.1,111.4,445.7,111.1z"/>
				<path class="st0" d="M445.3,111.6c-0.2-0.1-0.5-0.1-0.6,0.1s-0.1,0.5,0.1,0.6l3.3,2.4c0.2,0.1,0.5,0.1,0.6-0.1s0.1-0.5-0.1-0.6
					L445.3,111.6z"/>
				<path class="st31" d="M443.9,113.6c-0.5-0.3-1.1-0.2-1.4,0.2c-0.3,0.5-0.2,1.1,0.2,1.4c0.5,0.3,1.1,0.2,1.4-0.2
					C444.4,114.6,444.3,113.9,443.9,113.6z"/>
				<path class="st0" d="M443.5,114.1c-0.2-0.1-0.5-0.1-0.6,0.1s-0.1,0.5,0.1,0.6l3.3,2.4c0.2,0.1,0.5,0.1,0.6-0.1s0.1-0.5-0.1-0.6
					L443.5,114.1z"/>
				<path class="st31" d="M442.1,116.1c-0.5-0.3-1.1-0.2-1.4,0.2c-0.3,0.5-0.2,1.1,0.2,1.4c0.5,0.3,1.1,0.2,1.4-0.2
					C442.7,117.1,442.6,116.4,442.1,116.1z"/>
				<path class="st0" d="M441.8,116.6c-0.2-0.1-0.5-0.1-0.6,0.1s-0.1,0.5,0.1,0.6l3.3,2.4c0.2,0.1,0.5,0.1,0.6-0.1s0.1-0.5-0.1-0.6
					L441.8,116.6z"/>
				<path class="st31" d="M440.3,118.6c-0.5-0.3-1.1-0.2-1.4,0.2c-0.3,0.5-0.2,1.1,0.2,1.4c0.5,0.3,1.1,0.2,1.4-0.2
					C440.9,119.6,440.8,119,440.3,118.6z"/>
				<path class="st0" d="M440,119.1c-0.2-0.1-0.5-0.1-0.6,0.1s-0.1,0.5,0.1,0.6l3.3,2.4c0.2,0.1,0.5,0.1,0.6-0.1s0.1-0.5-0.1-0.6
					L440,119.1z"/>
				<path class="st31" d="M438.5,121.2c-0.5-0.3-1.1-0.2-1.4,0.2c-0.3,0.5-0.2,1.1,0.2,1.4c0.5,0.3,1.1,0.2,1.4-0.2
					C439.1,122.1,439,121.5,438.5,121.2z"/>
				<path class="st0" d="M438.2,121.6c-0.2-0.1-0.5-0.1-0.6,0.1s-0.1,0.5,0.1,0.6l3.3,2.4c0.2,0.1,0.5,0.1,0.6-0.1s0.1-0.5-0.1-0.6
					L438.2,121.6z"/>
				<path class="st31" d="M436.7,123.7c-0.5-0.3-1.1-0.2-1.4,0.2c-0.3,0.5-0.2,1.1,0.2,1.4c0.5,0.3,1.1,0.2,1.4-0.2
					C437.3,124.6,437.2,124,436.7,123.7z"/>
				<path class="st0" d="M436.4,124.1c-0.2-0.1-0.5-0.1-0.6,0.1s-0.1,0.5,0.1,0.6l3.3,2.4c0.2,0.1,0.5,0.1,0.6-0.1s0.1-0.5-0.1-0.6
					L436.4,124.1z"/>
				<path class="st31" d="M435,126.2c-0.5-0.3-1.1-0.2-1.4,0.2c-0.3,0.5-0.2,1.1,0.2,1.4c0.5,0.3,1.1,0.2,1.4-0.2
					C435.5,127.1,435.4,126.5,435,126.2z"/>
				<path class="st0" d="M434.6,126.7c-0.2-0.1-0.5-0.1-0.6,0.1s-0.1,0.5,0.1,0.6l3.3,2.4c0.2,0.1,0.5,0.1,0.6-0.1
					c0.1-0.2,0.1-0.5-0.1-0.6L434.6,126.7z"/>
				<path class="st31" d="M433.2,128.7c-0.5-0.3-1.1-0.2-1.4,0.2c-0.3,0.5-0.2,1.1,0.2,1.4c0.5,0.3,1.1,0.2,1.4-0.2
					S433.6,129,433.2,128.7z"/>
				<path class="st0" d="M432.8,129.2c-0.2-0.1-0.5-0.1-0.6,0.1c-0.1,0.2-0.1,0.5,0.1,0.6l3.3,2.4c0.2,0.1,0.5,0.1,0.6-0.1
					c0.1-0.2,0.1-0.5-0.1-0.6L432.8,129.2z"/>
				<path class="st31" d="M401.9,110.3c-2.1,2.9-1.1,3.5,1.6,5.5c9.9,6.9,16.7,12.2,26.6,19.3c0.3,0.2,0.6,0.3,0.9,0.4
					c-0.8,0.4-1.8,0.3-2.6-0.2c-9.9-7-16.7-12.4-26.6-19.3c-2.8-1.9-3.7-2.6-1.6-5.5c0.6-0.9,1.2-1.7,1.8-2.6
					c8.4-12.1,18.7-26.8,27.3-38.7c1.1-1.6,2.3-4.2,4.6-3.6c-1.2,0.6-2.1,2.3-2.9,3.4c-8.6,11.9-18.9,26.6-27.3,38.7
					C403.2,108.6,402.6,109.4,401.9,110.3z"/>
				<path class="st32" d="M439.5,69.3C431,81,419.9,96.8,412,108.2c-0.6,0.9-1.2,1.7-1.8,2.6c-2.1,2.9-1.1,3.5,1.6,5.5
					c8.4,5.8,13.7,9.9,22,15.9c-0.6,0.8-1.2,1.6-1.7,2.4c-0.3,0.4-0.6,0.6-1,0.8c-0.3-0.1-0.6-0.2-0.9-0.4
					c-9.9-7-16.7-12.4-26.6-19.3c-2.8-1.9-3.7-2.6-1.6-5.5c0.6-0.9,1.2-1.7,1.8-2.6c8.3-12,18.6-26.6,27.2-38.6
					c0.5-0.6,1.4-2.2,2.4-3.5c0.2,0,0.4,0,0.6,0.1C434.5,65.8,437.6,67.9,439.5,69.3z"/>
				<path class="st33" d="M446.1,98c0.8,0.6,1.9,0.4,2.4-0.4c6.8-9.4-2.7,3.3,4.2-5.9c1.1-1.5,0.3-2.4-0.9-3.2
					c-3.1-2.1-16.1-12-17.9-12.6c-0.9-0.3-1.6,0.2-2.1,0.9l-3.7,5.3c-1.4,2-0.8,2.4,1.1,3.7C436,90.5,439.3,93.3,446.1,98z"/>
			</g>
			<g>
				<path class="st34" d="M352.6,41.6c-3.2,4-4.9,22.1-4.6,27.1c0.1,2.1,3.6-0.1,7.7-3.6c0.3-1.7,0.4-3.7,0.4-6
					c0-5.7,0.7-9.3,1.6-11.5c-1.2-2.2,0.4-4.1-0.5-5.4C356.2,40.9,352.6,41.6,352.6,41.6z"/>
				<path class="st35" d="M352.6,41.6c-0.5,0.6-0.9,1.5-1.3,2.6c1-0.2,2.1-0.1,3.1,0.9c2.3,2.4-0.6,14.4-6.3,18.3
					c-0.1,2.3-0.2,4.1-0.1,5.3c0.1,2.1,3.6-0.1,7.7-3.6c0.3-1.7,0.4-3.7,0.4-6c0-5.7,0.7-9.3,1.6-11.5c-1.2-2.2,0.4-4.1-0.5-5.4
					C356.2,40.9,352.6,41.6,352.6,41.6z"/>
				<path class="st33" d="M369.1,52.3l3.9-4.4c0,0-2.6-4.1-5-7.1c-1.3-1.6-2.5-3-3.2-3.2c-1.9-0.5-8,1.3-11.7,3.4
					c-0.2,0.1-0.4,0.3-0.7,0.6c0,0,0.9-0.5,2.3,1.3s5,7.9,6.6,13.9c0.2,0.8,0.5,1.6,0.7,2.4C366,55.5,369.1,52.3,369.1,52.3z"/>
				<path class="st36" d="M360.3,38.1c-2.4,0.6-5.1,1.7-7.1,2.9c-0.2,0.1-0.4,0.3-0.7,0.6c0,0,0.9-0.5,2.3,1.3s5,7.9,6.6,13.9
					c0.2,0.8,0.5,1.6,0.7,2.4c0.7-1,10.4-10.8,8-10.3s-10.4,1.4-11.4-4.8C358.4,41.2,359.3,39.3,360.3,38.1z"/>
				<path class="st34" d="M405.6,41.6c3.2,4,4.9,22.1,4.6,27.1c-0.1,2.1-3.6-0.1-7.7-3.6c-0.3-1.7-0.4-3.7-0.4-6
					c0-5.7-0.7-9.3-1.6-11.5c1.2-2.2-0.4-4.1,0.5-5.4C402,40.9,405.6,41.6,405.6,41.6z"/>
				<path class="st35" d="M405.6,41.6c0.5,0.6,0.9,1.5,1.3,2.6c-1-0.2-2.1-0.1-3.1,0.9c-2.3,2.4,0.6,14.4,6.3,18.3
					c0.1,2.3,0.2,4.1,0.1,5.3c-0.1,2.1-3.6-0.1-7.7-3.6c-0.3-1.7-0.4-3.7-0.4-6c0-5.7-0.7-9.3-1.6-11.5c1.2-2.2-0.4-4.1,0.5-5.4
					C402,40.9,405.6,41.6,405.6,41.6z"/>
				<path class="st33" d="M389.1,52.3l-3.9-4.4c0,0,2.6-4.1,5-7.1c1.3-1.6,2.5-3,3.2-3.2c1.9-0.5,8,1.3,11.7,3.4
					c0.2,0.1,0.4,0.3,0.7,0.6c0,0-0.9-0.5-2.3,1.3s-5,7.9-6.6,13.9c-0.2,0.8-0.5,1.6-0.7,2.4C392.2,55.5,389.1,52.3,389.1,52.3z"/>
				<path class="st36" d="M397.9,38.1c2.4,0.6,5.1,1.7,7.1,2.9c0.2,0.1,0.4,0.3,0.7,0.6c0,0-0.9-0.5-2.3,1.3s-5,7.9-6.6,13.9
					c-0.2,0.8-0.5,1.6-0.7,2.4c-0.7-1-10.4-10.8-8-10.3s10.4,1.4,11.4-4.8C399.9,41.2,399,39.3,397.9,38.1z"/>
				<path class="st37" d="M357,144.5h45c8.6,0,15.7-7.1,15.7-15.7c0,0,0.7-33.5-3.5-51.3s-18-30-34.7-30c-16.6,0-30.5,12.2-34.7,30
					s-3.5,51.3-3.5,51.3C341.3,137.4,348.3,144.5,357,144.5z"/>
				<path class="st38" d="M357,144.5h45c8.6,0,15.7-7.1,15.7-15.7c0,0,0.7-33.5-3.5-51.3c-2.6-11.2-9.1-20.1-17.6-25.3
					c0.2,0.2,13.5,10.6,16.1,23.9c2.6,13.4,1,16.5-0.2,16.2c-1.1-0.3-12-3.1-12-3.1l-50.7,8.6l-1.4-2.8c0,0-3.1,3.2-6.4,2.5
					c-1.1,15.6-0.8,31.2-0.8,31.2C341.3,137.4,348.3,144.5,357,144.5z"/>
				<path class="st12" d="M369.5,50c0,0-1.3-5.2,2-10.4s13.8-0.2,15.1,1.9c1.3,2.2,1.5,6.3-1.4,8.7s-1.8-1.2-1.8-1.2s3-2.1,2.4-5.2
					c-0.6-3-10.2-3.3-11.3-2.4c-1.1,0.9-4.1,4.6-3.2,8.1C372.1,53.2,369.5,50,369.5,50z"/>
				<path class="st2" d="M369.5,50c0,0-0.9-3.5,0.6-7.6c1.3,0.4,2.9-0.5,3.6-1.3c1.1-1.4,2.8-0.9,5.9-0.8c3.1,0.2,6.1,2.2,6.7,1.8
					c0.1-0.1,0.2-0.3,0.3-0.5c1.3,2.2,1.5,6.3-1.4,8.7s-1.8-1.2-1.8-1.2s3-2.1,2.4-5.2c-0.6-3-10.2-3.3-11.3-2.4
					c-1.1,0.9-4.1,4.6-3.2,8.1C372.1,53.2,369.5,50,369.5,50z"/>
				<path class="st39" d="M359.2,144.5h40.5c7.8,0,14.1-6.7,14.1-14.9c0,0,0.6-31.9-3.2-48.9c-3.8-17-16.2-28.6-31.2-28.6
					S352,63.7,348.2,80.7s-3.2,48.9-3.2,48.9C345.1,137.7,351.4,144.5,359.2,144.5z"/>
				<path class="st38" d="M359.8,144.5h39.4c7.6,0,13.8-6.6,13.8-14.7c0,0,0.6-31.4-3.1-48.1s-15.8-28.1-30.4-28.1
					S352.8,65,349.1,81.7c-3.7,16.7-3.1,48.1-3.1,48.1C346,137.8,352.2,144.5,359.8,144.5z"/>
				<path class="st36" d="M400.6,63.1c-5.6-6.1-12.9-9.6-21.1-9.6c-14.6,0-26.7,11.4-30.4,28.1c-3.7,16.7-3.1,48.1-3.1,48.1
					c0,3.2,1,6.2,2.7,8.7c2.4,2.4,5.7,3.8,9.2,3.8h39.4c7.6,0,13.8-6.6,13.8-14.7c0,0,0.6-31.4-3.1-48.1
					C406.6,73.1,404,67.6,400.6,63.1z"/>
				<path class="st38" d="M400.8,98.5c6.9,1.8,5.2,9.7,5.2,15.3c0,3.9,0.8,15.4-1.3,18.2c-2.8,3.8-9.3,2.6-13.8,2.6
					c-5,0-30.1,0.8-32.9-0.7c-4.8-2.5-3.2-9.7-3.2-14.6c0-3.9-0.8-15.4,1.3-18.2c2.8-3.8,9.4-2.6,13.9-2.6
					C379.5,98.4,391.7,97.9,400.8,98.5z"/>
				<path class="st33" d="M397.6,60.2c-5.1-4.3-11.4-6.8-18.1-6.8c-14.6,0-26.7,11.4-30.4,28.1c-2.8,12.5-3.1,33.3-3.1,43
					c0.6,0.1,1.3,0.1,1.9,0.1h39.4c7.6,0,13.8-6.6,13.8-14.7c0,0,0.6-31.4-3.1-48.1C397.9,61.3,397.7,60.8,397.6,60.2z"/>
				<path class="st36" d="M393.8,69.6c4.8,1.2,3.4,6.6,3.4,11c0,10.4-0.3,9.3-11,9.4c-3.5,0-17.7,0.7-20-0.9c-2.7-2-2-11.7-1.8-14.9
					c0.4-6.4,7.7-4.8,12.9-4.8C382.4,69.4,388.8,69.2,393.8,69.6z"/>
				<path class="st12" d="M392.5,68.5c4.8,1.2,3.4,6.6,3.4,11c0,10.4-0.3,9.3-11,9.4c-3.5,0-17.7,0.7-20-0.9c-2.7-2-2-11.7-1.8-14.9
					c0.4-6.4,7.7-4.8,12.9-4.8C381.1,68.3,387.6,68.1,392.5,68.5z"/>
				<path class="st12" d="M399.9,97.2c6.9,1.8,5.2,9.7,5.2,15.3c0,3.9,0.8,15.4-1.3,18.2c-2.8,3.8-9.3,2.6-13.8,2.6
					c-5,0-30.1,0.8-32.9-0.7c-4.8-2.5-3.2-9.7-3.2-14.6c0-3.9-0.8-15.4,1.3-18.2c2.8-3.8,9.4-2.6,13.9-2.6
					C378.7,97.2,390.8,96.6,399.9,97.2z"/>
				<g>
					<path class="st33" d="M413.5,102.8l-1.8-2.1c0,0-1,0.4-2,1.5c-0.9,1.2,1.9,22.9,3,26.5s3.8,4.1,6,3.2c2.2-0.9,4.9-3,6.3-4.5
						c1.5-1.5,0.4-6.3-0.9-10.1c-1.3-3.8-1.5-6.6-1.5-6.6l-1.3-1.8L413.5,102.8z"/>
					<path class="st36" d="M413.5,102.8l-1.8-2.1c0,0-1,0.4-2,1.5c-0.9,1.2,1.9,22.9,3,26.5s3.8,4.1,6,3.2c0.5-0.2,1-0.5,1.5-0.7
						c-2.8,0.7-3.7-3.4-4.8-8.9c-1.1-5.5-2.1-14.8-2.1-14.8l2.8-1.1l-2-3.2L413.5,102.8z"/>
					<path class="st38" d="M412.7,101.9l-1-1.1c0,0-1,0.4-2,1.5c-0.9,1.2,1.9,22.9,3,26.5c1.1,3.6,3.8,4.1,6,3.2
						c0.5-0.2,1-0.5,1.5-0.7c-0.7,0.2-1.3,0-1.8-0.4c-1.7,0.6-3.2-0.2-4.5-2.5c-1.7-3-3.8-16.6-3.1-22.4
						C411,103.7,411.8,102.5,412.7,101.9z"/>
					<path class="st40" d="M422.1,107.8c0,0,0.6,2.1,0.4,3c-0.1,0.9-5.9,2.3-6.7,2.3c-0.7,0-1-1.2-1.2-3.7L422.1,107.8z"/>
					<path class="st12" d="M422.5,106c-0.8-2.2-2-5.6-2.6-6.4c-0.8-1.2-7.7-0.1-8.3,1.1c-0.6,1.2,1.6,7.6,2.6,9
						c0.9,1.3,5.4-0.1,7-0.7C423.8,108,423.3,108.3,422.5,106z"/>
					<path class="st2" d="M413.7,99.7c-1,0.3-1.9,0.7-2,1c-0.6,1.2,1.6,7.6,2.6,9c0.9,1.3,5.4-0.1,7-0.7c2.1-0.8,2.2-0.8,1.7-2
						c-3.6,1-8.3-0.8-9.1-4C413.4,101.4,413.5,100.4,413.7,99.7z"/>
					<path class="st41" d="M413.7,99.7c-0.8,0.2-1.5,0.5-1.8,0.8c-0.1,1.8,1.8,7.3,2.7,8.6c0.9,1.3,5.4-0.1,7-0.7
						c0.8-0.3,1.3-0.5,1.6-0.7c0-0.2-0.1-0.4-0.2-0.7c-3.6,1-8.3-0.8-9.1-4c-0.2-0.6-0.2-1.2-0.3-1.7
						C413.5,100.6,413.6,100.1,413.7,99.7z"/>
				</g>
				<path class="st39" d="M395.8,105.2c0,0,0,2.4,1.4,4.6c1.4,2.3,3,5.3,1.6,8.7c0,0-0.1,0.5-0.9,0.5c-0.7,0-1.9-0.2-1.9-0.7
					c-0.1-0.5,1.6-2.9,0.3-6.5c-1.3-3.6-1.6-5.8-1.5-6.4C394.7,105.5,395.2,105.1,395.8,105.2z"/>
				<path class="st39" d="M394.3,104.8c0,0-0.1,0.8,0.3,0.9c0.4,0.2,1.1,0,1.3-0.2c0.2-0.2,0.2-1,0.2-1S394.6,104.2,394.3,104.8z"/>
				<path class="st15" d="M398.4,102.2c3,0.2,2.8,2.4,0,2.6c-1.2,0.1-3.3,0-6.8,0c-2.8,0-29.7,0.1-31.5-0.1c-1.9-0.2-2.6-2.1,0-2.4
					c2-0.3,12.9-0.1,15.8-0.1C378.4,102.1,396.7,102,398.4,102.2z"/>
				<path class="st39" d="M389.2,74.6c0,0,0,2,1.1,3.8c1.1,1.9,2.4,4.4,1.4,7.1c0,0-0.1,0.4-0.7,0.4s-1.5-0.1-1.6-0.5
					s1.3-2.4,0.2-5.3c-1.1-2.9-1.3-4.8-1.3-5.3C388.4,74.8,388.7,74.5,389.2,74.6z"/>
				<path class="st39" d="M388,74.3c0,0-0.1,0.6,0.3,0.8c0.4,0.1,0.9,0,1.1-0.2s0.2-0.9,0.2-0.9S388.3,73.7,388,74.3z"/>
				<path class="st39" d="M390.5,71.7c3,0.2,2.8,2.4,0,2.6c-1.2,0.1-3.3,0-6.8,0c-2.8,0-13.9,0.1-15.7-0.1c-1.9-0.2-2.6-2.1,0-2.4
					c2-0.3,5.8-0.1,8.7-0.1C379.2,71.6,388.8,71.5,390.5,71.7z"/>
				<path class="st39" d="M410.8,82.5c0,0-0.5,1.9,0.2,4c0.6,2.1,1.3,4.8-0.4,7.3c0,0-0.2,0.4-0.8,0.2c-0.6-0.1-1.4-0.5-1.4-0.9
					s1.8-2,1.5-5.1s-0.1-5,0.1-5.4C409.9,82.5,410.3,82.3,410.8,82.5z"/>
				<path class="st39" d="M411.2,83.4c0,0,0,2,1,3.8c1.1,1.9,2.3,4.4,1.2,7.2c0,0-0.1,0.4-0.7,0.4s-1.5-0.2-1.6-0.6s1.4-2.4,0.4-5.3
					c-1-3-1.2-4.8-1.1-5.3C410.3,83.6,410.7,83.2,411.2,83.4z"/>
				<path class="st39" d="M409.9,82.9c0,0-0.1-0.6,0.3-0.8c0.4-0.1,0.9,0,1.1,0.2s0.2,0.9,0.2,0.9S410.2,83.5,409.9,82.9z"/>
				<path class="st39" d="M410,83c0,0-0.1,0.6,0.3,0.8c0.4,0.1,0.9,0.1,1.1-0.2c0.3-0.5,0.2-0.9-0.3-0.9
					C410.6,82.7,410.2,82.7,410,83z"/>
				<g>
					<path class="st33" d="M344.6,102.5l1.6-2.2c0,0,1,0.3,2.1,1.4c1,1.1-0.2,23-1,26.7c-0.8,3.7-3.5,4.4-5.7,3.7s-5.1-2.6-6.6-4
						c-1.6-1.4-0.9-6.3,0.2-10.2c1.1-3.9,1-6.7,1-6.7l1.2-1.9L344.6,102.5z"/>
					<path class="st36" d="M344.6,102.5l1.6-2.2c0,0,1,0.3,2.1,1.4c1,1.1-0.2,23-1,26.7c-0.8,3.7-3.5,4.4-5.7,3.7
						c-0.5-0.2-1-0.4-1.6-0.6c2.8,0.5,3.4-3.7,4.1-9.3c0.7-5.6,1-14.9,1-14.9l-2.9-0.9l1.7-3.3L344.6,102.5z"/>
					<path class="st38" d="M345.3,101.5l0.9-1.2c0,0,1,0.3,2.1,1.4c1,1.1-0.2,23-1,26.7c-0.8,3.7-3.5,4.4-5.7,3.7
						c-0.5-0.2-1-0.4-1.6-0.6c0.7,0.1,1.3-0.1,1.8-0.5c1.7,0.5,3.2-0.5,4.3-2.9c1.5-3.1,2.5-16.8,1.4-22.5
						C347.1,103.3,346.2,102.1,345.3,101.5z"/>
					<path class="st40" d="M336.3,108.1c0,0-0.4,2.1-0.2,3c0.2,0.9,6.1,1.8,6.8,1.8c0.7,0,0.9-1.2,1-3.7L336.3,108.1z"/>
					<path class="st12" d="M335.8,106.4c0.6-2.3,1.6-5.8,2.1-6.6c0.7-1.2,7.6-0.6,8.3,0.5c0.7,1.1-1.1,7.7-1.9,9.1s-5.4,0.3-7-0.2
						C334.7,108.5,335.2,108.7,335.8,106.4z"/>
					<path class="st2" d="M344.1,99.5c1.1,0.2,1.9,0.5,2.1,0.9c0.7,1.1-1.1,7.7-1.9,9.1s-5.4,0.3-7-0.2c-2.2-0.6-2.2-0.6-1.8-1.9
						c3.7,0.8,8.2-1.5,8.8-4.6C344.6,101.2,344.4,100.1,344.1,99.5z"/>
					<path class="st41" d="M344.1,99.5c0.8,0.2,1.5,0.4,1.9,0.6c0.3,1.8-1.2,7.5-2,8.8c-0.8,1.4-5.4,0.3-7-0.2
						c-0.8-0.2-1.3-0.4-1.6-0.5c0-0.2,0.1-0.4,0.2-0.7c3.7,0.8,8.2-1.5,8.8-4.6c0.1-0.7,0.2-1.2,0.1-1.7
						C344.4,100.4,344.3,99.8,344.1,99.5z"/>
				</g>
				<path class="st2" d="M403.8,111.4c0,3.9,0.8,15.4-1.3,18.2c-2.8,3.8-9.3,2.6-13.8,2.6c-5,0-30.1,0.8-32.9-0.7
					c-0.1-0.1-0.2-0.1-0.3-0.2c0.4,0.5,1,0.9,1.6,1.2c2.8,1.5,27.8,0.7,32.9,0.7c4.5,0,11,1.2,13.8-2.6c2.1-2.9,1.3-14.3,1.3-18.2
					c0-4.9,1.4-11.7-3.1-14.4C404.9,101.2,403.8,107,403.8,111.4z"/>
				<path class="st42" d="M400.9,106.9c0,3.9,0.8,15.4-1.3,18.2c-2.8,3.8-9.3,2.6-13.8,2.6c-4.7,0-26.6,0.7-31.9-0.4
					c0.2,1.5,0.7,2.9,1.7,4c0.1,0.1,0.2,0.1,0.3,0.2c2.8,1.5,27.8,0.7,32.9,0.7c4.5,0,11,1.2,13.8-2.6c2.1-2.9,1.3-14.3,1.3-18.2
					c0-4.4,1.1-10.2-1.8-13.4c-0.3-0.2-0.7-0.4-1.2-0.6C401.3,100.5,400.9,104,400.9,106.9z"/>
				<path class="st2" d="M395.1,78.7c0,10.4-0.3,9.3-11,9.4c-3.4,0-17.1,0.7-19.9-0.8c0.2,0.3,0.4,0.5,0.7,0.7
					c2.3,1.7,16.5,0.9,20,0.9c10.7-0.1,11,1,11-9.4c0-3.8,1-8.3-1.7-10.3C395.9,71.5,395.1,75.3,395.1,78.7z"/>
				<path class="st41" d="M393,68.6c0.3,2.1-0.1,4.6-0.1,6.8c0,4.1-0.1,6.4-0.8,7.7c0,0.8-0.1,1.6-0.4,2.4c0,0-0.1,0.4-0.7,0.4
					s-1.5-0.1-1.6-0.5c0-0.1,0.1-0.4,0.2-0.8c-1.6,0.3-4.1,0.2-7.8,0.2c-3.1,0-14.3,0.6-18.6-0.4c0.2,1.2,0.5,2.2,1,2.9
					c2.7,1.5,16.4,0.8,19.9,0.8c10.7-0.1,11,1,11-9.4c0-3.3,0.8-7.2-0.9-9.4C393.9,69,393.4,68.8,393,68.6z"/>
			</g>
			<g>
				<path class="st0" d="M411.8,150.6l-15.2-4.7c-0.8-0.3-1.7,0.2-2,1l-1.9,6c-0.3,0.8,0.2,1.7,1,2l15.2,4.7c0.8,0.3,1.7-0.2,2-1
					l1.9-6C413.1,151.7,412.6,150.8,411.8,150.6z"/>
				
					<rect x="399.2" y="147.2" transform="matrix(0.2967 -0.955 0.955 0.2967 137.9176 493.3807)" class="st24" width="9.5" height="11.7"/>
				<path class="st43" d="M395.9,148.4l-0.8,2.6l-0.1,0.2l-0.3,0.8l-0.4,1.4c-0.2,0.6,0,1.2,0.4,1.6l0.1,0.1
					c0.1,0.1,0.3,0.2,0.5,0.2l-1.6-0.5c-0.2-0.1-0.3-0.1-0.5-0.2c-0.1-0.1-0.2-0.2-0.3-0.3c-0.3-0.4-0.5-1-0.3-1.5l0.5-1.5l0.3-0.8
					l0.1-0.2l0.8-2.5v-0.1l0.3-0.9c0-0.1,0.1-0.2,0.1-0.2c0.1-0.2,0.2-0.4,0.4-0.5c0.4-0.3,0.9-0.4,1.5-0.3l1.6,0.5
					c0.5,0.1-1-0.1-1.4,0.2c-0.2,0.1-0.4,0.3-0.5,0.6c0,0.1-0.1,0.2-0.1,0.3L395.9,148.4L395.9,148.4z"/>
				<polygon class="st29" points="397.1,155 408.2,158.5 408,159.2 408,159.3 396.8,155.8 396.8,155.8 				"/>
				<path class="st44" d="M408,159.2l0.2-0.7l2.3,0.7c-0.3,0.3-0.7,0.4-1,0.5c-0.2,0-0.4,0-0.5-0.1L408,159.2L408,159.2L408,159.2z
					 M397.1,155l-0.2,0.7v0.1l-0.4-0.1l-1-0.3c-0.2-0.1-0.3-0.1-0.5-0.2l-0.1-0.1c-0.4-0.4-0.6-1-0.4-1.6l0.4-1.4l0.3-0.8l0.1-0.2
					l0.8-2.6v-0.1l0.3-0.9c0-0.1,0.1-0.2,0.1-0.3c0.1-0.2,0.3-0.4,0.5-0.6c0.4-0.3,0.9-0.4,1.4-0.2c-0.1,0.1-0.3,0.3-0.3,0.5
					c0,0.1,0,0.1-0.1,0.2l-0.2,0.5l-0.4,1.1l-0.1,0.2l-0.8,2.6l-0.1,0.2l-0.3,0.8l-0.2,0.6C395.7,153.9,396.2,154.8,397.1,155
					L397.1,155z"/>
			</g>
			<g>
				<polygon class="st0" points="332.5,159.1 358.2,142.1 360.7,146.4 335,163.4 				"/>
				<path class="st45" d="M358.6,145.6c-0.2,0.1-0.3,0.5-0.1,0.7c0.1,0.2,0.4,0.3,0.7,0.2c0.2-0.1,0.3-0.5,0.1-0.7
					C359.1,145.5,358.9,145.4,358.6,145.6z"/>
				<path class="st45" d="M338,160.4c2.3-1,19-12.3,22.4-14.6l0.3,0.6l-25.7,17l-2-3.3C334.4,160.6,336.4,161.1,338,160.4z"/>
				<path class="st46" d="M354.6,138.2L330.8,154c0,0-1.7,1.5-0.6,3.5l0.1,0.2l0,0l0,0l1.4,2.3l0,0v0.1c0.1,0.2,0.6,0.8,1.3,0.4
					l27.2-16.5l0,0h0.1c0.2-0.1,0.8-0.7,0.2-1.7l-2.3-3.8l0,0C358.2,138.4,357.1,136.7,354.6,138.2z"/>
				<path class="st47" d="M354.6,138.2L330.8,154c0,0-0.5,0.5-0.8,1.2c-0.1,0.5,0,1.1,0.3,1.8l0.1,0.2l0,0l0,0l1.4,2.3l0,0v0.1
					c0.1,0.2,0.6,0.8,1.3,0.4l27.2-16.5l0,0h0.1c0.1-0.1,0.2-0.2,0.3-0.4c0-0.2-0.1-0.5-0.2-0.8l-2.3-3.8l0,0
					C358.2,138.4,357.1,136.7,354.6,138.2z"/>
				<path class="st48" d="M354.6,138.2L330.8,154c0,0-0.1,0.1-0.1,0.2c0.1,0.3,0.2,0.5,0.3,0.8l0.1,0.2l0,0l0,0l1.4,2.3l0,0v0.1
					c0.1,0.2,0.6,0.8,1.3,0.4l26.5-16.1l-2.1-3.4l0,0C358.2,138.4,357.1,136.7,354.6,138.2z"/>
				<path class="st47" d="M363.5,150.7l-30.2,10.6l0,0l0,0l0,0c-0.1,0-0.9,0.4-0.6,1.3l0.6,1.8l0,0c0,0,0.2,0.5,0.8,0.3l30.6-10.8
					l0,0c0,0,0.6-0.2,0.4-0.8l-0.7-2l0,0C364.3,151.1,364.1,150.4,363.5,150.7z"/>
				<path class="st48" d="M363.5,150.7L334,161.1l0.4,1l0,0c0,0,0.2,0.5,0.8,0.3l29.6-10.4l-0.3-0.9l0,0
					C364.3,151.1,364.1,150.4,363.5,150.7z"/>
				<path class="st46" d="M364.9,153.4l-30.6,10.8c-0.5,0.2-0.8-0.3-0.8-0.3l-0.6-1.8c-0.1-0.2-0.1-0.3-0.1-0.4
					c-0.2,0.2-0.3,0.5-0.1,1l0.6,1.8c0,0,0.2,0.5,0.8,0.3l30.6-10.8l0,0c0,0,0.5-0.2,0.4-0.7C365,153.3,364.9,153.4,364.9,153.4
					L364.9,153.4z"/>
			</g>
			<g>
				<path class="st49" d="M371.8,152.3h8.5c0.6,0,1,0.5,1,1.1v4.4c0,0.6-0.5,1.1-1.1,1.1h-8.5c-0.6,0-1-0.5-1.1-1v-4.4
					C370.8,152.8,371.3,152.3,371.8,152.3z"/>
				<path class="st50" d="M371.8,152.3h7.5c0,0,0,0,0,0.1v4.4c0,0.6-0.5,1.1-1.1,1.1h-7.5c0,0,0,0,0-0.1v-4.4
					C370.8,152.8,371.3,152.3,371.8,152.3z"/>
				<polygon class="st51" points="371.6,155.1 377.4,155.1 377.4,154.7 380.9,154.7 380.9,155.1 380.9,157.7 377.4,157.7 
					371.6,157.7 				"/>
				<polygon class="st52" points="380.6,157.7 377.4,157.7 371.6,157.7 371.6,155.3 380.6,155.3 				"/>
				<rect x="371.6" y="155.5" class="st53" width="8.9" height="2.2"/>
				<path class="st54" d="M376,156.2c0.3,0,0.6,0.3,0.6,0.6s-0.3,0.6-0.6,0.6c-0.3,0-0.6-0.3-0.6-0.6
					C375.4,156.4,375.7,156.2,376,156.2z"/>
				<path class="st55" d="M376.4,157.1c-0.1,0.1-0.3,0.2-0.4,0.2c-0.3,0-0.6-0.3-0.6-0.6c0-0.1,0-0.2,0.1-0.3l0,0l0,0l0,0
					c0,0.1,0,0.1,0,0.2c0,0.3,0.3,0.6,0.6,0.6C376.2,157.2,376.4,157.1,376.4,157.1C376.5,157,376.4,157,376.4,157.1z"/>
				<path class="st55" d="M375.9,156.4L375.9,156.4c0.1-0.1,0.1,0,0.1,0v0.2h0.2c0,0,0.1,0,0.1,0.1c0,0,0,0.1-0.1,0.1H376v0.2
					c0,0,0,0.1-0.1,0.1c0,0-0.1,0-0.1-0.1v-0.2h-0.2c0,0-0.1,0-0.1-0.1c0,0,0-0.1,0.1-0.1h0.2v-0.2H375.9z"/>
				<polygon class="st52" points="380.9,154.7 379.6,154.7 377.4,154.7 377.4,155.1 380.9,155.1 				"/>
				<rect x="371.6" y="157.5" class="st56" width="8.9" height="0.2"/>
				<rect x="371.6" y="157.7" class="st57" width="8.9" height="0.2"/>
				<rect x="371.6" y="155.5" class="st56" width="8.9" height="0.2"/>
				<path class="st58" d="M378.4,155.5h2v0.2h-2.2C378.3,155.6,378.4,155.6,378.4,155.5z"/>
				<path class="st59" d="M381.2,157.6c0,0.6-0.5,1.1-1.1,1.1h-8.5c-0.2,0-0.4-0.1-0.6-0.2c0.2,0.2,0.5,0.4,0.8,0.4h8.5
					c0.6,0,1.1-0.5,1.1-1.1v-4.4c0-0.3-0.2-0.7-0.4-0.8c0.1,0.2,0.2,0.4,0.2,0.6V157.6z"/>
			</g>
			<g>
				<g>
					<path class="st60" d="M422.4,157.1c1-4,5.3-20.5,5.7-21.4l16.5,6l-10,20.8c0,0-0.5,1.1-2.1,1.1s-6.2-1.3-9.6-4.3
						C422.1,158.7,422.1,158.2,422.4,157.1z"/>
					<path class="st18" d="M430,136.5l3.5,1.3l-7.8,23.6c-0.6-0.4-1.2-0.8-1.8-1.2C425.6,153.6,428.6,141.9,430,136.5z"/>
					<path class="st11" d="M441.5,140.7l3.2,1.1l-10,20.8c0,0-0.5,1.1-2.1,1.2c-0.3,0-0.6,0-1-0.1
						C434.7,157.3,439.3,146.1,441.5,140.7L441.5,140.7z M439.3,139.9l1.2,0.5c-1.4,3.4-6,14.6-10.2,23c-0.4-0.1-0.8-0.2-1.3-0.4
						C433.3,154.6,437.9,143.3,439.3,139.9z"/>
					<path class="st18" d="M428.1,135.8c0.4,2.3,14.5,7.8,16.5,6c0.2-0.2,0-0.4-0.4-0.8c-3-2.9-10.7-6.1-15-5.8
						C428.5,135.2,428,135.4,428.1,135.8z"/>
					<path class="st15" d="M429.3,136.1c0.5,1.7,12.6,6.5,14.2,5.4c0.1-0.1,0-0.3-0.4-0.6c-2.7-2.3-9.3-5-13-5.1
						C429.6,135.7,429.2,135.8,429.3,136.1z"/>
					<path class="st39" d="M429.7,136.6c2,1.7,9.8,4.9,12.8,5C439.7,139.4,433.3,136.7,429.7,136.6L429.7,136.6z"/>
				</g>
				<g>
					<g>
						<path class="st61" d="M440.3,123.8L440.3,123.8c0.9,0.3,1.3,1.3,1,2.2l-5.3,13.7c-1.1-0.4-2.2-0.9-3.2-1.4l5.3-13.6
							C438.4,123.9,439.4,123.5,440.3,123.8z"/>
						<path class="st62" d="M439.7,123.7c0.5,0.5,0.8,1.2,0.5,1.9l-5.3,13.7c0.4,0.1,0.7,0.3,1.1,0.4l5.3-13.7
							c0.3-0.9-0.1-1.9-1-2.2C440.1,123.7,439.9,123.7,439.7,123.7z"/>
						<path class="st0" d="M438.8,125.9L438.8,125.9c0.3,0.1,0.4,0.4,0.3,0.7l-1.8,4.7c-0.1,0.3-0.4,0.4-0.7,0.3l0,0
							c-0.3-0.1-0.4-0.4-0.3-0.7l1.8-4.7C438.2,125.9,438.5,125.8,438.8,125.9z"/>
					</g>
					<g>
						<path class="st24" d="M434.6,129.2L434.6,129.2c0.5,0.2,0.8,0.8,0.6,1.3l-3,7.6c-0.7-0.4-1.3-0.7-1.8-1l2.9-7.4
							C433.5,129.2,434.1,129,434.6,129.2z"/>
						<path class="st29" d="M434,129.1c0.4,0.3,0.6,0.8,0.4,1.2l-2.9,7.4c0.2,0.1,0.5,0.2,0.7,0.4l3-7.6c0.2-0.5-0.1-1.1-0.6-1.3
							C434.4,129.1,434.2,129.1,434,129.1z"/>
						<path class="st63" d="M433.4,130.8L433.4,130.8c0.2,0.1,0.2,0.2,0.2,0.4l-1.2,3c-0.1,0.2-0.2,0.2-0.4,0.2l0,0
							c-0.2-0.1-0.2-0.2-0.2-0.4l1.2-3C433.1,130.9,433.3,130.8,433.4,130.8z"/>
					</g>
					<g>
						<path class="st48" d="M440.8,131.5L440.8,131.5c0.3,0.1,0.5,0.5,0.4,0.9l-3.2,8.1c-0.4-0.1-0.8-0.3-1.3-0.4l3.2-8.2
							C440.1,131.6,440.5,131.4,440.8,131.5z"/>
						<path class="st64" d="M440.3,131.5c0.3,0.2,0.4,0.5,0.3,0.8l-3.1,8c0.2,0.1,0.3,0.1,0.5,0.2l3.2-8.1c0.1-0.3,0-0.7-0.4-0.9
							C440.6,131.5,440.5,131.5,440.3,131.5z"/>
						<path class="st65" d="M439.9,133.1L439.9,133.1c0.1,0,0.1,0.1,0.1,0.2l-1.3,3.4c0,0.1-0.1,0.1-0.2,0.1l0,0
							c-0.1,0-0.1-0.1-0.1-0.2l1.3-3.4C439.7,133.1,439.8,133.1,439.9,133.1z"/>
					</g>
					<g>
						<path class="st66" d="M444.2,130.8L444.2,130.8c0.5,0.2,0.8,0.8,0.6,1.3l-3.6,9.3c-0.6-0.1-1.3-0.3-2-0.5l3.7-9.5
							C443.1,130.9,443.7,130.6,444.2,130.8z"/>
						<path class="st67" d="M443.9,132.1l-3.5,9.1c0.3,0.1,0.6,0.1,0.8,0.2l3.6-9.3c0.2-0.5-0.1-1.1-0.6-1.3c-0.3-0.1-0.5-0.1-0.8,0
							C443.9,131.1,444.1,131.6,443.9,132.1z"/>
						<path class="st12" d="M443,132.7L443,132.7c0.1,0.1,0.2,0.2,0.2,0.4l-1.4,3.6c-0.1,0.1-0.2,0.2-0.4,0.2l0,0
							c-0.1-0.1-0.2-0.2-0.2-0.4l1.4-3.6C442.7,132.7,442.8,132.6,443,132.7z"/>
					</g>
				</g>
			</g>
		</g>
		<path class="st2" d="M443.5,23.3c0.2,0,0.5,0.1,0.6,0.3l0,0c0.2,0.2,0.2,0.4,0.2,0.6s-0.1,0.5-0.3,0.6c-0.2,0.2-0.4,0.3-0.6,0.3
			s-0.5-0.1-0.6-0.3l0,0c-0.2-0.2-0.3-0.4-0.3-0.6s0.1-0.5,0.3-0.6C443.1,23.4,443.3,23.3,443.5,23.3z"/>
		<path class="st2" d="M426.4,171c0.2,0,0.5,0.1,0.6,0.3l0,0c0.2,0.2,0.2,0.4,0.2,0.6c0,0.2-0.1,0.5-0.3,0.6
			c-0.2,0.2-0.4,0.3-0.6,0.3s-0.5-0.1-0.6-0.3l0,0c-0.2-0.2-0.3-0.4-0.3-0.6c0-0.2,0.1-0.5,0.3-0.6C425.9,171.1,426.2,171,426.4,171
			z"/>
		<path class="st2" d="M373.1,167.8c0.2,0,0.3,0.1,0.3,0.3s-0.1,0.3-0.3,0.3c-0.6,0-0.9-0.3-1.2-0.7c-0.2-0.3-0.4-0.5-0.8-0.5
			c-0.3,0-0.6,0.3-0.8,0.5c-0.3,0.4-0.6,0.7-1.2,0.7s-0.9-0.3-1.2-0.7c-0.2-0.3-0.4-0.5-0.8-0.5c-0.3,0-0.6,0.3-0.8,0.5
			c-0.3,0.4-0.6,0.7-1.2,0.7s-0.9-0.3-1.2-0.7c-0.2-0.3-0.4-0.5-0.8-0.5c-0.3,0-0.6,0.3-0.8,0.5c-0.3,0.4-0.6,0.7-1.2,0.7
			s-0.9-0.3-1.2-0.7c-0.2-0.3-0.4-0.5-0.8-0.5s-0.6,0.3-0.8,0.5c-0.3,0.4-0.6,0.7-1.2,0.7s-0.9-0.3-1.2-0.7
			c-0.2-0.3-0.4-0.5-0.8-0.5c-0.3,0-0.6,0.3-0.8,0.5c-0.3,0.4-0.6,0.7-1.2,0.7c-0.2,0-0.3-0.2-0.3-0.3c0-0.2,0.2-0.3,0.3-0.3
			c0.3,0,0.5-0.2,0.7-0.5c0.3-0.4,0.6-0.7,1.2-0.7s0.9,0.4,1.2,0.7c0.2,0.2,0.4,0.5,0.7,0.5l0,0l0,0l0,0l0,0l0,0l0,0l0,0
			c0.3,0,0.5-0.2,0.7-0.5c0.3-0.4,0.6-0.7,1.2-0.7s0.9,0.4,1.2,0.7c0.2,0.2,0.4,0.5,0.7,0.5l0,0l0,0l0,0l0,0l0,0l0,0l0,0
			c0.3,0,0.5-0.2,0.7-0.5c0.3-0.4,0.6-0.7,1.2-0.7s0.9,0.4,1.2,0.7c0.2,0.2,0.4,0.5,0.7,0.5l0,0l0,0l0,0l0,0l0,0l0,0l0,0
			c0.3,0,0.5-0.2,0.7-0.5c0.3-0.4,0.6-0.7,1.2-0.7s0.9,0.4,1.2,0.7c0.2,0.2,0.4,0.5,0.7,0.5l0,0l0,0l0,0l0,0l0,0l0,0l0,0
			c0.3,0,0.5-0.2,0.7-0.5c0.3-0.4,0.6-0.7,1.2-0.7s0.9,0.4,1.2,0.7C372.6,167.6,372.8,167.9,373.1,167.8z"/>
		<path class="st2" d="M452.5,38.6c0.2,0,0.3,0.1,0.3,0.3s-0.1,0.3-0.3,0.3c-0.6,0-0.9-0.3-1.2-0.7c-0.2-0.3-0.4-0.5-0.8-0.5
			c-0.3,0-0.6,0.3-0.8,0.5c-0.3,0.4-0.6,0.7-1.2,0.7s-0.9-0.3-1.2-0.7c-0.2-0.3-0.4-0.5-0.8-0.5s-0.6,0.3-0.8,0.5
			c-0.3,0.4-0.6,0.7-1.2,0.7s-0.9-0.3-1.2-0.7c-0.2-0.3-0.4-0.5-0.8-0.5s-0.6,0.3-0.8,0.5c-0.3,0.4-0.6,0.7-1.2,0.7
			s-0.9-0.3-1.2-0.7c-0.2-0.3-0.4-0.5-0.8-0.5c-0.3,0-0.6,0.3-0.8,0.5c-0.3,0.4-0.6,0.7-1.2,0.7s-0.9-0.3-1.2-0.7
			c-0.2-0.3-0.4-0.5-0.8-0.5c-0.3,0-0.6,0.3-0.8,0.5c-0.3,0.4-0.6,0.7-1.2,0.7c-0.2,0-0.3-0.2-0.3-0.3c0-0.2,0.2-0.3,0.3-0.3
			c0.3,0,0.5-0.2,0.7-0.5c0.3-0.4,0.6-0.7,1.2-0.7s0.9,0.4,1.2,0.7c0.2,0.2,0.4,0.5,0.7,0.5l0,0l0,0l0,0l0,0l0,0l0,0l0,0
			c0.3,0,0.5-0.2,0.7-0.5c0.3-0.4,0.6-0.7,1.2-0.7s0.9,0.4,1.2,0.7c0.2,0.2,0.4,0.5,0.7,0.5l0,0l0,0l0,0l0,0l0,0l0,0l0,0
			c0.3,0,0.5-0.2,0.7-0.5c0.3-0.4,0.6-0.7,1.2-0.7s0.9,0.4,1.2,0.7c0.2,0.2,0.4,0.5,0.7,0.5l0,0l0,0l0,0l0,0l0,0l0,0l0,0
			c0.3,0,0.5-0.2,0.7-0.5c0.3-0.4,0.6-0.7,1.2-0.7s0.9,0.4,1.2,0.7c0.2,0.2,0.4,0.5,0.7,0.5l0,0l0,0l0,0l0,0l0,0l0,0l0,0
			c0.3,0,0.5-0.2,0.7-0.5c0.3-0.4,0.6-0.7,1.2-0.7s0.9,0.4,1.2,0.7C452,38.4,452.2,38.6,452.5,38.6z"/>
		<path class="st2" d="M361.4,16.1c0.2,0,0.3,0.1,0.3,0.3c0,0.2-0.1,0.3-0.3,0.3c-0.6,0-0.9-0.3-1.2-0.7c-0.2-0.3-0.4-0.5-0.8-0.5
			c-0.3,0-0.6,0.3-0.8,0.5c-0.3,0.4-0.6,0.7-1.2,0.7s-0.9-0.3-1.2-0.7c-0.2-0.3-0.4-0.5-0.8-0.5s-0.6,0.3-0.8,0.5
			c-0.3,0.4-0.6,0.7-1.2,0.7s-0.9-0.3-1.2-0.7c-0.2-0.3-0.4-0.5-0.8-0.5s-0.6,0.3-0.8,0.5c-0.3,0.4-0.6,0.7-1.2,0.7
			s-0.9-0.3-1.2-0.7c-0.2-0.3-0.4-0.5-0.8-0.5c-0.3,0-0.6,0.3-0.8,0.5c-0.3,0.4-0.6,0.7-1.2,0.7s-0.9-0.3-1.2-0.7
			c-0.2-0.3-0.4-0.5-0.8-0.5c-0.3,0-0.6,0.3-0.8,0.5c-0.3,0.4-0.6,0.7-1.2,0.7c-0.2,0-0.3-0.2-0.3-0.3c0-0.2,0.2-0.3,0.3-0.3
			c0.3,0,0.5-0.2,0.7-0.5c0.3-0.4,0.6-0.7,1.2-0.7s0.9,0.4,1.2,0.7c0.2,0.2,0.4,0.5,0.7,0.5l0,0l0,0l0,0l0,0l0,0l0,0l0,0
			c0.3,0,0.5-0.2,0.7-0.5c0.3-0.4,0.6-0.7,1.2-0.7s0.9,0.4,1.2,0.7c0.2,0.2,0.4,0.5,0.7,0.5l0,0l0,0l0,0l0,0l0,0l0,0l0,0
			c0.3,0,0.5-0.2,0.7-0.5c0.3-0.4,0.6-0.7,1.2-0.7s0.9,0.4,1.2,0.7c0.2,0.2,0.4,0.5,0.7,0.5l0,0l0,0l0,0l0,0l0,0l0,0l0,0
			c0.3,0,0.5-0.2,0.7-0.5c0.3-0.4,0.6-0.7,1.2-0.7s0.9,0.4,1.2,0.7c0.2,0.2,0.4,0.5,0.7,0.5l0,0l0,0l0,0l0,0l0,0l0,0l0,0
			c0.3,0,0.5-0.2,0.7-0.5c0.3-0.4,0.6-0.7,1.2-0.7s0.9,0.4,1.2,0.7C360.9,15.9,361.1,16.1,361.4,16.1z"/>
		<path class="st2" d="M451.2,19.4c0.7,0,1.3,0.3,1.7,0.7l0,0c0.4,0.4,0.7,1,0.7,1.7s-0.3,1.3-0.7,1.7c-0.4,0.4-1,0.7-1.7,0.7
			s-1.3-0.3-1.7-0.7l0,0c-0.4-0.4-0.7-1-0.7-1.7s0.3-1.3,0.7-1.7C449.9,19.7,450.5,19.4,451.2,19.4z"/>
		<path class="st2" d="M311.3,144.3c-0.2,0-0.5-0.1-0.6-0.3l0,0c-0.2-0.2-0.2-0.4-0.2-0.6c0-0.2,0.1-0.5,0.3-0.6
			c0.2-0.2,0.4-0.3,0.6-0.3s0.5,0.1,0.6,0.3l0,0c0.2,0.2,0.3,0.4,0.3,0.6c0,0.2-0.1,0.5-0.3,0.6
			C311.8,144.2,311.5,144.3,311.3,144.3z"/>
		<path class="st2" d="M303.7,148.2c-0.7,0-1.3-0.3-1.7-0.7l0,0c-0.4-0.4-0.7-1-0.7-1.7s0.3-1.3,0.7-1.7c0.4-0.4,1-0.7,1.7-0.7
			s1.3,0.3,1.7,0.7l0,0c0.4,0.4,0.7,1,0.7,1.7s-0.3,1.3-0.7,1.7C304.9,147.9,304.3,148.2,303.7,148.2z"/>
		<path class="st2" d="M417.7,176.5c-0.7,0-1.3-0.3-1.7-0.7l0,0c-0.4-0.4-0.7-1-0.7-1.7s0.3-1.3,0.7-1.7c0.4-0.4,1-0.7,1.7-0.7
			s1.3,0.3,1.7,0.7l0,0c0.4,0.4,0.7,1,0.7,1.7s-0.3,1.3-0.7,1.7S418.4,176.5,417.7,176.5z"/>
	</g>
	<g>
		<path class="st68" d="M322.3,200.1h0.7c1.1,0,1.8,0.4,2,1.3v0.3c0,1.3-1.3,3.1-3.9,5.6l-0.5,0.1h-0.2c-1.1,0-1.7-0.6-1.9-1.9
			c0.1-0.3,0.4-0.8,0.9-1.5c-3.9,0.7-7.1,1.8-9.7,3.6c-1.5,0.8-3.7,2.6-6.6,5.2c-2.4,2.6-3.6,4.9-3.6,6.9c0,1.7,1.2,3.2,3.5,4.7
			c2.1,1.1,4.4,1.6,7.1,1.6h1.1c3.6,0,7.7-0.7,12.4-2.2c2.1-0.8,3.9-1.7,5.4-2.6c2.6-1.8,4-3.1,4-3.7c0-0.4-1.2-1.3-3.6-2.4
			c-0.8-0.5-1.1-1.1-1.1-1.7v-0.1c0-1.1,0.6-1.8,1.9-1.9h0.1l2.9,0.4l0.8,0.1l3.3-0.1h0.2h0.8c0.9,0,1.5,0.5,1.8,1.6v0.3
			c0,1-0.6,1.6-1.9,1.8h-0.7l-1.2,0.1c0.4,0.8,0.6,1.4,0.6,2c0,1.5-1.6,3.3-4.8,5.3c-2,1.5-4.8,2.9-8.1,4.1
			c-4.7,1.5-9.4,2.3-14.1,2.3c-7.2,0-11.7-2.3-13.3-6.9c-0.2-0.8-0.3-1.6-0.3-2.3v-0.5c0-2.9,2.3-6.5,7-10.7
			c3.4-2.7,6.2-4.5,8.5-5.4C316.4,201.2,319.9,200.1,322.3,200.1z"/>
		<path class="st68" d="M346.2,208.5c-0.1,0.5-0.2,1.1-0.2,1.9s0.6,1.3,1.7,1.4c1-0.1,1.6,0.5,1.9,1.7v0.4c-0.3,1.1-0.9,1.7-1.9,1.7
			c-2.6,0-4-0.9-4.3-2.9c-0.7,1.1-1.4,1.8-2.1,2.2s-1.6,0.7-2.7,0.7c-1.4-0.2-2-0.9-2-2.1s0.7-1.8,1.9-2c1.8,0,3.3-1.5,4.2-4.4
			s1.7-4.6,2.3-5.2s1.2-0.8,1.8-0.6c1.3,0.7,1.5,1.9,0.6,3.8C346.7,206.9,346.3,208,346.2,208.5z M354,193.3c0.4,0,0.7,0.2,0.9,0.7
			l-0.4,1.6c-0.1,0.5-2.8,1-8.2,1.3h-0.1c-1.1,0-1.6-0.4-1.6-1.2c0-1,0.6-1.7,1.9-2.1L354,193.3z"/>
		<path class="st68" d="M374.1,212v3.6c-9,0.8-18.1,0.8-27.3,0v-3.7C356.1,212.5,365.2,212.5,374.1,212z M369,196.1
			c0.5,0,1,0.2,1.2,0.7l-0.6,1.6c-0.1,0.5-4.8,1.3-13.8,2.2h-0.2c-1.5,0-2.3-0.4-2.3-1.2c0-1,0.8-1.7,2.5-2.1
			C358.2,196.9,362.6,196.5,369,196.1z M361.8,185.2c1.1,0,2.1,0.8,2.9,2.3v0.5c0,0.8-0.7,1.3-2.1,1.6h-0.5c-1.2,0-1.9-0.9-2.2-2.7
			C360,185.9,360.6,185.4,361.8,185.2z"/>
		<path class="st68" d="M386.4,220.9c0.5,0,1,0.2,1.2,0.7l-0.6,1.6c-0.1,0.5-4.8,1.3-13.8,2.2H373c-1.5,0-2.3-0.4-2.3-1.2
			c0-1,0.8-1.7,2.5-2.1C375.6,221.7,380,221.3,386.4,220.9z M378.6,214.5c-1.7,0.9-3.6,1.3-5.6,1.1c-1.3-0.1-1.9-0.8-1.9-1.8
			s0.7-1.7,1.8-1.9c2.7,0,4.6-0.6,5.8-1.7s2-2.7,2.3-4.8s0.9-3.4,1.7-3.9c0-0.1,0.2-0.1,0.7-0.2c1.7,0.3,2.2,1.6,1.6,3.8
			c-0.6,2.9-1.4,4.9-2.4,6.2S380.3,213.5,378.6,214.5z M378.3,227c1.1,0,2.1,0.8,2.9,2.3v0.5c0,0.8-0.7,1.3-2.1,1.6h-0.5
			c-1.2,0-1.9-0.9-2.2-2.7C376.5,227.6,377.1,227.1,378.3,227z"/>
		<path class="st68" d="M405.1,204.2c2.8,0,4.6,1,5.5,3c0.2,0.6,0.4,1.9,0.5,3.8c0.1,0.5,0.3,0.8,0.7,0.8c1,0.4,1.5,1,1.5,1.7v0.4
			c0,1-0.6,1.6-1.7,1.9h-1.3c-1.3,0-2.1-0.5-2.5-1.4c-0.4-0.4-0.6-2.2-0.9-5.3c-0.2-0.9-0.7-1.4-1.4-1.4h-0.4h-0.3
			c-2.5,0-5.4,1.9-8.9,5.7c-1.2,1.5-1.9,2.7-2.1,3.4h0.1l0.8-0.1h0.2c1.3,0.2,1.9,0.8,1.9,1.8v0.1l0,0c0,1.5-1.2,2.2-3.5,2.2
			c-1.9,0-3-0.8-3.5-2.4l-0.1-0.6v-0.5c0-2.2,2.1-5.2,6.3-9C399.4,205.5,402.4,204.2,405.1,204.2z"/>
		<path class="st68" d="M414.7,196.9c-0.2-1.8-0.1-2.9,0.3-3.4s1-0.6,1.7-0.4s1.2,1.3,1.6,3.4s0.5,4.9,0.6,8.3s-0.4,6-1.5,7.8
			s-2.9,2.8-5.7,3c-1.3-0.1-2-0.7-2-1.6v-0.5c0-1.1,0.7-1.6,2-1.6c1.6,0,2.6-0.8,3.2-2.4s0.7-3.7,0.5-6.1S414.9,198.7,414.7,196.9z"
			/>
		<path class="st68" d="M430.3,201.9c1.4,0.1,2.3,1,2.7,2.7c0.1,0.6,0.1,1.1,0,1.6c-0.3,3.2-2.1,7.2-5.3,11.9c-1,1.5-2.9,3.5-5.6,6
			c-2.8,2.5-4.5,3.9-5.3,4.1h-0.4c-0.6,0-1-0.5-1.4-1.2c-0.1-0.2-0.1-0.5-0.1-0.8v-0.1c0.1-0.9,0.7-1.7,1.8-2.3
			c1.2-1,2.5-2.2,3.9-3.5c2-1.9,3.4-3.6,4.4-5.1c-2-0.8-2.9-2.2-2.7-4.1c0-2,1.4-4.5,4.3-7.6C427.8,202.3,429.1,201.8,430.3,201.9z
			 M426.3,210c-0.4,0.9-0.2,1.5,0.6,1.6c0.4-0.3,1-1.4,1.7-3.3l0.4-1.9C427.6,207.8,426.7,209,426.3,210z M427.9,213.4
			c0.7-1.4,2.2-1.9,4.4-1.7c0.8,0.1,1.3,0.4,1.6,0.9s0.4,1.1,0.2,1.6s-0.5,0.9-1,1.1s-1.7,0.3-3.5,0.2S427.2,214.8,427.9,213.4z"/>
		<path class="st68" d="M441.3,197.2c-0.4-2.2-0.4-3.5,0.1-4.1s1.1-0.6,1.7-0.1s1.1,1.8,1.6,3.9s0.6,4.8,0.3,8.1s-1.7,5.8-4.1,7.6
			s-5.2,2.8-8.3,3c-1.3-0.1-2-0.7-2-1.6v-0.5c0-1.1,0.7-1.6,2-1.6c1.9,0,3.8-0.8,5.8-2.4s3-3.5,3.3-5.7S441.8,199.3,441.3,197.2z
			 M463.2,171.8c0.9,0,1.5,0.5,1.8,1.5v0.5c0,0.6-1.9,2.1-5.8,4.4s-6.9,4.2-9.3,5.5s-4.2,2.3-5.6,2.8s-2.2,0.3-2.4-0.8
			s0.3-1.9,1.6-2.6s3.6-1.8,6.9-3.5s7.2-4.2,11.8-7.5L463.2,171.8z"/>
	</g>
	<g>
		<path class="st68" d="M254.7,268c1.9,0,3.1,0.7,3.6,2c0.2,0.4,0.3,1.3,0.4,2.5c0.1,0.3,0.2,0.5,0.5,0.5c0.7,0.3,1,0.7,1,1.1v0.2
			c0,0.6-0.4,1.1-1.1,1.3h-0.9c-0.8,0-1.4-0.3-1.7-0.9c-0.2-0.3-0.4-1.5-0.6-3.5c-0.2-0.6-0.5-0.9-0.9-0.9h-0.2h-0.2
			c-1.6,0-3.6,1.3-5.9,3.8c-0.8,1-1.3,1.8-1.4,2.3l0,0l0.5-0.1h0.1c0.8,0.1,1.3,0.5,1.3,1.2l0,0l0,0c0,1-0.8,1.5-2.3,1.5
			c-1.2,0-2-0.5-2.3-1.6V277v-0.3c0-1.5,1.4-3.5,4.2-6C250.9,268.9,252.9,268,254.7,268z"/>
		<path class="st68" d="M266.5,272.9c2.9-0.6,5.3-1.6,7.1-3.1c1.9-1.5,3-1.5,3.3,0.1l0,0c0.1,0.7-0.8,1.6-2.7,2.7
			c-1.8,1.1-4.3,2-7.3,2.5s-5.3,0.8-6.8,0.6c-1.5-0.1-2.3-0.4-2.3-0.7c-0.2-0.2-0.4-0.5-0.4-0.8c0.1-0.8,0.5-1.2,1.2-1.2
			C261,273.5,263.6,273.4,266.5,272.9z"/>
		<path class="st68" d="M288.1,266.6c0.5,0,0.8,0.2,1.1,0.7c0.1,0.1,0.1,0.3,0.1,0.5l0,0c0,0.3-0.2,0.6-0.5,1.1
			c-0.6,1-1.2,1.9-1.9,2.9c-0.4,0.8-1.1,1.7-2,2.8c-1.7,2.2-3.7,4.7-6.2,7.4c-1.1,1.2-2,2.2-2.9,3.1c-0.4,0.4-0.7,0.7-0.8,0.7
			c-0.1,0.1-0.3,0.1-0.5,0.1c-0.5,0-0.8-0.3-1.1-0.8c-0.1-0.1-0.1-0.3-0.1-0.4v-0.1c0-0.4,0.2-0.8,0.7-1.1c0,0,0.9-0.9,2.6-2.6
			c1.9-1.9,3-3.1,3.5-3.7c1.4-1.6,2.5-3.1,3.5-4.5c1.2-1.8,2.3-3.7,3.4-5.6C287.3,266.7,287.7,266.6,288.1,266.6z"/>
		<path class="st68" d="M298.4,263.4c0.5-0.1,0.8,0,1.1,0.5c0.3,0.4,0.1,1.5-0.6,3.3s-0.9,3.2-0.8,4.3c0.1,1.1,0.5,1.7,1,1.8
			c0.6,0,1,0.3,1.2,0.9v0.2v0.2c0,0.5-0.3,0.9-0.9,1.1h-0.3c-1.1,0-1.9-0.3-2.4-0.9c-0.4-0.6-0.6-1.5-0.6-2.8l0,0
			c-1.3,1.9-2.5,3.3-3.8,4.2c-1.1,0.8-2,1.4-2.9,1.8c-0.7,0.4-1.1,0.5-1.3,0.5H288c-0.6,0-1.1-0.3-1.4-0.9v-0.3v-0.1
			c0-0.6,0.4-1,1.3-1.3c1.4-0.7,2.5-1.3,3.3-2s1.8-1.7,2.9-3c1.1-1.4,2-2.9,2.7-4.6C297.4,264.4,298,263.5,298.4,263.4z"/>
		<path class="st68" d="M306.3,266.7L306.3,266.7c0.7,0,1.3,0.3,1.7,1c0.4,0.7,0.6,1.6,0.6,2.9c0,1.2-0.4,2.4-1,3.4
			c-0.7,1.1-1.7,1.6-3.2,1.6c-1.3-0.1-2.2-0.6-2.7-1.6c-1,1.1-1.8,1.7-2.6,1.5c-0.7-0.2-1-0.5-1-1.1s0.1-1,0.5-1.2
			c0.3-0.2,0.7-0.3,1.1-0.4s0.8-0.4,1.3-0.9c0.5-0.6,1.2-1.6,2.2-3C304.1,267.5,305.1,266.7,306.3,266.7z M304.3,273.3
			c0.6,0.2,1.2,0,1.7-0.6c0.6-0.5,0.8-1.1,0.8-1.8c0-0.7-0.3-1.1-0.7-1.3s-1,0.2-1.7,1.1s-1.1,1.5-1.2,1.8
			C303.3,272.9,303.7,273.1,304.3,273.3z"/>
		<path class="st68" d="M343.7,265.2c0.8,0,1.2,0.5,1.3,1.3c-1.2,3.6-2.8,6-5,7s-4.2,1.6-6.1,1.9s-4.2,0.4-6.8,0.4
			c-5.2,0-8.4-1.1-9.6-3.3c-0.2-0.6-0.4-1.1-0.4-1.5c0-1.9,1.4-3.7,4.2-5.5c1.2-0.6,2.4-1.1,3.7-1.4c2-0.5,3.7-0.7,5.1-0.7
			c0.5,0,0.9,0.4,1.2,1.1v0.4c0,0.6-0.4,1-1.2,1.2h-0.8c-3.2,0-6,0.9-8.2,2.7c-1,1-1.5,1.7-1.5,2.3c0,1.4,1.9,2.2,5.7,2.5h1.9l0,0
			c6-0.3,9.9-1,11.7-2.2c1.8-1.2,2.8-2.4,3.1-3.7c0.3-1.3,0.6-2.1,1.1-2.4C343.3,265.2,343.5,265.2,343.7,265.2z M340.1,255.7
			c0.4,0,0.6,0.1,0.8,0.4l-0.4,1.1c-0.1,0.4-3.2,0.8-9.2,1.4h-0.1c-1,0-1.5-0.3-1.5-0.8c0-0.7,0.6-1.1,1.7-1.4
			C333,256.2,335.9,255.9,340.1,255.7z M344.4,267.8c-0.7,1.8-0.9,3.1-0.7,3.7c0.2,0.7,0.6,1.2,1.3,1.5c0.5,0.1,0.9,0.3,1.1,0.6
			c0.2,0.4,0.2,0.7,0.1,1.1s-0.3,0.6-0.7,0.7s-0.9,0.1-1.5-0.1c-0.7-0.2-1.3-0.7-1.7-1.5c-0.5-0.7-0.6-1.7-0.4-2.9
			c0.2-1.2,0.8-2.4,1.9-3.8C344.9,265.8,345.1,266,344.4,267.8z"/>
		<path class="st68" d="M350.4,277.7c0.3,0,0.6,0.1,0.7,0.4l-0.4,1.1c-0.1,0.4-2.3,0.8-6.5,1.2h-0.1c-0.9,0-1.4-0.3-1.4-0.8
			c0-0.7,0.5-1.1,1.5-1.4L350.4,277.7z M348.6,274.8c-1.1,0.6-2.4,0.9-3.8,0.7c-0.9-0.1-1.3-0.5-1.2-1.2c0.1-0.7,0.4-1.1,1.2-1.3
			c1.8,0,3.1-0.4,3.9-1.1s1.3-1.8,1.5-3.2c0.2-1.4,0.6-2.3,1.1-2.6c0-0.1,0.2-0.1,0.5-0.1c1.1,0.2,1.5,1.1,1.1,2.5
			c-0.4,1.9-0.9,3.3-1.6,4.1C350.6,273.5,349.7,274.2,348.6,274.8z"/>
		<path class="st68" d="M362.1,266.5c0.5,0,0.8,0.2,1.1,0.7c0.1,0.2,0.1,0.3,0.1,0.5l0,0c0,0.3-0.1,0.8-0.4,1.5s-0.5,1.4-0.8,1.9
			c-0.3,0.6-0.3,1-0.1,1.4c0.2,0.4,0.5,0.6,0.9,0.7s0.7,0.5,0.7,1.2c0,0.5-0.3,0.9-0.8,1.1c-0.1,0-0.3,0.1-0.4,0.1h-0.2
			c-1.3-0.1-2-0.6-2.2-1.6c-1.7,2.5-3.9,5.3-6.6,8.2c-1.1,1.2-2.1,2.3-2.9,3.2c-0.4,0.4-0.7,0.7-0.8,0.7c-0.1,0.1-0.3,0.1-0.5,0.1
			c-0.5,0-0.9-0.3-1.1-0.8c-0.1-0.1-0.1-0.3-0.1-0.4v-0.1c0-0.4,0.2-0.8,0.7-1.2c0,0,0.9-0.9,2.7-2.7c1.9-1.9,3.1-3.2,3.5-3.8
			c1.4-1.6,2.6-3.2,3.5-4.6c1.1-1.7,1.9-3.2,2.2-4.5C361.1,266.9,361.6,266.3,362.1,266.5z"/>
		<path class="st68" d="M367.8,277.7c0.3,0,0.6,0.1,0.7,0.4l-0.4,1.1c-0.1,0.4-2.3,0.8-6.5,1.2h-0.1c-0.9,0-1.4-0.3-1.4-0.8
			c0-0.7,0.5-1.1,1.5-1.4L367.8,277.7z M366,274.8c-1.1,0.6-2.4,0.9-3.8,0.7c-0.9-0.1-1.3-0.5-1.2-1.2c0.1-0.7,0.4-1.1,1.2-1.3
			c1.8,0,3.1-0.4,3.9-1.1s1.3-1.8,1.5-3.2c0.2-1.4,0.6-2.3,1.1-2.6c0-0.1,0.2-0.1,0.5-0.1c1.1,0.2,1.5,1.1,1.1,2.5
			c-0.4,1.9-0.9,3.3-1.6,4.1C368,273.5,367.1,274.2,366,274.8z"/>
		<path class="st68" d="M382,263.4c0.5-0.1,0.8,0,1.1,0.5c0.3,0.4,0.1,1.5-0.6,3.3s-0.9,3.2-0.8,4.3c0.1,1.1,0.5,1.7,1,1.8
			c0.6,0,1,0.3,1.2,0.9v0.2v0.2c0,0.5-0.3,0.9-0.9,1.1h-0.3c-1.1,0-1.9-0.3-2.4-0.9c-0.4-0.6-0.6-1.5-0.6-2.8l0,0
			c-1.3,1.9-2.5,3.3-3.8,4.2c-1.1,0.8-2,1.4-2.9,1.8c-0.7,0.4-1.1,0.5-1.3,0.5h-0.3c-0.6,0-1.1-0.3-1.4-0.9v-0.3v-0.1
			c0-0.6,0.4-1,1.3-1.3c1.4-0.7,2.5-1.3,3.3-2s1.8-1.7,2.9-3c1.1-1.4,2-2.9,2.7-4.6C381,264.4,381.6,263.5,382,263.4z"/>
		<path class="st68" d="M389.9,266.7L389.9,266.7c0.7,0,1.3,0.3,1.7,1c0.4,0.7,0.6,1.6,0.6,2.9c0,1.2-0.4,2.4-1,3.4
			c-0.7,1.1-1.7,1.6-3.2,1.6c-1.3-0.1-2.2-0.6-2.7-1.6c-1,1.1-1.8,1.7-2.6,1.5c-0.7-0.2-1-0.5-1-1.1s0.1-1,0.5-1.2
			c0.3-0.2,0.7-0.3,1.1-0.4s0.8-0.4,1.3-0.9c0.5-0.6,1.2-1.6,2.2-3C387.7,267.5,388.7,266.7,389.9,266.7z M387.9,273.3
			c0.6,0.2,1.2,0,1.7-0.6c0.6-0.5,0.8-1.1,0.8-1.8c0-0.7-0.3-1.1-0.7-1.3s-1,0.2-1.7,1.1s-1.1,1.5-1.2,1.8
			C386.9,272.9,387.3,273.1,387.9,273.3z"/>
		<path class="st68" d="M411.4,272.8c0.1,1.3-0.4,1.8-1.5,1.7c-1.1-0.1-3.1,0.9-5.8,3c-1.4,1.3-2.4,2.3-2.8,2.9
			c-1.1,1.6-1.6,2.9-1.6,4v0.4c0,1.1,0.5,2.3,1.6,3.5s2.7,2,4.9,2.5c2.2,0.5,4.8,0.5,7.7,0c2.9-0.5,4.7-0.9,5.4-1.1
			c0.7-0.2,1.4-0.3,2.2-0.3h0.1c0.9,0,1.4,0.4,1.4,1.3c0,0.7-0.8,1.3-2.3,1.9c-0.2,0.1-0.3,0.1-0.5-0.1c-0.2-0.1-0.4-0.3-0.5-0.6
			c-0.1-0.3-1.4-0.1-3.9,0.6c-2.5,0.6-5.6,0.8-9.3,0.5c-3.7-0.3-6.4-2.1-8-5.2c-0.4-1-0.6-2-0.6-3c0-3.5,2.3-6.9,6.9-10.2
			c1.5-1,2.7-1.7,3.8-2.2l2.1-0.8L411.4,272.8z M408.2,267.4h2.6c3.1,0,4.6,0.4,4.6,1.3v0.3c0,1.1-0.6,2.2-1.7,3.4l-0.6,0.5
			c0.8,0.2,1.4,0.2,1.8,0.1c0.7,0.3,1.1,0.7,1.1,1.2v0.2c0,0.7-0.4,1.1-1.3,1.2c-2.1,0-3.7-0.3-4.8-1.2l-0.4-2.6
			c0.5-0.3,0.8-0.6,1-0.8v-0.2c0-0.5-0.4-0.8-1.3-0.8l-1.9,0.1c-1-0.1-1.5-0.5-1.5-1.2v-0.5C405.7,267.7,406.5,267.4,408.2,267.4z"
			/>
		<path class="st68" d="M421.6,266.7L421.6,266.7c0.7,0,1.3,0.3,1.7,1c0.4,0.7,0.6,1.6,0.6,2.9c0,1.2-0.4,2.4-1,3.4
			c-0.7,1.1-1.7,1.6-3.2,1.6c-1.3-0.1-2.2-0.6-2.7-1.6c-1,1.1-1.8,1.7-2.6,1.5c-0.7-0.2-1-0.5-1-1.1s0.1-1,0.5-1.2
			c0.3-0.2,0.7-0.3,1.1-0.4s0.8-0.4,1.3-0.9c0.5-0.6,1.2-1.6,2.2-3C419.4,267.5,420.5,266.7,421.6,266.7z M419.6,273.3
			c0.6,0.2,1.2,0,1.7-0.6c0.6-0.5,0.8-1.1,0.8-1.8c0-0.7-0.3-1.1-0.7-1.3s-1,0.2-1.7,1.1s-1.1,1.5-1.2,1.8
			C418.7,272.9,419,273.1,419.6,273.3z"/>
		<path class="st68" d="M433.5,260.6h0.4c0.5,0,0.9,0.3,1.1,1v0.2c0,0.4-0.6,1.3-1.8,2.5c-2.3,2.8-3.5,4.8-3.5,6.3v0.4
			c0.2,1.4,0.8,2.1,1.8,2.1c0.9,0,1.3,0.4,1.3,1.1v0.4c0,0.6-0.4,1-1.3,1.1c-2,0-3.4-1.1-4.1-3.3l-0.1-1.3v-0.2
			c0-2.6,1.9-5.9,5.7-10L433.5,260.6z"/>
		<path class="st68" d="M437.6,264.2L437.6,264.2c1,0,2,0.8,3.2,2.5c0.8,1,1.2,1.6,1.4,1.7c0.9-0.6,1.5-0.9,1.9-0.9h0.3
			c0.4,0,0.8,0.3,1,0.8c0.1,0.1,0.1,0.3,0.1,0.5c0,0.6-0.4,1.3-1.2,2c-0.5,0.4-1,0.6-1.5,0.6l-0.6-0.1c-1.9,1.1-3.4,2-4.7,2.6
			c-2.6,1.1-4.2,1.6-4.7,1.6c-0.3,0.1-0.6,0.1-1,0.1h-0.1c-0.5,0-0.9-0.3-1.1-0.8l-0.1-0.3v-0.2c0-0.5,0.3-0.9,1-1.1
			c0.9,0,2-0.3,3.1-0.8c2.1-0.8,4-1.7,5.8-2.9c-1.2-1.8-2.2-2.8-2.9-2.8c-0.5,0-1.4,1-2.8,3c-0.4,0.4-0.6,0.7-0.9,0.7
			s-0.6-0.3-0.9-0.9l-0.1-0.4c0-0.8,0.6-1.8,1.9-3C436,264.9,436.9,264.2,437.6,264.2z M435.9,280.5c0.8,0,1.4,0.5,1.9,1.5v0.3
			c0,0.5-0.5,0.9-1.4,1.1h-0.3c-0.8,0-1.3-0.6-1.4-1.8C434.7,281,435.1,280.6,435.9,280.5z"/>
		<path class="st68" d="M459.3,268c1.9,0,3.1,0.7,3.6,2c0.2,0.4,0.3,1.3,0.4,2.5c0.1,0.3,0.2,0.5,0.5,0.5c0.7,0.3,1,0.7,1,1.1v0.2
			c0,0.6-0.4,1.1-1.1,1.3h-0.9c-0.8,0-1.4-0.3-1.7-0.9c-0.2-0.3-0.4-1.5-0.6-3.5c-0.2-0.6-0.5-0.9-0.9-0.9h-0.2h-0.2
			c-1.6,0-3.6,1.3-5.9,3.8c-0.8,1-1.3,1.8-1.4,2.3l0,0l0.5-0.1h0.1c0.8,0.1,1.3,0.5,1.3,1.2l0,0l0,0c0,1-0.8,1.5-2.3,1.5
			c-1.2,0-2-0.5-2.3-1.6V277v-0.3c0-1.5,1.4-3.5,4.2-6C455.5,268.9,457.5,268,459.3,268z"/>
		<path class="st68" d="M467.1,274.8c-1.1,0.6-2.4,0.9-3.8,0.7c-0.9-0.1-1.3-0.5-1.2-1.2c0.1-0.7,0.4-1.1,1.2-1.3
			c1.8,0,3.1-0.4,3.9-1.1s1.3-1.8,1.5-3.2c0.2-1.4,0.6-2.3,1.1-2.6c0-0.1,0.2-0.1,0.5-0.1c1.1,0.2,1.5,1.1,1.1,2.5
			c-0.4,1.9-0.9,3.3-1.6,4.1C469.1,273.5,468.2,274.2,467.1,274.8z M468.6,257.2c0.8,0,1.4,0.5,1.9,1.5v0.3c0,0.5-0.5,0.9-1.4,1.1
			h-0.3c-0.8,0-1.3-0.6-1.4-1.8C467.4,257.6,467.8,257.3,468.6,257.2z"/>
		<path class="st68" d="M480.6,260.6h0.4c0.5,0,0.9,0.3,1.1,1v0.2c0,0.4-0.6,1.3-1.8,2.5c-2.3,2.8-3.5,4.8-3.5,6.3v0.4
			c0.2,1.4,0.8,2.1,1.8,2.1c0.9,0,1.3,0.4,1.3,1.1v0.4c0,0.6-0.4,1-1.3,1.1c-2,0-3.4-1.1-4.1-3.3l-0.1-1.3v-0.2
			c0-2.6,1.9-5.9,5.7-10L480.6,260.6z"/>
		<path class="st68" d="M485.8,266.7L485.8,266.7c0.7,0,1.3,0.3,1.7,1c0.4,0.7,0.6,1.6,0.6,2.9c0,1.2-0.4,2.4-1,3.4
			c-0.7,1.1-1.7,1.6-3.2,1.6c-1.3-0.1-2.2-0.6-2.7-1.6c-1,1.1-1.8,1.7-2.6,1.5c-0.7-0.2-1-0.5-1-1.1s0.1-1,0.5-1.2
			c0.3-0.2,0.7-0.3,1.1-0.4s0.8-0.4,1.3-0.9c0.5-0.6,1.2-1.6,2.2-3C483.6,267.5,484.7,266.7,485.8,266.7z M483.8,273.3
			c0.6,0.2,1.2,0,1.7-0.6c0.6-0.5,0.8-1.1,0.8-1.8c0-0.7-0.3-1.1-0.7-1.3s-1,0.2-1.7,1.1s-1.1,1.5-1.2,1.8
			C482.8,272.9,483.2,273.1,483.8,273.3z"/>
		<path class="st68" d="M497.6,260.6h0.4c0.5,0,0.9,0.3,1.1,1v0.2c0,0.4-0.6,1.3-1.8,2.5c-2.3,2.8-3.5,4.8-3.5,6.3v0.4
			c0.2,1.4,0.8,2.1,1.8,2.1c0.9,0,1.3,0.4,1.3,1.1v0.4c0,0.6-0.4,1-1.3,1.1c-2,0-3.4-1.1-4.1-3.3l-0.1-1.3v-0.2
			c0-2.6,1.9-5.9,5.7-10L497.6,260.6z"/>
		<path class="st68" d="M503.4,272.9c2.9-0.6,5.3-1.6,7.1-3.1c1.9-1.5,3-1.5,3.3,0.1l0,0c0.1,0.7-0.8,1.6-2.7,2.7
			c-1.8,1.1-4.3,2-7.3,2.5s-5.3,0.8-6.8,0.6c-1.5-0.1-2.3-0.4-2.3-0.7c-0.2-0.2-0.4-0.5-0.4-0.8c0.1-0.8,0.5-1.2,1.2-1.2
			C498,273.5,500.5,273.4,503.4,272.9z"/>
	</g>
	<line class="st69" x1="232.6" y1="245.4" x2="519.9" y2="245.4"/>
</g>
</svg>
